%
M48
M72
T01C0.0236
T02C0.0315
T03C0.0320
T04C0.0360
%
T01
X774Y834
X774Y10334
X774Y20334
X774Y29834
X17424Y9184
X17424Y8684
X20873Y17802
X20874Y22236
X27074Y22231
X20574Y29834
X27074Y11296
X27074Y834
T02
X22674Y7184
X22674Y8184
X22674Y9184
X22674Y10184
X22674Y12434
X22674Y13434
X22674Y14434
X22674Y15434
X18944Y15674
X18944Y14887
X18944Y13903
X18944Y16658
X18944Y23903
X18944Y24887
X18944Y25674
X18944Y26658
X3393Y26658
X3393Y25674
X3393Y24887
X3393Y23903
X3393Y16658
X3393Y15674
X3393Y14887
X3393Y13903
X3393Y6658
X3393Y5674
X3393Y4887
X3393Y3903
X18944Y3903
X18944Y4887
X18944Y5674
X18944Y6658
T03
X2924Y9434
X1924Y9434
T04
X25174Y4934
X26174Y4934
X26174Y3934
X26174Y2934
X26174Y1934
X26174Y934
X25174Y934
X25174Y1934
X25174Y2934
X25174Y3934
X25174Y17684
X26174Y17684
X26174Y18684
X26174Y19684
X26174Y20684
X26174Y21684
X25174Y21684
X25174Y20684
X25174Y19684
X25174Y18684
M30
