G75*
%MOIN*%
%OFA0B0*%
%FSLAX25Y25*%
%IPPOS*%
%LPD*%
%AMOC8*
5,1,8,0,0,1.08239X$1,22.5*
%
%ADD10C,0.01800*%
%ADD11C,0.00800*%
%ADD12C,0.00300*%
%ADD13C,0.04000*%
%ADD14C,0.00400*%
%ADD15C,0.01000*%
%ADD16R,0.03920X0.00140*%
%ADD17R,0.07280X0.00140*%
%ADD18R,0.09800X0.00140*%
%ADD19R,0.11480X0.00140*%
%ADD20R,0.13020X0.00140*%
%ADD21R,0.14560X0.00140*%
%ADD22R,0.15680X0.00140*%
%ADD23R,0.16800X0.00140*%
%ADD24R,0.17920X0.00140*%
%ADD25R,0.19040X0.00140*%
%ADD26R,0.09800X0.00140*%
%ADD27R,0.09660X0.00140*%
%ADD28R,0.09940X0.00140*%
%ADD29R,0.09940X0.00140*%
%ADD30R,0.10080X0.00140*%
%ADD31R,0.10220X0.00140*%
%ADD32R,0.10360X0.00140*%
%ADD33R,0.10500X0.00140*%
%ADD34R,0.10500X0.00140*%
%ADD35R,0.10640X0.00140*%
%ADD36R,0.10780X0.00140*%
%ADD37R,0.00560X0.00140*%
%ADD38R,0.10920X0.00140*%
%ADD39R,0.01120X0.00140*%
%ADD40R,0.11060X0.00140*%
%ADD41R,0.01680X0.00140*%
%ADD42R,0.11200X0.00140*%
%ADD43R,0.02240X0.00140*%
%ADD44R,0.11060X0.00140*%
%ADD45R,0.11340X0.00140*%
%ADD46R,0.02520X0.00140*%
%ADD47R,0.03080X0.00140*%
%ADD48R,0.11620X0.00140*%
%ADD49R,0.03640X0.00140*%
%ADD50R,0.11620X0.00140*%
%ADD51R,0.11760X0.00140*%
%ADD52R,0.11900X0.00140*%
%ADD53R,0.04480X0.00140*%
%ADD54R,0.12040X0.00140*%
%ADD55R,0.04760X0.00140*%
%ADD56R,0.12180X0.00140*%
%ADD57R,0.05040X0.00140*%
%ADD58R,0.05320X0.00140*%
%ADD59R,0.11200X0.00140*%
%ADD60R,0.00420X0.00140*%
%ADD61R,0.05600X0.00140*%
%ADD62R,0.00420X0.00140*%
%ADD63R,0.00140X0.00140*%
%ADD64R,0.05880X0.00140*%
%ADD65R,0.06160X0.00140*%
%ADD66R,0.06440X0.00140*%
%ADD67R,0.11760X0.00140*%
%ADD68R,0.06720X0.00140*%
%ADD69R,0.11900X0.00140*%
%ADD70R,0.07000X0.00140*%
%ADD71R,0.07000X0.00140*%
%ADD72R,0.12040X0.00140*%
%ADD73R,0.12320X0.00140*%
%ADD74R,0.07560X0.00140*%
%ADD75R,0.12320X0.00140*%
%ADD76R,0.00140X0.00140*%
%ADD77R,0.07840X0.00140*%
%ADD78R,0.07840X0.00140*%
%ADD79R,0.00280X0.00140*%
%ADD80R,0.08120X0.00140*%
%ADD81R,0.11340X0.00140*%
%ADD82R,0.08400X0.00140*%
%ADD83R,0.00980X0.00140*%
%ADD84R,0.08960X0.00140*%
%ADD85R,0.10220X0.00140*%
%ADD86R,0.09660X0.00140*%
%ADD87R,0.12040X0.00140*%
%ADD88R,0.09380X0.00140*%
%ADD89R,0.09240X0.00140*%
%ADD90R,0.09240X0.00140*%
%ADD91R,0.09100X0.00140*%
%ADD92R,0.08820X0.00140*%
%ADD93R,0.08680X0.00140*%
%ADD94R,0.08540X0.00140*%
%ADD95R,0.08540X0.00140*%
%ADD96R,0.08400X0.00140*%
%ADD97R,0.08260X0.00140*%
%ADD98R,0.08120X0.00140*%
%ADD99R,0.07980X0.00140*%
%ADD100R,0.00140X0.00140*%
%ADD101R,0.07840X0.00140*%
%ADD102R,0.07700X0.00140*%
%ADD103R,0.00420X0.00140*%
%ADD104R,0.14560X0.00140*%
%ADD105R,0.07560X0.00140*%
%ADD106R,0.07420X0.00140*%
%ADD107R,0.07280X0.00140*%
%ADD108R,0.07140X0.00140*%
%ADD109R,0.07140X0.00140*%
%ADD110R,0.01120X0.00140*%
%ADD111R,0.00700X0.00140*%
%ADD112R,0.06860X0.00140*%
%ADD113R,0.06860X0.00140*%
%ADD114R,0.06720X0.00140*%
%ADD115R,0.05600X0.00140*%
%ADD116R,0.06720X0.00140*%
%ADD117R,0.02380X0.00140*%
%ADD118R,0.02940X0.00140*%
%ADD119R,0.06580X0.00140*%
%ADD120R,0.00700X0.00140*%
%ADD121R,0.03080X0.00140*%
%ADD122R,0.06580X0.00140*%
%ADD123R,0.03220X0.00140*%
%ADD124R,0.00840X0.00140*%
%ADD125R,0.03360X0.00140*%
%ADD126R,0.03500X0.00140*%
%ADD127R,0.06440X0.00140*%
%ADD128R,0.00980X0.00140*%
%ADD129R,0.06440X0.00140*%
%ADD130R,0.01120X0.00140*%
%ADD131R,0.03640X0.00140*%
%ADD132R,0.01260X0.00140*%
%ADD133R,0.03780X0.00140*%
%ADD134R,0.06300X0.00140*%
%ADD135R,0.03920X0.00140*%
%ADD136R,0.01400X0.00140*%
%ADD137R,0.04060X0.00140*%
%ADD138R,0.01540X0.00140*%
%ADD139R,0.04340X0.00140*%
%ADD140R,0.08960X0.00140*%
%ADD141R,0.06300X0.00140*%
%ADD142R,0.01540X0.00140*%
%ADD143R,0.04620X0.00140*%
%ADD144R,0.09240X0.00140*%
%ADD145R,0.01680X0.00140*%
%ADD146R,0.19320X0.00140*%
%ADD147R,0.01960X0.00140*%
%ADD148R,0.19880X0.00140*%
%ADD149R,0.01540X0.00140*%
%ADD150R,0.24920X0.00140*%
%ADD151R,0.29680X0.00140*%
%ADD152R,0.06020X0.00140*%
%ADD153R,0.29960X0.00140*%
%ADD154R,0.29960X0.00140*%
%ADD155R,0.06020X0.00140*%
%ADD156R,0.00420X0.00140*%
%ADD157R,0.30240X0.00140*%
%ADD158R,0.06020X0.00140*%
%ADD159R,0.30240X0.00140*%
%ADD160R,0.06020X0.00140*%
%ADD161R,0.30520X0.00140*%
%ADD162R,0.01820X0.00140*%
%ADD163R,0.30800X0.00140*%
%ADD164R,0.01820X0.00140*%
%ADD165R,0.05880X0.00140*%
%ADD166R,0.01820X0.00140*%
%ADD167R,0.30800X0.00140*%
%ADD168R,0.05740X0.00140*%
%ADD169R,0.02100X0.00140*%
%ADD170R,0.31080X0.00140*%
%ADD171R,0.05740X0.00140*%
%ADD172R,0.00560X0.00140*%
%ADD173R,0.02240X0.00140*%
%ADD174R,0.31080X0.00140*%
%ADD175R,0.05740X0.00140*%
%ADD176R,0.02240X0.00140*%
%ADD177R,0.01120X0.00140*%
%ADD178R,0.14140X0.00140*%
%ADD179R,0.14140X0.00140*%
%ADD180R,0.01400X0.00140*%
%ADD181R,0.02380X0.00140*%
%ADD182R,0.13300X0.00140*%
%ADD183R,0.13440X0.00140*%
%ADD184R,0.02520X0.00140*%
%ADD185R,0.12880X0.00140*%
%ADD186R,0.12460X0.00140*%
%ADD187R,0.02100X0.00140*%
%ADD188R,0.02660X0.00140*%
%ADD189R,0.11480X0.00140*%
%ADD190R,0.02660X0.00140*%
%ADD191R,0.05460X0.00140*%
%ADD192R,0.02800X0.00140*%
%ADD193R,0.05460X0.00140*%
%ADD194R,0.02800X0.00140*%
%ADD195R,0.10220X0.00140*%
%ADD196R,0.06160X0.00140*%
%ADD197R,0.10360X0.00140*%
%ADD198R,0.05320X0.00140*%
%ADD199R,0.05180X0.00140*%
%ADD200R,0.09520X0.00140*%
%ADD201R,0.05040X0.00140*%
%ADD202R,0.02520X0.00140*%
%ADD203R,0.02940X0.00140*%
%ADD204R,0.09240X0.00140*%
%ADD205R,0.05040X0.00140*%
%ADD206R,0.04900X0.00140*%
%ADD207R,0.08820X0.00140*%
%ADD208R,0.08820X0.00140*%
%ADD209R,0.04620X0.00140*%
%ADD210R,0.04620X0.00140*%
%ADD211R,0.01260X0.00140*%
%ADD212R,0.03500X0.00140*%
%ADD213R,0.08540X0.00140*%
%ADD214R,0.10640X0.00140*%
%ADD215R,0.02940X0.00140*%
%ADD216R,0.10920X0.00140*%
%ADD217R,0.04620X0.00140*%
%ADD218R,0.07980X0.00140*%
%ADD219R,0.04340X0.00140*%
%ADD220R,0.01820X0.00140*%
%ADD221R,0.04340X0.00140*%
%ADD222R,0.04200X0.00140*%
%ADD223R,0.12600X0.00140*%
%ADD224R,0.04060X0.00140*%
%ADD225R,0.01960X0.00140*%
%ADD226R,0.07140X0.00140*%
%ADD227R,0.13160X0.00140*%
%ADD228R,0.07140X0.00140*%
%ADD229R,0.13160X0.00140*%
%ADD230R,0.13440X0.00140*%
%ADD231R,0.03920X0.00140*%
%ADD232R,0.13720X0.00140*%
%ADD233R,0.03780X0.00140*%
%ADD234R,0.13720X0.00140*%
%ADD235R,0.14000X0.00140*%
%ADD236R,0.14280X0.00140*%
%ADD237R,0.03640X0.00140*%
%ADD238R,0.03640X0.00140*%
%ADD239R,0.00280X0.00140*%
%ADD240R,0.14840X0.00140*%
%ADD241R,0.05320X0.00140*%
%ADD242R,0.14840X0.00140*%
%ADD243R,0.03220X0.00140*%
%ADD244R,0.03220X0.00140*%
%ADD245R,0.12180X0.00140*%
%ADD246R,0.04200X0.00140*%
%ADD247R,0.09940X0.00140*%
%ADD248R,0.04480X0.00140*%
%ADD249R,0.12600X0.00140*%
%ADD250R,0.07420X0.00140*%
%ADD251R,0.12740X0.00140*%
%ADD252R,0.12740X0.00140*%
%ADD253R,0.02940X0.00140*%
%ADD254R,0.15120X0.00140*%
%ADD255R,0.15120X0.00140*%
%ADD256R,0.15120X0.00140*%
%ADD257R,0.15120X0.00140*%
%ADD258R,0.00840X0.00140*%
%ADD259R,0.00840X0.00140*%
%ADD260R,0.14980X0.00140*%
%ADD261R,0.14980X0.00140*%
%ADD262R,0.02520X0.00140*%
%ADD263R,0.03220X0.00140*%
%ADD264R,0.14700X0.00140*%
%ADD265R,0.14700X0.00140*%
%ADD266R,0.16100X0.00140*%
%ADD267R,0.15960X0.00140*%
%ADD268R,0.15960X0.00140*%
%ADD269R,0.15820X0.00140*%
%ADD270R,0.15820X0.00140*%
%ADD271R,0.00140X0.00140*%
%ADD272R,0.15680X0.00140*%
%ADD273R,0.15820X0.00140*%
%ADD274R,0.15820X0.00140*%
%ADD275R,0.16100X0.00140*%
%ADD276R,0.00840X0.00140*%
%ADD277R,0.02240X0.00140*%
%ADD278R,0.16240X0.00140*%
%ADD279R,0.16380X0.00140*%
%ADD280R,0.16380X0.00140*%
%ADD281R,0.16240X0.00140*%
%ADD282R,0.16240X0.00140*%
%ADD283R,0.16240X0.00140*%
%ADD284R,0.03920X0.00140*%
%ADD285R,0.15540X0.00140*%
%ADD286R,0.15540X0.00140*%
%ADD287R,0.15400X0.00140*%
%ADD288R,0.15400X0.00140*%
%ADD289R,0.15260X0.00140*%
%ADD290R,0.15260X0.00140*%
%ADD291R,0.15540X0.00140*%
%ADD292R,0.15540X0.00140*%
%ADD293R,0.04340X0.00140*%
%ADD294R,0.22120X0.00140*%
%ADD295R,0.22120X0.00140*%
%ADD296R,0.21980X0.00140*%
%ADD297R,0.21980X0.00140*%
%ADD298R,0.21840X0.00140*%
%ADD299R,0.21840X0.00140*%
%ADD300R,0.21840X0.00140*%
%ADD301R,0.01540X0.00140*%
%ADD302R,0.05320X0.00140*%
%ADD303R,0.21840X0.00140*%
%ADD304R,0.21700X0.00140*%
%ADD305R,0.21560X0.00140*%
%ADD306R,0.21700X0.00140*%
%ADD307R,0.21560X0.00140*%
%ADD308R,0.21420X0.00140*%
%ADD309R,0.03360X0.00140*%
%ADD310R,0.21280X0.00140*%
%ADD311R,0.21280X0.00140*%
%ADD312R,0.21140X0.00140*%
%ADD313R,0.21000X0.00140*%
%ADD314R,0.21000X0.00140*%
%ADD315R,0.20860X0.00140*%
%ADD316R,0.20720X0.00140*%
%ADD317R,0.20720X0.00140*%
%ADD318R,0.20720X0.00140*%
%ADD319R,0.20580X0.00140*%
%ADD320R,0.20300X0.00140*%
%ADD321R,0.20160X0.00140*%
%ADD322R,0.20020X0.00140*%
%ADD323R,0.19740X0.00140*%
%ADD324R,0.19740X0.00140*%
%ADD325R,0.19460X0.00140*%
%ADD326R,0.18620X0.00140*%
%ADD327R,0.18340X0.00140*%
%ADD328R,0.18340X0.00140*%
%ADD329R,0.18060X0.00140*%
%ADD330R,0.17780X0.00140*%
%ADD331R,0.17640X0.00140*%
%ADD332R,0.17360X0.00140*%
%ADD333R,0.17080X0.00140*%
%ADD334R,0.04760X0.00140*%
%ADD335R,0.16520X0.00140*%
%ADD336R,0.04900X0.00140*%
%ADD337R,0.05040X0.00140*%
%ADD338R,0.14840X0.00140*%
%ADD339R,0.14420X0.00140*%
%ADD340R,0.14420X0.00140*%
%ADD341R,0.13860X0.00140*%
%ADD342R,0.05180X0.00140*%
%ADD343R,0.13020X0.00140*%
%ADD344R,0.07420X0.00140*%
%ADD345R,0.12880X0.00140*%
%ADD346R,0.08680X0.00140*%
%ADD347R,0.05740X0.00140*%
%ADD348R,0.09520X0.00140*%
%ADD349R,0.08820X0.00140*%
%ADD350R,0.17360X0.00140*%
%ADD351R,0.07700X0.00140*%
%ADD352R,0.35000X0.00140*%
%ADD353R,0.34440X0.00140*%
%ADD354R,0.34160X0.00140*%
%ADD355R,0.33600X0.00140*%
%ADD356R,0.33040X0.00140*%
%ADD357R,0.32480X0.00140*%
%ADD358R,0.31920X0.00140*%
%ADD359R,0.31360X0.00140*%
%ADD360R,0.29120X0.00140*%
%ADD361R,0.28280X0.00140*%
%ADD362R,0.27720X0.00140*%
%ADD363R,0.27160X0.00140*%
%ADD364R,0.26320X0.00140*%
%ADD365R,0.25760X0.00140*%
%ADD366R,0.24920X0.00140*%
%ADD367R,0.24360X0.00140*%
%ADD368R,0.23520X0.00140*%
%ADD369R,0.22680X0.00140*%
%ADD370R,0.20020X0.00140*%
%ADD371R,0.17080X0.00140*%
%ADD372C,0.00600*%
%ADD373R,0.02559X0.05512*%
%ADD374R,0.10236X0.02953*%
D10*
X0050119Y0250740D02*
X0063597Y0250740D01*
X0050119Y0264218D01*
X0050119Y0267588D01*
X0053489Y0270957D01*
X0060228Y0270957D01*
X0063597Y0267588D01*
X0070376Y0270957D02*
X0083855Y0270957D01*
X0090620Y0270957D02*
X0097360Y0270957D01*
X0093990Y0270957D02*
X0093990Y0250740D01*
X0097360Y0250740D02*
X0090620Y0250740D01*
X0077116Y0250740D02*
X0077116Y0270957D01*
X0104139Y0250740D02*
X0117617Y0250740D01*
X0117617Y0270957D01*
X0124396Y0267588D02*
X0127766Y0270957D01*
X0134505Y0270957D01*
X0137874Y0267588D01*
X0137874Y0254110D01*
X0134505Y0250740D01*
X0127766Y0250740D01*
X0124396Y0254110D01*
X0124396Y0267588D01*
X0144653Y0267588D02*
X0144653Y0264218D01*
X0148023Y0260849D01*
X0158131Y0260849D01*
X0148023Y0260849D02*
X0144653Y0257479D01*
X0144653Y0254110D01*
X0148023Y0250740D01*
X0158131Y0250740D01*
X0158131Y0270957D01*
X0148023Y0270957D01*
X0144653Y0267588D01*
X0164897Y0250740D02*
X0171636Y0250740D01*
X0168267Y0250740D02*
X0168267Y0264218D01*
X0171636Y0264218D01*
X0168267Y0270957D02*
X0168267Y0274327D01*
D11*
X0158988Y0061448D02*
X0154384Y0061448D01*
X0152849Y0059913D01*
X0152849Y0053775D01*
X0154384Y0052240D01*
X0158988Y0052240D01*
X0158988Y0061448D01*
X0149780Y0061448D02*
X0146711Y0061448D01*
X0148245Y0061448D02*
X0148245Y0052240D01*
X0146711Y0052240D02*
X0149780Y0052240D01*
X0149607Y0046448D02*
X0146538Y0046448D01*
X0145003Y0044913D01*
X0149607Y0046448D02*
X0151142Y0044913D01*
X0151142Y0038775D01*
X0149607Y0037240D01*
X0146538Y0037240D01*
X0145003Y0038775D01*
X0141934Y0037240D02*
X0141934Y0043379D01*
X0138864Y0046448D01*
X0135795Y0043379D01*
X0135795Y0037240D01*
X0132726Y0037240D02*
X0132726Y0046448D01*
X0128122Y0046448D01*
X0126587Y0044913D01*
X0126587Y0041844D01*
X0128122Y0040309D01*
X0132726Y0040309D01*
X0129657Y0040309D02*
X0126587Y0037240D01*
X0120449Y0037240D02*
X0120449Y0046448D01*
X0123518Y0046448D02*
X0117379Y0046448D01*
X0114310Y0046448D02*
X0109706Y0046448D01*
X0108172Y0044913D01*
X0108172Y0041844D01*
X0109706Y0040309D01*
X0114310Y0040309D01*
X0114310Y0037240D02*
X0114310Y0046448D01*
X0114483Y0052240D02*
X0111414Y0052240D01*
X0109879Y0053775D01*
X0109879Y0059913D01*
X0111414Y0061448D01*
X0114483Y0061448D01*
X0116018Y0059913D01*
X0116018Y0053775D01*
X0114483Y0052240D01*
X0119087Y0052240D02*
X0119087Y0061448D01*
X0125226Y0061448D02*
X0119087Y0052240D01*
X0125226Y0052240D02*
X0125226Y0061448D01*
X0128295Y0059913D02*
X0129830Y0061448D01*
X0132899Y0061448D01*
X0134434Y0059913D01*
X0134434Y0053775D01*
X0132899Y0052240D01*
X0129830Y0052240D01*
X0128295Y0053775D01*
X0128295Y0056844D01*
X0131364Y0056844D01*
X0137503Y0056844D02*
X0143642Y0056844D01*
X0143642Y0058379D02*
X0143642Y0052240D01*
X0143642Y0058379D02*
X0140572Y0061448D01*
X0137503Y0058379D01*
X0137503Y0052240D01*
X0135795Y0041844D02*
X0141934Y0041844D01*
X0111241Y0040309D02*
X0108172Y0037240D01*
X0105102Y0037240D02*
X0102033Y0037240D01*
X0103568Y0037240D02*
X0103568Y0046448D01*
X0105102Y0046448D02*
X0102033Y0046448D01*
X0098964Y0046448D02*
X0094360Y0046448D01*
X0092825Y0044913D01*
X0092825Y0038775D01*
X0094360Y0037240D01*
X0098964Y0037240D01*
X0098964Y0046448D01*
X0102206Y0052240D02*
X0105275Y0052240D01*
X0106810Y0053775D01*
X0105275Y0056844D02*
X0102206Y0056844D01*
X0100672Y0055309D01*
X0100672Y0053775D01*
X0102206Y0052240D01*
X0105275Y0056844D02*
X0106810Y0058379D01*
X0106810Y0059913D01*
X0105275Y0061448D01*
X0102206Y0061448D01*
X0100672Y0059913D01*
X0097602Y0061448D02*
X0091464Y0061448D01*
X0094533Y0061448D02*
X0094533Y0052240D01*
X0088394Y0052240D02*
X0085325Y0052240D01*
X0086860Y0052240D02*
X0086860Y0061448D01*
X0088394Y0061448D02*
X0085325Y0061448D01*
X0082256Y0059913D02*
X0082256Y0053775D01*
X0080721Y0052240D01*
X0077652Y0052240D01*
X0076117Y0053775D01*
X0073048Y0053775D02*
X0071513Y0052240D01*
X0068444Y0052240D01*
X0066909Y0053775D01*
X0066909Y0055309D01*
X0068444Y0056844D01*
X0071513Y0056844D01*
X0073048Y0058379D01*
X0073048Y0059913D01*
X0071513Y0061448D01*
X0068444Y0061448D01*
X0066909Y0059913D01*
X0076117Y0059913D02*
X0077652Y0061448D01*
X0080721Y0061448D01*
X0082256Y0059913D01*
X0080548Y0046448D02*
X0074409Y0046448D01*
X0077479Y0041844D02*
X0080548Y0041844D01*
X0080548Y0046448D02*
X0080548Y0037240D01*
X0074409Y0037240D01*
X0083617Y0038775D02*
X0083617Y0041844D01*
X0086687Y0041844D01*
X0089756Y0044913D02*
X0089756Y0038775D01*
X0088221Y0037240D01*
X0085152Y0037240D01*
X0083617Y0038775D01*
X0083617Y0044913D02*
X0085152Y0046448D01*
X0088221Y0046448D01*
X0089756Y0044913D01*
D12*
X0216656Y0081441D02*
X0220359Y0081441D01*
X0220359Y0083292D01*
X0219742Y0083910D01*
X0218507Y0083910D01*
X0217890Y0083292D01*
X0217890Y0081441D01*
X0219742Y0080227D02*
X0219742Y0077758D01*
X0220359Y0075920D02*
X0217890Y0075920D01*
X0217890Y0076537D02*
X0217890Y0075302D01*
X0218507Y0074088D02*
X0217890Y0073471D01*
X0217890Y0071619D01*
X0221593Y0071619D01*
X0221593Y0073471D01*
X0220976Y0074088D01*
X0220359Y0074088D01*
X0219742Y0073471D01*
X0219742Y0071619D01*
X0219742Y0073471D02*
X0219124Y0074088D01*
X0218507Y0074088D01*
X0220359Y0075302D02*
X0220359Y0075920D01*
X0221593Y0075920D02*
X0222210Y0075920D01*
X0219742Y0085124D02*
X0218507Y0085124D01*
X0217890Y0085741D01*
X0217890Y0086976D01*
X0218507Y0087593D01*
X0219742Y0087593D01*
X0220359Y0086976D01*
X0220359Y0085741D01*
X0219742Y0085124D01*
X0221593Y0088807D02*
X0221593Y0089424D01*
X0217890Y0089424D01*
X0217890Y0088807D02*
X0217890Y0090042D01*
X0218507Y0091263D02*
X0219124Y0091880D01*
X0219124Y0093731D01*
X0219742Y0093731D02*
X0217890Y0093731D01*
X0217890Y0091880D01*
X0218507Y0091263D01*
X0220359Y0091880D02*
X0220359Y0093114D01*
X0219742Y0093731D01*
X0220359Y0094946D02*
X0217890Y0094946D01*
X0219124Y0094946D02*
X0220359Y0096180D01*
X0220359Y0096797D01*
X0219742Y0101698D02*
X0218507Y0101698D01*
X0217890Y0102315D01*
X0217890Y0103550D01*
X0218507Y0104167D01*
X0219742Y0104167D01*
X0220359Y0103550D01*
X0220359Y0102315D01*
X0219742Y0101698D01*
X0220359Y0105381D02*
X0217890Y0105381D01*
X0219124Y0105381D02*
X0220359Y0106616D01*
X0220359Y0107233D01*
X0219742Y0112134D02*
X0218507Y0112134D01*
X0217890Y0112751D01*
X0217890Y0114603D01*
X0218507Y0115817D02*
X0219742Y0115817D01*
X0220359Y0116434D01*
X0220359Y0117668D01*
X0219742Y0118286D01*
X0219124Y0118286D01*
X0219124Y0115817D01*
X0218507Y0115817D02*
X0217890Y0116434D01*
X0217890Y0117668D01*
X0217890Y0119500D02*
X0220359Y0119500D01*
X0220359Y0120734D02*
X0220359Y0121352D01*
X0220359Y0120734D02*
X0219124Y0119500D01*
X0218507Y0122569D02*
X0219124Y0123186D01*
X0219124Y0125038D01*
X0219742Y0125038D02*
X0217890Y0125038D01*
X0217890Y0123186D01*
X0218507Y0122569D01*
X0220359Y0123186D02*
X0220359Y0124421D01*
X0219742Y0125038D01*
X0220359Y0126252D02*
X0217890Y0126252D01*
X0217890Y0127487D02*
X0219742Y0127487D01*
X0220359Y0128104D01*
X0219742Y0128721D01*
X0217890Y0128721D01*
X0217890Y0129936D02*
X0217890Y0131170D01*
X0217890Y0130553D02*
X0220359Y0130553D01*
X0220359Y0129936D01*
X0221593Y0130553D02*
X0222210Y0130553D01*
X0220359Y0133008D02*
X0219742Y0132391D01*
X0218507Y0132391D01*
X0217890Y0133008D01*
X0217890Y0134860D01*
X0220359Y0134860D02*
X0220359Y0133008D01*
X0219742Y0127487D02*
X0220359Y0126870D01*
X0220359Y0126252D01*
X0220359Y0114603D02*
X0220359Y0112751D01*
X0219742Y0112134D01*
X0219742Y0139757D02*
X0218507Y0139757D01*
X0217890Y0140374D01*
X0217890Y0141609D01*
X0218507Y0142226D01*
X0219742Y0142226D01*
X0220359Y0141609D01*
X0220359Y0140374D01*
X0219742Y0139757D01*
X0220359Y0143440D02*
X0217890Y0143440D01*
X0220359Y0143440D02*
X0220359Y0145292D01*
X0219742Y0145909D01*
X0217890Y0145909D01*
X0217890Y0147124D02*
X0217890Y0148358D01*
X0217890Y0147741D02*
X0221593Y0147741D01*
X0221593Y0147124D01*
X0220359Y0149579D02*
X0218507Y0149579D01*
X0217890Y0150196D01*
X0217890Y0152048D01*
X0217273Y0152048D02*
X0216656Y0151431D01*
X0216656Y0150813D01*
X0217273Y0152048D02*
X0220359Y0152048D01*
X0219742Y0153262D02*
X0222210Y0153262D01*
X0218507Y0153262D02*
X0217890Y0153262D01*
D13*
X0219240Y0174340D02*
X0239240Y0196840D01*
X0219240Y0219340D01*
X0219240Y0174340D01*
X0219240Y0051840D02*
X0239240Y0029340D01*
X0219240Y0006840D01*
X0219240Y0051840D01*
D14*
X0065684Y0005040D02*
X0062948Y0005040D01*
X0064316Y0005040D02*
X0064316Y0009144D01*
X0065684Y0007776D01*
X0067071Y0005724D02*
X0067071Y0005040D01*
X0067755Y0005040D01*
X0067755Y0005724D01*
X0067071Y0005724D01*
X0069163Y0005040D02*
X0071899Y0005040D01*
X0070531Y0005040D02*
X0070531Y0009144D01*
X0071899Y0007776D01*
X0077450Y0007092D02*
X0077450Y0005040D01*
X0077450Y0007092D02*
X0078134Y0007776D01*
X0080186Y0007776D01*
X0080186Y0005040D01*
X0081594Y0005724D02*
X0081594Y0007092D01*
X0082278Y0007776D01*
X0083646Y0007776D01*
X0084330Y0007092D01*
X0084330Y0005724D01*
X0083646Y0005040D01*
X0082278Y0005040D01*
X0081594Y0005724D01*
X0085724Y0005040D02*
X0087092Y0005040D01*
X0086408Y0005040D02*
X0086408Y0007776D01*
X0087092Y0007776D01*
X0088500Y0007776D02*
X0090552Y0007776D01*
X0091235Y0007092D01*
X0090552Y0006408D01*
X0089184Y0006408D01*
X0088500Y0005724D01*
X0089184Y0005040D01*
X0091235Y0005040D01*
X0092637Y0007776D02*
X0093321Y0007776D01*
X0094688Y0006408D01*
X0094688Y0005040D02*
X0094688Y0007776D01*
X0096096Y0007092D02*
X0096096Y0006408D01*
X0098832Y0006408D01*
X0098832Y0007092D02*
X0098148Y0007776D01*
X0096780Y0007776D01*
X0096096Y0007092D01*
X0096780Y0005040D02*
X0098148Y0005040D01*
X0098832Y0005724D01*
X0098832Y0007092D01*
X0100240Y0006408D02*
X0100240Y0009144D01*
X0102975Y0009144D02*
X0102975Y0006408D01*
X0101608Y0005040D01*
X0100240Y0006408D01*
X0108527Y0007776D02*
X0110579Y0007776D01*
X0111263Y0007092D01*
X0111263Y0005724D01*
X0110579Y0005040D01*
X0108527Y0005040D01*
X0108527Y0009144D01*
X0112664Y0007776D02*
X0113348Y0007776D01*
X0114715Y0006408D01*
X0114715Y0005040D02*
X0114715Y0007776D01*
X0116123Y0007092D02*
X0116123Y0005040D01*
X0118175Y0005040D01*
X0118859Y0005724D01*
X0118175Y0006408D01*
X0116123Y0006408D01*
X0116123Y0007092D02*
X0116807Y0007776D01*
X0118175Y0007776D01*
X0120267Y0007092D02*
X0120267Y0005724D01*
X0120951Y0005040D01*
X0122319Y0005040D01*
X0123003Y0005724D01*
X0123003Y0007092D01*
X0122319Y0007776D01*
X0120951Y0007776D01*
X0120267Y0007092D01*
X0124410Y0007092D02*
X0124410Y0005724D01*
X0125094Y0005040D01*
X0127146Y0005040D01*
X0127146Y0009144D01*
X0127146Y0007776D02*
X0125094Y0007776D01*
X0124410Y0007092D01*
X0128547Y0007776D02*
X0129231Y0007776D01*
X0130599Y0006408D01*
X0130599Y0005040D02*
X0130599Y0007776D01*
X0132007Y0007092D02*
X0132007Y0006408D01*
X0134743Y0006408D01*
X0134743Y0007092D02*
X0134059Y0007776D01*
X0132691Y0007776D01*
X0132007Y0007092D01*
X0132691Y0005040D02*
X0134059Y0005040D01*
X0134743Y0005724D01*
X0134743Y0007092D01*
X0136137Y0007776D02*
X0137505Y0007776D01*
X0136821Y0008460D02*
X0136821Y0005724D01*
X0136137Y0005040D01*
X0138913Y0005040D02*
X0138913Y0007092D01*
X0139597Y0007776D01*
X0140965Y0007776D01*
X0141648Y0007092D01*
X0143056Y0007776D02*
X0143056Y0004356D01*
X0143740Y0003672D01*
X0144424Y0003672D01*
X0145108Y0005040D02*
X0143056Y0005040D01*
X0141648Y0005040D02*
X0141648Y0009144D01*
X0143056Y0007776D02*
X0145108Y0007776D01*
X0145792Y0007092D01*
X0145792Y0005724D01*
X0145108Y0005040D01*
X0147200Y0005040D02*
X0147200Y0007776D01*
X0149936Y0007776D02*
X0149936Y0005724D01*
X0149252Y0005040D01*
X0147200Y0005040D01*
X0151343Y0005040D02*
X0153395Y0005040D01*
X0154079Y0005724D01*
X0153395Y0006408D01*
X0151343Y0006408D01*
X0151343Y0007092D02*
X0151343Y0005040D01*
X0151343Y0007092D02*
X0152027Y0007776D01*
X0153395Y0007776D01*
X0155487Y0008460D02*
X0156171Y0009144D01*
X0158223Y0009144D01*
X0158223Y0005040D01*
X0156171Y0005040D01*
X0155487Y0005724D01*
X0155487Y0008460D01*
X0197707Y0072832D02*
X0196940Y0073599D01*
X0196940Y0075134D01*
X0197707Y0075901D01*
X0197707Y0077436D02*
X0196940Y0078203D01*
X0196940Y0079738D01*
X0197707Y0080505D01*
X0198475Y0080505D01*
X0199242Y0079738D01*
X0199242Y0077436D01*
X0197707Y0077436D01*
X0199242Y0077436D02*
X0200777Y0078971D01*
X0201544Y0080505D01*
X0204340Y0080640D02*
X0204340Y0073040D01*
X0201544Y0073599D02*
X0200777Y0072832D01*
X0197707Y0072832D01*
X0201544Y0073599D02*
X0201544Y0075134D01*
X0200777Y0075901D01*
X0214140Y0073040D02*
X0214140Y0080640D01*
X0214140Y0093040D02*
X0214140Y0100640D01*
X0204340Y0100640D02*
X0204340Y0093040D01*
X0201544Y0093599D02*
X0201544Y0095134D01*
X0200777Y0095901D01*
X0200777Y0097436D02*
X0200009Y0097436D01*
X0199242Y0098203D01*
X0199242Y0100505D01*
X0197707Y0100505D02*
X0200777Y0100505D01*
X0201544Y0099738D01*
X0201544Y0098203D01*
X0200777Y0097436D01*
X0201544Y0093599D02*
X0200777Y0092832D01*
X0197707Y0092832D01*
X0196940Y0093599D01*
X0196940Y0095134D01*
X0197707Y0095901D01*
X0197707Y0097436D02*
X0196940Y0098203D01*
X0196940Y0099738D01*
X0197707Y0100505D01*
X0197707Y0124540D02*
X0196940Y0125307D01*
X0196940Y0126842D01*
X0197707Y0127609D01*
X0197707Y0129144D02*
X0198475Y0129144D01*
X0199242Y0129911D01*
X0199242Y0131446D01*
X0198475Y0132213D01*
X0197707Y0132213D01*
X0196940Y0131446D01*
X0196940Y0129911D01*
X0197707Y0129144D01*
X0199242Y0129911D02*
X0200009Y0129144D01*
X0200777Y0129144D01*
X0201544Y0129911D01*
X0201544Y0131446D01*
X0200777Y0132213D01*
X0200009Y0132213D01*
X0199242Y0131446D01*
X0200777Y0127609D02*
X0201544Y0126842D01*
X0201544Y0125307D01*
X0200777Y0124540D01*
X0197707Y0124540D01*
X0204340Y0125540D02*
X0204340Y0133140D01*
X0214140Y0133140D02*
X0214140Y0125540D01*
X0214140Y0145540D02*
X0214140Y0153140D01*
X0204340Y0153140D02*
X0204340Y0145540D01*
X0201544Y0145307D02*
X0200777Y0144540D01*
X0197707Y0144540D01*
X0196940Y0145307D01*
X0196940Y0146842D01*
X0197707Y0147609D01*
X0197707Y0149144D02*
X0196940Y0149144D01*
X0197707Y0149144D02*
X0200777Y0152213D01*
X0201544Y0152213D01*
X0201544Y0149144D01*
X0200777Y0147609D02*
X0201544Y0146842D01*
X0201544Y0145307D01*
X0086408Y0009827D02*
X0086408Y0009144D01*
X0028248Y0102040D02*
X0028248Y0106644D01*
X0025946Y0106644D01*
X0025179Y0105877D01*
X0025179Y0104342D01*
X0025946Y0103575D01*
X0028248Y0103575D01*
X0026713Y0103575D02*
X0025179Y0102040D01*
X0023644Y0102040D02*
X0020575Y0102040D01*
X0022109Y0102040D02*
X0022109Y0106644D01*
X0023644Y0105109D01*
X0022679Y0117040D02*
X0024981Y0118575D01*
X0022679Y0120109D01*
X0021144Y0120877D02*
X0020377Y0121644D01*
X0018842Y0121644D01*
X0018075Y0120877D01*
X0018075Y0120109D01*
X0021144Y0117040D01*
X0018075Y0117040D01*
X0024981Y0117040D02*
X0024981Y0121644D01*
X0026515Y0120877D02*
X0027283Y0121644D01*
X0028817Y0121644D01*
X0029584Y0120877D01*
X0026515Y0120877D02*
X0026515Y0120109D01*
X0029584Y0117040D01*
X0026515Y0117040D01*
X0095132Y0297040D02*
X0095132Y0301144D01*
X0097184Y0299092D01*
X0094448Y0299092D01*
X0098591Y0299776D02*
X0098591Y0300460D01*
X0099275Y0301144D01*
X0100643Y0301144D01*
X0101327Y0300460D01*
X0102735Y0300460D02*
X0105471Y0297724D01*
X0104787Y0297040D01*
X0103419Y0297040D01*
X0102735Y0297724D01*
X0102735Y0300460D01*
X0103419Y0301144D01*
X0104787Y0301144D01*
X0105471Y0300460D01*
X0105471Y0297724D01*
X0106878Y0297040D02*
X0109614Y0297040D01*
X0106878Y0299776D01*
X0106878Y0300460D01*
X0107562Y0301144D01*
X0108930Y0301144D01*
X0109614Y0300460D01*
X0115166Y0300460D02*
X0115849Y0301144D01*
X0117217Y0301144D01*
X0117901Y0300460D01*
X0117901Y0297724D01*
X0117217Y0297040D01*
X0115849Y0297040D01*
X0115166Y0297724D01*
X0119309Y0297724D02*
X0119993Y0297040D01*
X0121361Y0297040D01*
X0122045Y0297724D01*
X0123453Y0297724D02*
X0124137Y0297040D01*
X0126188Y0297040D01*
X0126188Y0301144D01*
X0124137Y0301144D01*
X0123453Y0300460D01*
X0123453Y0299776D01*
X0124137Y0299092D01*
X0126188Y0299092D01*
X0127596Y0299092D02*
X0128280Y0298408D01*
X0130332Y0298408D01*
X0128964Y0298408D02*
X0127596Y0297040D01*
X0127596Y0299092D02*
X0127596Y0300460D01*
X0128280Y0301144D01*
X0130332Y0301144D01*
X0130332Y0297040D01*
X0124137Y0299092D02*
X0123453Y0298408D01*
X0123453Y0297724D01*
X0122045Y0299776D02*
X0122045Y0300460D01*
X0121361Y0301144D01*
X0119993Y0301144D01*
X0119309Y0300460D01*
X0119993Y0299092D02*
X0119309Y0298408D01*
X0119309Y0297724D01*
X0119993Y0299092D02*
X0121361Y0299092D01*
X0122045Y0299776D01*
X0101327Y0297040D02*
X0098591Y0299776D01*
X0098591Y0297040D02*
X0101327Y0297040D01*
D15*
X0219240Y0216840D02*
X0219240Y0174340D01*
X0239240Y0194340D01*
X0239240Y0196840D01*
X0219240Y0216840D01*
X0219240Y0216420D02*
X0219660Y0216420D01*
X0219240Y0215421D02*
X0220659Y0215421D01*
X0221657Y0214423D02*
X0219240Y0214423D01*
X0219240Y0213424D02*
X0222656Y0213424D01*
X0223654Y0212426D02*
X0219240Y0212426D01*
X0219240Y0211427D02*
X0224653Y0211427D01*
X0225651Y0210429D02*
X0219240Y0210429D01*
X0219240Y0209430D02*
X0226650Y0209430D01*
X0227648Y0208432D02*
X0219240Y0208432D01*
X0219240Y0207433D02*
X0228647Y0207433D01*
X0229645Y0206435D02*
X0219240Y0206435D01*
X0219240Y0205436D02*
X0230644Y0205436D01*
X0231642Y0204438D02*
X0219240Y0204438D01*
X0219240Y0203439D02*
X0232641Y0203439D01*
X0233639Y0202441D02*
X0219240Y0202441D01*
X0219240Y0201442D02*
X0234638Y0201442D01*
X0235636Y0200444D02*
X0219240Y0200444D01*
X0219240Y0199445D02*
X0236635Y0199445D01*
X0237633Y0198447D02*
X0219240Y0198447D01*
X0219240Y0197448D02*
X0238632Y0197448D01*
X0239240Y0196450D02*
X0219240Y0196450D01*
X0219240Y0195451D02*
X0239240Y0195451D01*
X0239240Y0194453D02*
X0219240Y0194453D01*
X0219240Y0193454D02*
X0238354Y0193454D01*
X0237356Y0192456D02*
X0219240Y0192456D01*
X0219240Y0191457D02*
X0236357Y0191457D01*
X0235359Y0190459D02*
X0219240Y0190459D01*
X0219240Y0189460D02*
X0234360Y0189460D01*
X0233362Y0188462D02*
X0219240Y0188462D01*
X0219240Y0187463D02*
X0232363Y0187463D01*
X0231365Y0186465D02*
X0219240Y0186465D01*
X0219240Y0185466D02*
X0230366Y0185466D01*
X0229368Y0184468D02*
X0219240Y0184468D01*
X0219240Y0183469D02*
X0228369Y0183469D01*
X0227371Y0182471D02*
X0219240Y0182471D01*
X0219240Y0181472D02*
X0226372Y0181472D01*
X0225374Y0180474D02*
X0219240Y0180474D01*
X0219240Y0179475D02*
X0224375Y0179475D01*
X0223377Y0178477D02*
X0219240Y0178477D01*
X0219240Y0177478D02*
X0222378Y0177478D01*
X0221379Y0176479D02*
X0219240Y0176479D01*
X0219240Y0175481D02*
X0220381Y0175481D01*
X0219382Y0174482D02*
X0219240Y0174482D01*
X0219240Y0049340D02*
X0219240Y0006840D01*
X0239240Y0026840D01*
X0239240Y0029340D01*
X0219240Y0049340D01*
X0219240Y0048670D02*
X0219910Y0048670D01*
X0219240Y0047672D02*
X0220908Y0047672D01*
X0221907Y0046673D02*
X0219240Y0046673D01*
X0219240Y0045674D02*
X0222905Y0045674D01*
X0223904Y0044676D02*
X0219240Y0044676D01*
X0219240Y0043677D02*
X0224903Y0043677D01*
X0225901Y0042679D02*
X0219240Y0042679D01*
X0219240Y0041680D02*
X0226900Y0041680D01*
X0227898Y0040682D02*
X0219240Y0040682D01*
X0219240Y0039683D02*
X0228897Y0039683D01*
X0229895Y0038685D02*
X0219240Y0038685D01*
X0219240Y0037686D02*
X0230894Y0037686D01*
X0231892Y0036688D02*
X0219240Y0036688D01*
X0219240Y0035689D02*
X0232891Y0035689D01*
X0233889Y0034691D02*
X0219240Y0034691D01*
X0219240Y0033692D02*
X0234888Y0033692D01*
X0235886Y0032694D02*
X0219240Y0032694D01*
X0219240Y0031695D02*
X0236885Y0031695D01*
X0237883Y0030697D02*
X0219240Y0030697D01*
X0219240Y0029698D02*
X0238882Y0029698D01*
X0239240Y0028700D02*
X0219240Y0028700D01*
X0219240Y0027701D02*
X0239240Y0027701D01*
X0239103Y0026703D02*
X0219240Y0026703D01*
X0219240Y0025704D02*
X0238104Y0025704D01*
X0237106Y0024706D02*
X0219240Y0024706D01*
X0219240Y0023707D02*
X0236107Y0023707D01*
X0235109Y0022709D02*
X0219240Y0022709D01*
X0219240Y0021710D02*
X0234110Y0021710D01*
X0233112Y0020712D02*
X0219240Y0020712D01*
X0219240Y0019713D02*
X0232113Y0019713D01*
X0231115Y0018715D02*
X0219240Y0018715D01*
X0219240Y0017716D02*
X0230116Y0017716D01*
X0229118Y0016718D02*
X0219240Y0016718D01*
X0219240Y0015719D02*
X0228119Y0015719D01*
X0227121Y0014721D02*
X0219240Y0014721D01*
X0219240Y0013722D02*
X0226122Y0013722D01*
X0225124Y0012724D02*
X0219240Y0012724D01*
X0219240Y0011725D02*
X0224125Y0011725D01*
X0223127Y0010727D02*
X0219240Y0010727D01*
X0219240Y0009728D02*
X0222128Y0009728D01*
X0221130Y0008730D02*
X0219240Y0008730D01*
X0219240Y0007731D02*
X0220131Y0007731D01*
D16*
X0111810Y0118640D03*
X0111810Y0122140D03*
X0104670Y0153640D03*
D17*
X0100470Y0140200D03*
X0092210Y0140480D03*
X0092210Y0140620D03*
X0090250Y0129280D03*
X0090530Y0129000D03*
X0111810Y0131520D03*
X0111810Y0123820D03*
X0111810Y0118780D03*
X0133090Y0129000D03*
X0133370Y0129280D03*
X0131410Y0140480D03*
X0131410Y0140620D03*
X0123150Y0140200D03*
X0111670Y0172120D03*
X0097670Y0182200D03*
X0125950Y0182200D03*
D18*
X0115590Y0174780D03*
X0115450Y0174920D03*
X0115170Y0175060D03*
X0122450Y0137960D03*
X0101170Y0137960D03*
X0111810Y0118920D03*
D19*
X0111810Y0119060D03*
X0111810Y0125080D03*
X0120910Y0121860D03*
X0123290Y0123120D03*
X0125390Y0124380D03*
X0111810Y0139360D03*
X0100330Y0123120D03*
X0100470Y0122980D03*
X0102710Y0121860D03*
X0098230Y0124380D03*
X0090810Y0142020D03*
X0090810Y0142160D03*
X0132810Y0142160D03*
X0132810Y0142020D03*
X0111810Y0188360D03*
D20*
X0114400Y0171420D03*
X0132180Y0144400D03*
X0111740Y0119200D03*
X0091440Y0144400D03*
D21*
X0111810Y0141740D03*
X0111810Y0129140D03*
X0111810Y0128440D03*
X0111810Y0119340D03*
D22*
X0111810Y0119480D03*
X0088570Y0149300D03*
X0088150Y0153360D03*
X0088150Y0153500D03*
X0088850Y0157980D03*
X0134770Y0157980D03*
X0135470Y0153500D03*
X0135470Y0153360D03*
X0135050Y0149300D03*
D23*
X0134070Y0158680D03*
X0130290Y0164980D03*
X0093330Y0164980D03*
X0089550Y0158680D03*
X0111810Y0119620D03*
D24*
X0111810Y0119760D03*
D25*
X0111810Y0119900D03*
X0093610Y0164000D03*
X0111810Y0187520D03*
X0130010Y0164000D03*
D26*
X0115870Y0174640D03*
X0106630Y0120040D03*
D27*
X0116920Y0120040D03*
X0128120Y0125640D03*
X0095500Y0125640D03*
X0114680Y0175340D03*
D28*
X0109500Y0159520D03*
X0122380Y0137820D03*
X0127560Y0125360D03*
X0106280Y0120180D03*
X0096060Y0125360D03*
D29*
X0101240Y0137820D03*
X0117340Y0120180D03*
D30*
X0117690Y0120320D03*
X0127350Y0125220D03*
X0122310Y0137680D03*
X0111810Y0138660D03*
X0101310Y0137680D03*
X0096270Y0125220D03*
X0105930Y0120320D03*
D31*
X0105580Y0120460D03*
X0118040Y0120460D03*
X0127000Y0125080D03*
D32*
X0118390Y0120600D03*
X0105230Y0120600D03*
X0111810Y0138800D03*
D33*
X0126720Y0124940D03*
X0118740Y0120740D03*
X0104880Y0120740D03*
X0096900Y0124940D03*
D34*
X0104600Y0120880D03*
X0119020Y0120880D03*
X0122100Y0137400D03*
X0101520Y0137400D03*
X0099280Y0183180D03*
D35*
X0092770Y0166800D03*
X0122030Y0137260D03*
X0126370Y0124800D03*
X0119370Y0121020D03*
X0104250Y0121020D03*
X0097250Y0124800D03*
X0130850Y0166800D03*
X0124270Y0183180D03*
D36*
X0111600Y0143000D03*
X0101660Y0137260D03*
X0104040Y0121160D03*
X0119580Y0121160D03*
D37*
X0116290Y0122700D03*
X0117130Y0124660D03*
X0117130Y0124800D03*
X0115590Y0130120D03*
X0108030Y0130120D03*
X0106490Y0124800D03*
X0106490Y0124660D03*
X0107330Y0122700D03*
X0111810Y0121160D03*
X0125530Y0131660D03*
X0135890Y0138100D03*
X0139670Y0142160D03*
X0142050Y0147060D03*
X0142050Y0147200D03*
X0125810Y0149300D03*
X0123010Y0149860D03*
X0123010Y0150000D03*
X0122870Y0150420D03*
X0122870Y0150560D03*
X0122590Y0151120D03*
X0122590Y0151260D03*
X0122450Y0151400D03*
X0122310Y0151680D03*
X0122170Y0151820D03*
X0122170Y0151960D03*
X0122030Y0152100D03*
X0123570Y0152520D03*
X0126370Y0153920D03*
X0125530Y0156580D03*
X0120910Y0155460D03*
X0118530Y0152800D03*
X0115730Y0152800D03*
X0115590Y0152660D03*
X0115450Y0152520D03*
X0115310Y0152380D03*
X0115030Y0152100D03*
X0114750Y0151680D03*
X0115450Y0150420D03*
X0114470Y0146780D03*
X0114610Y0146500D03*
X0114750Y0146220D03*
X0114890Y0146080D03*
X0115030Y0145800D03*
X0115170Y0145660D03*
X0115310Y0145520D03*
X0115450Y0145380D03*
X0109010Y0147620D03*
X0108870Y0147200D03*
X0108730Y0146920D03*
X0108730Y0146780D03*
X0108590Y0146500D03*
X0108450Y0146360D03*
X0108310Y0146080D03*
X0109150Y0149580D03*
X0109010Y0150280D03*
X0108870Y0150700D03*
X0108730Y0151120D03*
X0108590Y0151400D03*
X0108450Y0151680D03*
X0108310Y0151820D03*
X0108170Y0151960D03*
X0108170Y0152100D03*
X0107890Y0152380D03*
X0107750Y0152520D03*
X0107610Y0154480D03*
X0102710Y0155460D03*
X0101170Y0152100D03*
X0101030Y0151960D03*
X0100890Y0151820D03*
X0100610Y0151260D03*
X0100470Y0150980D03*
X0099770Y0152800D03*
X0097250Y0153920D03*
X0098090Y0156580D03*
X0104950Y0160780D03*
X0106770Y0166380D03*
X0111810Y0162600D03*
X0111810Y0162460D03*
X0111530Y0161480D03*
X0114050Y0167220D03*
X0117970Y0163720D03*
X0118530Y0161200D03*
X0118530Y0161060D03*
X0118530Y0160920D03*
X0123010Y0148180D03*
X0123010Y0147900D03*
X0122870Y0147480D03*
X0122730Y0147060D03*
X0122730Y0146920D03*
X0122590Y0146780D03*
X0122450Y0146500D03*
X0122310Y0146220D03*
X0124550Y0145800D03*
X0101310Y0145660D03*
X0101170Y0145800D03*
X0100890Y0146220D03*
X0100750Y0146360D03*
X0100470Y0146920D03*
X0099070Y0145800D03*
X0100050Y0144820D03*
X0097810Y0149300D03*
X0087730Y0138100D03*
X0083950Y0142160D03*
X0083950Y0142300D03*
X0081570Y0147060D03*
X0081570Y0147200D03*
X0098090Y0131660D03*
D38*
X0101730Y0137120D03*
X0097530Y0124660D03*
X0103690Y0121300D03*
X0119930Y0121300D03*
X0126090Y0124660D03*
X0121890Y0137120D03*
D39*
X0125810Y0132500D03*
X0136310Y0138660D03*
X0124410Y0146360D03*
X0120910Y0144820D03*
X0116010Y0154760D03*
X0120910Y0156300D03*
X0109710Y0158400D03*
X0108870Y0156860D03*
X0108870Y0156720D03*
X0108870Y0155600D03*
X0109010Y0155320D03*
X0107470Y0147760D03*
X0106770Y0144680D03*
X0102710Y0153360D03*
X0099910Y0153220D03*
X0098370Y0151960D03*
X0098370Y0151820D03*
X0102710Y0156300D03*
X0106910Y0166100D03*
X0109010Y0174500D03*
X0083670Y0143280D03*
X0087310Y0138660D03*
X0091370Y0135860D03*
X0097810Y0132500D03*
X0111810Y0121300D03*
D40*
X0120140Y0121440D03*
X0103480Y0121440D03*
D41*
X0111810Y0121440D03*
X0118250Y0129840D03*
X0105370Y0129840D03*
X0099910Y0153640D03*
X0102570Y0157140D03*
X0109150Y0156440D03*
X0121050Y0157140D03*
D42*
X0132810Y0141880D03*
X0121750Y0136980D03*
X0111810Y0139220D03*
X0101870Y0136980D03*
X0090810Y0141880D03*
X0103270Y0121580D03*
X0099630Y0183320D03*
X0123990Y0183320D03*
D43*
X0111950Y0163720D03*
X0114050Y0162180D03*
X0116150Y0160220D03*
X0109710Y0157700D03*
X0109710Y0154900D03*
X0107050Y0148600D03*
X0106210Y0146500D03*
X0104670Y0143980D03*
X0102150Y0149300D03*
X0098650Y0157420D03*
X0086470Y0141180D03*
X0086470Y0140900D03*
X0086470Y0140760D03*
X0090250Y0137820D03*
X0094030Y0135860D03*
X0094030Y0135720D03*
X0078070Y0149580D03*
X0078070Y0149720D03*
X0078070Y0149860D03*
X0078070Y0150000D03*
X0077930Y0150420D03*
X0077930Y0150560D03*
X0077930Y0150700D03*
X0077930Y0150980D03*
X0077930Y0151120D03*
X0077930Y0151260D03*
X0077930Y0151400D03*
X0077930Y0155880D03*
X0111810Y0121580D03*
X0133230Y0137260D03*
X0133230Y0137400D03*
X0133370Y0137680D03*
X0137150Y0140760D03*
X0137150Y0140900D03*
X0137150Y0141180D03*
X0145410Y0148880D03*
X0145550Y0149580D03*
X0145550Y0149720D03*
X0145550Y0149860D03*
X0145550Y0150000D03*
X0145830Y0151820D03*
X0145830Y0151960D03*
X0145830Y0152100D03*
X0145830Y0152380D03*
X0145830Y0152520D03*
X0145830Y0152660D03*
X0145830Y0152800D03*
X0145830Y0153080D03*
X0145830Y0153220D03*
X0145830Y0153360D03*
X0145830Y0153500D03*
X0145830Y0153780D03*
X0145830Y0153920D03*
X0145830Y0154060D03*
X0145830Y0154200D03*
X0145830Y0154480D03*
X0145830Y0154620D03*
X0145830Y0154760D03*
X0124970Y0157420D03*
X0120910Y0149300D03*
X0120910Y0149160D03*
X0120910Y0149020D03*
D44*
X0132880Y0141600D03*
X0132880Y0141460D03*
X0122800Y0122700D03*
X0120420Y0121580D03*
X0100820Y0122700D03*
X0090740Y0141460D03*
X0090740Y0141600D03*
D45*
X0097880Y0124520D03*
X0102920Y0121720D03*
X0120700Y0121720D03*
X0123080Y0122980D03*
X0130780Y0166660D03*
D46*
X0121470Y0157980D03*
X0120070Y0151400D03*
X0120770Y0149860D03*
X0120070Y0147060D03*
X0120210Y0146780D03*
X0117410Y0150700D03*
X0111110Y0160500D03*
X0104670Y0153920D03*
X0106070Y0151400D03*
X0106770Y0150000D03*
X0106770Y0149860D03*
X0106910Y0149300D03*
X0106910Y0149160D03*
X0106210Y0146780D03*
X0103410Y0150700D03*
X0090110Y0138520D03*
X0090110Y0138380D03*
X0086470Y0141320D03*
X0078070Y0156720D03*
X0078070Y0156860D03*
X0078070Y0157000D03*
X0078070Y0157280D03*
X0078210Y0157420D03*
X0078210Y0157560D03*
X0078210Y0157700D03*
X0109570Y0173800D03*
X0133510Y0138520D03*
X0133510Y0138380D03*
X0145270Y0148180D03*
X0145410Y0157420D03*
X0145410Y0157560D03*
X0145410Y0157700D03*
X0111810Y0121720D03*
D47*
X0111810Y0121860D03*
X0129870Y0138380D03*
X0129870Y0138520D03*
X0129870Y0138660D03*
X0143870Y0143560D03*
X0144010Y0143980D03*
X0144150Y0144260D03*
X0144850Y0160080D03*
X0144850Y0160220D03*
X0144710Y0160360D03*
X0144710Y0160500D03*
X0111670Y0159380D03*
X0110970Y0160360D03*
X0109010Y0162600D03*
X0107470Y0165120D03*
X0108870Y0168480D03*
X0109010Y0168760D03*
X0109010Y0168900D03*
X0109150Y0169320D03*
X0109150Y0169460D03*
X0109850Y0173520D03*
X0106070Y0157560D03*
X0105930Y0157000D03*
X0105930Y0156860D03*
X0105930Y0156720D03*
X0105930Y0156580D03*
X0105930Y0156300D03*
X0105930Y0156160D03*
X0105930Y0156020D03*
X0100330Y0143560D03*
X0093750Y0138660D03*
X0093750Y0138520D03*
X0093750Y0138380D03*
X0079750Y0143560D03*
X0079750Y0143700D03*
X0079610Y0143980D03*
X0079470Y0144260D03*
X0078770Y0160080D03*
X0078770Y0160220D03*
X0078910Y0160360D03*
X0078910Y0160500D03*
D48*
X0090880Y0142300D03*
X0102500Y0122000D03*
X0123500Y0123260D03*
X0132740Y0142300D03*
D49*
X0142750Y0141180D03*
X0143030Y0141600D03*
X0144150Y0162180D03*
X0144010Y0162320D03*
X0144010Y0162460D03*
X0117410Y0157420D03*
X0117410Y0157280D03*
X0117270Y0157700D03*
X0117270Y0157980D03*
X0117550Y0155880D03*
X0117550Y0155600D03*
X0117550Y0155460D03*
X0116570Y0163160D03*
X0115450Y0164700D03*
X0110830Y0160220D03*
X0108870Y0162460D03*
X0111530Y0146080D03*
X0111810Y0137120D03*
X0111810Y0122000D03*
X0080870Y0141180D03*
X0080730Y0141460D03*
X0079610Y0162320D03*
X0079610Y0162460D03*
X0085630Y0174920D03*
D50*
X0100120Y0123260D03*
X0121120Y0122000D03*
D51*
X0121330Y0122140D03*
X0111810Y0127740D03*
X0102290Y0122140D03*
X0098650Y0124240D03*
X0090950Y0142440D03*
X0132670Y0142440D03*
D52*
X0132600Y0142720D03*
X0132600Y0142860D03*
X0121540Y0122280D03*
X0102080Y0122280D03*
X0091020Y0142720D03*
X0091020Y0142860D03*
D53*
X0082130Y0139080D03*
X0081990Y0139360D03*
X0080590Y0164560D03*
X0080730Y0164700D03*
X0085210Y0173660D03*
X0085210Y0173800D03*
X0108170Y0161760D03*
X0108310Y0161900D03*
X0110690Y0160080D03*
X0115030Y0161200D03*
X0115170Y0161060D03*
X0116850Y0158960D03*
X0109710Y0167500D03*
X0110410Y0172960D03*
X0117410Y0168760D03*
X0138410Y0173660D03*
X0138410Y0173800D03*
X0142890Y0164700D03*
X0143030Y0164560D03*
X0141630Y0139360D03*
X0141490Y0139080D03*
X0111810Y0122280D03*
D54*
X0111810Y0125500D03*
X0111810Y0125780D03*
X0111810Y0125920D03*
X0111810Y0126060D03*
X0111810Y0126200D03*
X0111810Y0126480D03*
X0111810Y0126620D03*
X0111810Y0126760D03*
X0111810Y0126900D03*
X0111810Y0127180D03*
X0111810Y0127320D03*
X0111810Y0128020D03*
X0121750Y0122420D03*
X0121330Y0136560D03*
X0111530Y0142860D03*
X0099630Y0123680D03*
X0101870Y0122420D03*
X0132530Y0143000D03*
D55*
X0141070Y0138520D03*
X0141210Y0138660D03*
X0122870Y0143000D03*
X0111810Y0137260D03*
X0100750Y0143000D03*
X0082550Y0138520D03*
X0082410Y0138660D03*
X0080870Y0164980D03*
X0081010Y0165260D03*
X0085070Y0173380D03*
X0109710Y0167920D03*
X0109710Y0167780D03*
X0138550Y0173380D03*
X0142610Y0165260D03*
X0142750Y0164980D03*
X0111810Y0122420D03*
D56*
X0121960Y0122560D03*
X0124200Y0123820D03*
X0124340Y0123960D03*
X0132460Y0143280D03*
X0101660Y0122560D03*
X0099420Y0123820D03*
X0091160Y0143280D03*
D57*
X0100750Y0142860D03*
X0100750Y0142720D03*
X0111530Y0144960D03*
X0122870Y0142860D03*
X0122870Y0142720D03*
X0111810Y0122560D03*
X0115870Y0165960D03*
X0115870Y0166100D03*
X0116010Y0166380D03*
X0117270Y0168900D03*
X0142330Y0165680D03*
X0084930Y0172820D03*
X0084930Y0172960D03*
D58*
X0082410Y0168060D03*
X0082410Y0167920D03*
X0082270Y0167780D03*
X0081710Y0166520D03*
X0100610Y0142300D03*
X0111810Y0122700D03*
X0123010Y0142300D03*
X0140370Y0137680D03*
X0140510Y0137820D03*
X0141910Y0166520D03*
X0141210Y0167920D03*
X0141210Y0168060D03*
X0110410Y0170580D03*
X0110410Y0170720D03*
X0083110Y0137820D03*
D59*
X0090810Y0141740D03*
X0100610Y0122840D03*
X0123010Y0122840D03*
X0132810Y0141740D03*
D60*
X0123080Y0148740D03*
X0123080Y0149440D03*
X0122940Y0150140D03*
X0126580Y0154340D03*
X0114680Y0151540D03*
X0113980Y0149440D03*
X0113980Y0148740D03*
X0114540Y0146640D03*
X0109080Y0148040D03*
X0108940Y0147340D03*
X0109080Y0150140D03*
X0108800Y0150840D03*
X0107680Y0154340D03*
X0100400Y0150840D03*
X0097040Y0154340D03*
X0104600Y0143840D03*
X0111740Y0162040D03*
X0107400Y0122840D03*
D61*
X0111810Y0122840D03*
X0139390Y0136140D03*
X0139810Y0136840D03*
X0139950Y0170440D03*
X0117690Y0170440D03*
X0083670Y0170440D03*
X0083810Y0136840D03*
X0084230Y0136140D03*
D62*
X0100120Y0148040D03*
X0100120Y0148740D03*
X0100120Y0149440D03*
X0100260Y0150140D03*
X0098160Y0156440D03*
X0108520Y0151540D03*
X0109220Y0149440D03*
X0109220Y0148740D03*
X0114120Y0150140D03*
X0114260Y0147340D03*
X0115520Y0154340D03*
X0125460Y0156440D03*
X0116220Y0122840D03*
D63*
X0116220Y0122980D03*
X0117060Y0124380D03*
X0118880Y0127880D03*
X0118880Y0128020D03*
X0125320Y0131520D03*
X0128120Y0133620D03*
X0131480Y0135160D03*
X0139320Y0141320D03*
X0139320Y0141460D03*
X0139460Y0141600D03*
X0141980Y0146220D03*
X0141980Y0146360D03*
X0141980Y0146500D03*
X0126720Y0154900D03*
X0126720Y0155880D03*
X0126720Y0156020D03*
X0126720Y0156160D03*
X0126720Y0156300D03*
X0126580Y0156580D03*
X0125600Y0155880D03*
X0125600Y0155600D03*
X0125600Y0155460D03*
X0120980Y0154760D03*
X0115380Y0150560D03*
X0110900Y0157420D03*
X0111600Y0158120D03*
X0118180Y0163860D03*
X0112580Y0169600D03*
X0108660Y0175200D03*
X0105020Y0161900D03*
X0105020Y0161760D03*
X0098020Y0155880D03*
X0098020Y0155600D03*
X0098020Y0155460D03*
X0096900Y0155180D03*
X0096900Y0154900D03*
X0096900Y0155880D03*
X0096900Y0156020D03*
X0096900Y0156160D03*
X0096900Y0156300D03*
X0097880Y0148880D03*
X0099000Y0145100D03*
X0095500Y0133620D03*
X0098300Y0131520D03*
X0107820Y0130400D03*
X0106560Y0124380D03*
X0107400Y0122980D03*
X0088080Y0137680D03*
X0084300Y0141320D03*
X0084300Y0141460D03*
X0084160Y0141600D03*
X0124620Y0145100D03*
X0124480Y0147060D03*
D64*
X0139110Y0135720D03*
X0138830Y0135300D03*
X0138690Y0135160D03*
X0138550Y0134880D03*
X0138270Y0134600D03*
X0138130Y0134320D03*
X0111810Y0130960D03*
X0111810Y0122980D03*
X0085490Y0134320D03*
X0085350Y0134600D03*
X0085070Y0134880D03*
X0084930Y0135160D03*
X0084790Y0135300D03*
X0117550Y0170580D03*
X0139110Y0171700D03*
D65*
X0118530Y0172960D03*
X0111250Y0172400D03*
X0100470Y0141460D03*
X0100470Y0141320D03*
X0111810Y0131100D03*
X0111810Y0123120D03*
X0123150Y0141320D03*
X0123150Y0141460D03*
X0137010Y0132920D03*
X0137150Y0133060D03*
X0137290Y0133200D03*
X0137430Y0133480D03*
X0137570Y0133620D03*
X0086750Y0132780D03*
X0086610Y0132920D03*
X0086470Y0133060D03*
X0086330Y0133200D03*
X0086190Y0133480D03*
X0086050Y0133620D03*
D66*
X0087310Y0132080D03*
X0087730Y0131660D03*
X0087870Y0131520D03*
X0100470Y0141180D03*
X0111810Y0123260D03*
X0123150Y0141180D03*
X0135750Y0131520D03*
X0136030Y0131800D03*
X0136310Y0132080D03*
X0131130Y0167500D03*
X0117410Y0170720D03*
D67*
X0130710Y0166520D03*
X0123710Y0183460D03*
X0099910Y0183460D03*
X0092910Y0166520D03*
X0090950Y0142580D03*
X0102150Y0136700D03*
X0111810Y0139500D03*
X0121470Y0136700D03*
X0111810Y0127880D03*
X0111810Y0127600D03*
X0111810Y0127460D03*
X0111810Y0125360D03*
X0111810Y0125220D03*
X0123710Y0123400D03*
X0132670Y0142580D03*
X0099910Y0123400D03*
D68*
X0088710Y0130680D03*
X0088570Y0130820D03*
X0092070Y0139080D03*
X0092070Y0139220D03*
X0100470Y0140760D03*
X0111810Y0123400D03*
X0134910Y0130680D03*
D69*
X0124900Y0124240D03*
X0123780Y0123540D03*
X0099840Y0123540D03*
D70*
X0089550Y0129840D03*
X0092070Y0139640D03*
X0111810Y0123540D03*
X0131550Y0139640D03*
X0134070Y0129840D03*
D71*
X0134210Y0129980D03*
X0134350Y0130120D03*
X0134490Y0130260D03*
X0131550Y0139360D03*
X0131550Y0139500D03*
X0131550Y0139780D03*
X0123150Y0140480D03*
X0111810Y0137680D03*
X0111810Y0131380D03*
X0111810Y0123680D03*
X0100470Y0140480D03*
X0092070Y0139780D03*
X0092070Y0139500D03*
X0092070Y0139360D03*
X0089130Y0130260D03*
X0089270Y0130120D03*
X0089410Y0129980D03*
X0111530Y0143980D03*
X0114610Y0165400D03*
X0117130Y0170860D03*
X0126090Y0182060D03*
X0097530Y0182060D03*
D72*
X0091090Y0143000D03*
X0102290Y0136560D03*
X0123990Y0123680D03*
D73*
X0124550Y0124100D03*
X0132390Y0143420D03*
X0132390Y0143560D03*
X0099350Y0123960D03*
X0091230Y0143420D03*
D74*
X0091090Y0128580D03*
X0111810Y0131660D03*
X0111810Y0124100D03*
X0111810Y0123960D03*
X0132530Y0128580D03*
D75*
X0111810Y0128160D03*
X0111810Y0139780D03*
X0099070Y0124100D03*
X0092910Y0166380D03*
X0130710Y0166380D03*
D76*
X0125600Y0155740D03*
X0126720Y0155040D03*
X0098020Y0155740D03*
X0096900Y0155740D03*
X0096900Y0155040D03*
X0097880Y0148740D03*
X0106560Y0124240D03*
X0117060Y0124240D03*
D77*
X0111810Y0124240D03*
X0111810Y0131940D03*
X0123010Y0139640D03*
X0100610Y0139640D03*
D78*
X0100610Y0139500D03*
X0092350Y0141320D03*
X0091930Y0127880D03*
X0111810Y0124380D03*
X0111810Y0131800D03*
X0111810Y0137960D03*
X0111530Y0143700D03*
X0123010Y0139500D03*
X0131270Y0141320D03*
X0131830Y0128020D03*
X0114330Y0165680D03*
D79*
X0111670Y0161900D03*
X0114610Y0157420D03*
X0114190Y0154480D03*
X0115310Y0154200D03*
X0114190Y0150420D03*
X0114050Y0149860D03*
X0114050Y0149720D03*
X0114050Y0148180D03*
X0109010Y0154480D03*
X0107890Y0154200D03*
X0102710Y0154900D03*
X0102710Y0152100D03*
X0099770Y0152660D03*
X0097110Y0154200D03*
X0096970Y0154480D03*
X0096970Y0154620D03*
X0096970Y0154760D03*
X0096830Y0155320D03*
X0096830Y0155460D03*
X0096830Y0155600D03*
X0098090Y0156020D03*
X0098090Y0156160D03*
X0098090Y0156300D03*
X0104950Y0161060D03*
X0104950Y0161200D03*
X0104950Y0161480D03*
X0104950Y0161620D03*
X0105090Y0162180D03*
X0106770Y0166520D03*
X0108730Y0175060D03*
X0125530Y0156300D03*
X0125530Y0156160D03*
X0125530Y0156020D03*
X0126790Y0155600D03*
X0126790Y0155460D03*
X0126790Y0155320D03*
X0126790Y0155180D03*
X0126650Y0154760D03*
X0126650Y0154620D03*
X0126650Y0154480D03*
X0126510Y0154200D03*
X0123570Y0152380D03*
X0120910Y0154900D03*
X0121610Y0147480D03*
X0120350Y0145800D03*
X0125810Y0149020D03*
X0135750Y0137960D03*
X0135610Y0137820D03*
X0131690Y0135300D03*
X0117130Y0124520D03*
X0115730Y0130260D03*
X0107890Y0130260D03*
X0106490Y0124520D03*
X0091930Y0135300D03*
X0088010Y0137820D03*
X0087870Y0137960D03*
X0100050Y0144960D03*
X0099070Y0146920D03*
X0097810Y0149020D03*
D80*
X0111810Y0132080D03*
X0111810Y0124660D03*
X0111810Y0124520D03*
X0123010Y0139360D03*
X0131270Y0127600D03*
D81*
X0125740Y0124520D03*
X0092840Y0166660D03*
D82*
X0092630Y0167220D03*
X0113070Y0176320D03*
X0117410Y0173660D03*
X0130990Y0167220D03*
X0122870Y0139080D03*
X0111810Y0138100D03*
X0111810Y0132220D03*
X0111810Y0124800D03*
X0100750Y0139080D03*
X0093330Y0126900D03*
D83*
X0106560Y0124940D03*
X0117060Y0124940D03*
X0124620Y0146640D03*
X0125320Y0151540D03*
X0125460Y0152240D03*
X0118460Y0159940D03*
X0118180Y0162040D03*
X0108800Y0155740D03*
X0098160Y0152240D03*
X0098300Y0151540D03*
D84*
X0111810Y0138240D03*
X0111810Y0124940D03*
X0116990Y0173940D03*
D85*
X0096620Y0125080D03*
D86*
X0095780Y0125500D03*
X0111880Y0138520D03*
X0127840Y0125500D03*
X0116080Y0174500D03*
X0114960Y0175200D03*
D87*
X0111810Y0139640D03*
X0111810Y0127040D03*
X0111810Y0126340D03*
X0111810Y0125640D03*
D88*
X0101100Y0138100D03*
X0095220Y0125780D03*
X0128400Y0125780D03*
X0116500Y0174220D03*
X0114260Y0175620D03*
D89*
X0114050Y0175760D03*
X0111530Y0143280D03*
X0111810Y0138380D03*
X0128610Y0125920D03*
X0095010Y0125920D03*
X0094730Y0126060D03*
D90*
X0128890Y0126060D03*
D91*
X0129100Y0126200D03*
X0122660Y0138380D03*
X0100960Y0138380D03*
X0094520Y0126200D03*
X0092700Y0167080D03*
X0113840Y0175900D03*
X0116780Y0174080D03*
X0130920Y0167080D03*
D92*
X0129380Y0126340D03*
X0094240Y0126340D03*
D93*
X0094030Y0126480D03*
X0093750Y0126620D03*
X0100750Y0138800D03*
X0111530Y0143420D03*
X0111810Y0132360D03*
X0122870Y0138800D03*
X0130010Y0126760D03*
X0129870Y0126620D03*
X0129590Y0126480D03*
D94*
X0093540Y0126760D03*
D95*
X0130220Y0126900D03*
X0117200Y0173800D03*
X0113280Y0176180D03*
X0125320Y0182620D03*
X0098300Y0182620D03*
D96*
X0093190Y0127040D03*
X0130430Y0127040D03*
D97*
X0130640Y0127180D03*
X0122940Y0139220D03*
X0111600Y0143560D03*
X0100680Y0139220D03*
X0092980Y0127180D03*
X0092700Y0127320D03*
D98*
X0092490Y0127460D03*
X0092350Y0127600D03*
X0130850Y0127320D03*
X0131130Y0127460D03*
X0125530Y0182480D03*
X0098090Y0182480D03*
D99*
X0092140Y0127740D03*
X0131480Y0127740D03*
D100*
X0135540Y0137680D03*
X0125740Y0148880D03*
X0115240Y0154060D03*
X0114540Y0154900D03*
X0113840Y0167360D03*
X0099840Y0152520D03*
X0097040Y0156580D03*
X0081640Y0146500D03*
X0081640Y0146360D03*
X0081640Y0146220D03*
X0092140Y0135160D03*
X0104740Y0128020D03*
X0104740Y0127880D03*
D101*
X0091790Y0128020D03*
X0131690Y0127880D03*
X0112790Y0176460D03*
D102*
X0117900Y0173380D03*
X0131340Y0141180D03*
X0123080Y0139780D03*
X0132180Y0128300D03*
X0132040Y0128160D03*
X0100540Y0139780D03*
X0092280Y0141180D03*
X0091440Y0128300D03*
X0091580Y0128160D03*
D103*
X0104740Y0128160D03*
X0118880Y0128160D03*
X0114680Y0146360D03*
X0114400Y0146920D03*
X0114400Y0147060D03*
X0113980Y0148320D03*
X0113980Y0148460D03*
X0113980Y0148600D03*
X0113980Y0148880D03*
X0113980Y0149020D03*
X0113980Y0149160D03*
X0113980Y0149300D03*
X0113980Y0149580D03*
X0114400Y0150980D03*
X0114400Y0151120D03*
X0114540Y0151260D03*
X0114540Y0151400D03*
X0116640Y0152100D03*
X0120840Y0155180D03*
X0120840Y0155320D03*
X0122800Y0150700D03*
X0122940Y0150280D03*
X0123080Y0149720D03*
X0123080Y0149580D03*
X0123080Y0149300D03*
X0123080Y0149160D03*
X0123080Y0149020D03*
X0123080Y0148880D03*
X0123080Y0148600D03*
X0123080Y0148460D03*
X0123080Y0148320D03*
X0122940Y0147760D03*
X0122940Y0147620D03*
X0122800Y0147200D03*
X0124480Y0146920D03*
X0125740Y0149160D03*
X0126440Y0154060D03*
X0126440Y0156720D03*
X0111600Y0158260D03*
X0111600Y0158400D03*
X0111600Y0161620D03*
X0111600Y0161760D03*
X0111740Y0162180D03*
X0111740Y0162320D03*
X0105300Y0162600D03*
X0102780Y0155320D03*
X0102780Y0155180D03*
X0100680Y0151400D03*
X0100540Y0151120D03*
X0100400Y0150700D03*
X0097880Y0149160D03*
X0100400Y0147200D03*
X0100400Y0147060D03*
X0100540Y0146780D03*
X0100680Y0146500D03*
X0099000Y0145660D03*
X0099000Y0145520D03*
X0099000Y0145380D03*
X0097180Y0154060D03*
X0097180Y0156720D03*
X0107680Y0147480D03*
X0108800Y0147060D03*
X0108940Y0147480D03*
X0109080Y0147760D03*
X0109080Y0147900D03*
X0109080Y0148180D03*
X0109080Y0148320D03*
X0109080Y0149720D03*
X0109080Y0149860D03*
X0109080Y0150000D03*
X0108940Y0150420D03*
X0108940Y0150560D03*
X0108800Y0150980D03*
X0108380Y0146220D03*
X0081640Y0146780D03*
X0081640Y0146920D03*
X0108800Y0174920D03*
X0120840Y0171700D03*
X0141980Y0146920D03*
X0141980Y0146780D03*
X0139600Y0142020D03*
X0139600Y0141880D03*
D104*
X0133650Y0147200D03*
X0111810Y0142020D03*
X0111810Y0141880D03*
X0111810Y0129700D03*
X0111810Y0129560D03*
X0111810Y0129420D03*
X0111810Y0129280D03*
X0111810Y0129000D03*
X0111810Y0128860D03*
X0111810Y0128720D03*
X0111810Y0128580D03*
X0111810Y0128300D03*
X0089970Y0147200D03*
X0101310Y0183880D03*
X0111810Y0188080D03*
X0122310Y0183880D03*
D105*
X0114470Y0165540D03*
X0131270Y0141040D03*
X0132390Y0128440D03*
X0092350Y0141040D03*
X0091230Y0128440D03*
D106*
X0090880Y0128720D03*
X0090740Y0128860D03*
X0092280Y0140760D03*
X0092280Y0140900D03*
X0100540Y0140060D03*
X0100540Y0139920D03*
X0111740Y0137820D03*
X0123080Y0139920D03*
X0123080Y0140060D03*
X0131340Y0140760D03*
X0131340Y0140900D03*
X0132880Y0128860D03*
X0132740Y0128720D03*
X0112580Y0176600D03*
D107*
X0118110Y0173240D03*
X0111810Y0188640D03*
X0131410Y0140340D03*
X0133230Y0129140D03*
X0092210Y0140340D03*
X0090390Y0129140D03*
D108*
X0090040Y0129420D03*
X0092140Y0139920D03*
X0092140Y0140060D03*
X0092140Y0140200D03*
D109*
X0089760Y0129700D03*
X0089900Y0129560D03*
X0131480Y0139920D03*
X0131480Y0140060D03*
X0131480Y0140200D03*
X0133860Y0129700D03*
X0133720Y0129560D03*
X0133580Y0129420D03*
D110*
X0139950Y0143140D03*
X0118530Y0143840D03*
X0115730Y0150140D03*
X0112650Y0155740D03*
X0101730Y0150140D03*
X0100050Y0144540D03*
X0108030Y0129840D03*
X0115590Y0129840D03*
D111*
X0115520Y0129980D03*
X0122800Y0131380D03*
X0125600Y0131800D03*
X0131900Y0135580D03*
X0136100Y0138380D03*
X0139740Y0142300D03*
X0125740Y0149580D03*
X0125600Y0150560D03*
X0125600Y0150700D03*
X0125460Y0151120D03*
X0126300Y0153780D03*
X0121820Y0152380D03*
X0121680Y0152520D03*
X0121540Y0152660D03*
X0120840Y0155600D03*
X0118600Y0160360D03*
X0118600Y0160500D03*
X0118600Y0160780D03*
X0118460Y0161480D03*
X0118460Y0161620D03*
X0115660Y0154480D03*
X0113420Y0152380D03*
X0109780Y0152380D03*
X0107540Y0152660D03*
X0107400Y0152800D03*
X0107400Y0154620D03*
X0104600Y0152800D03*
X0102780Y0151960D03*
X0101800Y0152800D03*
X0101660Y0152660D03*
X0101520Y0152520D03*
X0101380Y0152380D03*
X0101660Y0150280D03*
X0098160Y0151120D03*
X0098020Y0150700D03*
X0098020Y0150560D03*
X0097880Y0149580D03*
X0098860Y0146780D03*
X0099000Y0146500D03*
X0099000Y0146360D03*
X0099000Y0146220D03*
X0101380Y0145520D03*
X0101520Y0145380D03*
X0107400Y0145100D03*
X0107680Y0145380D03*
X0107820Y0145520D03*
X0107960Y0145660D03*
X0108100Y0145800D03*
X0107540Y0147620D03*
X0102780Y0155600D03*
X0105020Y0160500D03*
X0109780Y0163160D03*
X0108940Y0174780D03*
X0097320Y0153780D03*
X0087520Y0138380D03*
X0098020Y0131800D03*
X0100820Y0131380D03*
X0108100Y0129980D03*
X0115800Y0145100D03*
X0121820Y0145660D03*
X0121960Y0145800D03*
X0122240Y0146080D03*
X0122380Y0146360D03*
X0121540Y0147620D03*
X0123360Y0144960D03*
D112*
X0123080Y0140620D03*
X0134700Y0130400D03*
X0100540Y0140620D03*
X0088920Y0130400D03*
D113*
X0088780Y0130540D03*
D114*
X0111810Y0131240D03*
X0134770Y0130540D03*
X0112370Y0176740D03*
D115*
X0117550Y0170160D03*
X0115170Y0164980D03*
X0108310Y0164280D03*
X0100610Y0142160D03*
X0100610Y0142020D03*
X0111810Y0137400D03*
X0111810Y0130820D03*
X0123010Y0142020D03*
X0123010Y0142160D03*
X0139530Y0136420D03*
X0139670Y0136560D03*
X0139950Y0136980D03*
X0139950Y0137120D03*
X0140090Y0137260D03*
X0140230Y0169880D03*
X0140090Y0170160D03*
X0139950Y0170300D03*
X0139810Y0170580D03*
X0139670Y0170860D03*
X0139530Y0171000D03*
X0139390Y0171280D03*
X0138970Y0171980D03*
X0138970Y0172120D03*
X0084650Y0172120D03*
X0084650Y0171980D03*
X0084230Y0171280D03*
X0084090Y0171000D03*
X0083950Y0170860D03*
X0083810Y0170580D03*
X0083670Y0170300D03*
X0083530Y0170160D03*
X0083390Y0169880D03*
X0083530Y0137260D03*
X0083670Y0137120D03*
X0083670Y0136980D03*
X0083950Y0136560D03*
X0084090Y0136420D03*
D116*
X0088290Y0131100D03*
X0088430Y0130960D03*
X0111530Y0144120D03*
X0123150Y0140760D03*
X0131550Y0139220D03*
X0131550Y0139080D03*
X0135330Y0131100D03*
X0135190Y0130960D03*
X0135050Y0130820D03*
X0114750Y0165260D03*
X0111390Y0172260D03*
D117*
X0111600Y0177300D03*
X0106560Y0163580D03*
X0107260Y0160920D03*
X0100260Y0155320D03*
X0100260Y0155180D03*
X0100260Y0154900D03*
X0100260Y0154200D03*
X0103620Y0150560D03*
X0102220Y0149160D03*
X0105860Y0147200D03*
X0106980Y0148880D03*
X0106980Y0149020D03*
X0104600Y0145380D03*
X0111600Y0147900D03*
X0111600Y0148180D03*
X0111600Y0148320D03*
X0111600Y0148460D03*
X0111600Y0148600D03*
X0111600Y0148880D03*
X0111600Y0149020D03*
X0111600Y0149160D03*
X0111600Y0149300D03*
X0111600Y0149580D03*
X0111600Y0149720D03*
X0111600Y0149860D03*
X0111600Y0150000D03*
X0116220Y0149300D03*
X0116220Y0149160D03*
X0117620Y0150560D03*
X0116920Y0151400D03*
X0118600Y0153920D03*
X0120140Y0151260D03*
X0120280Y0151120D03*
X0120560Y0150560D03*
X0120560Y0150420D03*
X0120700Y0150000D03*
X0120840Y0149720D03*
X0120840Y0149580D03*
X0119860Y0147200D03*
X0123360Y0153780D03*
X0123360Y0154900D03*
X0123360Y0155180D03*
X0123360Y0155320D03*
X0133440Y0138100D03*
X0133440Y0137960D03*
X0133440Y0137820D03*
X0129660Y0136000D03*
X0118180Y0130960D03*
X0105440Y0130960D03*
X0093960Y0136000D03*
X0090320Y0137680D03*
X0090180Y0137960D03*
X0090180Y0138100D03*
X0078420Y0147760D03*
X0078420Y0147900D03*
X0078280Y0148320D03*
X0078280Y0148460D03*
X0078280Y0148600D03*
X0078140Y0148880D03*
X0078140Y0149020D03*
X0078140Y0149160D03*
X0078140Y0149300D03*
X0078000Y0150280D03*
X0077860Y0154900D03*
X0077860Y0155180D03*
X0077860Y0155320D03*
X0077860Y0155460D03*
X0077860Y0155600D03*
X0078000Y0156020D03*
X0078000Y0156160D03*
X0078000Y0156300D03*
X0078000Y0156580D03*
X0145620Y0156580D03*
X0145620Y0156300D03*
X0145620Y0156160D03*
X0145620Y0156020D03*
X0145760Y0155600D03*
X0145760Y0155460D03*
X0145760Y0155320D03*
X0145760Y0155180D03*
X0145760Y0154900D03*
X0145620Y0150280D03*
X0145480Y0149300D03*
X0145480Y0149160D03*
X0145480Y0149020D03*
X0145340Y0148600D03*
X0145340Y0148460D03*
X0145340Y0148320D03*
X0145200Y0147900D03*
X0145200Y0147760D03*
D118*
X0144360Y0144960D03*
X0144360Y0144820D03*
X0144220Y0144400D03*
X0144080Y0144120D03*
X0145060Y0159380D03*
X0144920Y0159660D03*
X0144920Y0159800D03*
X0129800Y0138100D03*
X0129800Y0137960D03*
X0118600Y0131100D03*
X0105020Y0131100D03*
X0093820Y0137820D03*
X0093820Y0137960D03*
X0093820Y0138100D03*
X0079400Y0144400D03*
X0079260Y0144820D03*
X0079260Y0144960D03*
X0078560Y0159380D03*
X0078700Y0159660D03*
X0078700Y0159800D03*
X0111460Y0165820D03*
X0121680Y0158260D03*
X0116780Y0147200D03*
X0116920Y0146920D03*
X0111600Y0146920D03*
X0111600Y0147060D03*
X0111600Y0146780D03*
X0111600Y0150980D03*
X0111600Y0151120D03*
D119*
X0135540Y0131240D03*
X0088080Y0131240D03*
D120*
X0087660Y0138240D03*
X0083880Y0142440D03*
X0081640Y0147340D03*
X0097460Y0153640D03*
X0099840Y0152940D03*
X0101240Y0152240D03*
X0102780Y0155740D03*
X0107260Y0152940D03*
X0106420Y0145940D03*
X0107540Y0145240D03*
X0101660Y0145240D03*
X0098020Y0131940D03*
X0100960Y0131240D03*
X0115660Y0145240D03*
X0122100Y0145940D03*
X0115940Y0152940D03*
X0120840Y0155740D03*
X0118600Y0160640D03*
X0111600Y0158540D03*
X0105020Y0160640D03*
X0105440Y0162740D03*
X0112440Y0169740D03*
X0126160Y0153640D03*
X0141980Y0147340D03*
X0139740Y0142440D03*
X0135960Y0138240D03*
X0125600Y0131940D03*
X0122660Y0131240D03*
D121*
X0118670Y0131240D03*
X0104950Y0131240D03*
X0105930Y0156440D03*
X0098790Y0157140D03*
X0109010Y0169040D03*
X0124830Y0157140D03*
X0144010Y0143840D03*
X0079610Y0143840D03*
D122*
X0087940Y0131380D03*
X0100540Y0140900D03*
X0123080Y0140900D03*
X0135680Y0131380D03*
X0118320Y0173100D03*
X0126300Y0181920D03*
X0097320Y0181920D03*
D123*
X0109080Y0169180D03*
X0114400Y0161900D03*
X0115800Y0160500D03*
X0118600Y0153780D03*
X0111600Y0151400D03*
X0111600Y0151260D03*
X0111600Y0146500D03*
X0104600Y0144120D03*
X0106000Y0157280D03*
X0106000Y0157420D03*
X0106140Y0157700D03*
X0106140Y0157980D03*
X0101800Y0158400D03*
X0078980Y0160780D03*
X0078980Y0160920D03*
X0104880Y0131380D03*
X0118740Y0131380D03*
X0143800Y0143280D03*
X0143800Y0143420D03*
X0143940Y0143700D03*
X0144640Y0160780D03*
X0144640Y0160920D03*
X0144500Y0161060D03*
X0144500Y0161200D03*
D124*
X0139810Y0142720D03*
X0139810Y0142580D03*
X0136170Y0138520D03*
X0132110Y0135720D03*
X0128470Y0133900D03*
X0125670Y0132080D03*
X0122870Y0131660D03*
X0122870Y0131520D03*
X0121330Y0145100D03*
X0121610Y0145380D03*
X0121750Y0145520D03*
X0124550Y0146080D03*
X0125670Y0149720D03*
X0125670Y0149860D03*
X0125670Y0150000D03*
X0125670Y0150280D03*
X0125670Y0150420D03*
X0125530Y0150980D03*
X0125530Y0152380D03*
X0125670Y0152660D03*
X0125950Y0153220D03*
X0125950Y0153360D03*
X0123570Y0152660D03*
X0121330Y0152800D03*
X0120910Y0153080D03*
X0118530Y0154060D03*
X0116150Y0153080D03*
X0116710Y0151960D03*
X0115870Y0154620D03*
X0111670Y0151680D03*
X0107050Y0153080D03*
X0102430Y0153220D03*
X0102150Y0153080D03*
X0102710Y0155880D03*
X0097950Y0156720D03*
X0097530Y0153500D03*
X0097670Y0153360D03*
X0097670Y0153220D03*
X0097950Y0152660D03*
X0098230Y0151400D03*
X0098230Y0151260D03*
X0097950Y0150420D03*
X0097950Y0150280D03*
X0097950Y0150000D03*
X0097950Y0149860D03*
X0097950Y0149720D03*
X0099070Y0146080D03*
X0100050Y0144680D03*
X0101870Y0145100D03*
X0102010Y0144960D03*
X0095150Y0133900D03*
X0097950Y0132080D03*
X0100750Y0131660D03*
X0100750Y0131520D03*
X0091650Y0135580D03*
X0091510Y0135720D03*
X0087450Y0138520D03*
X0083810Y0142580D03*
X0083810Y0142720D03*
X0105510Y0162880D03*
X0111530Y0161200D03*
X0113630Y0162460D03*
X0118250Y0161900D03*
X0118530Y0160220D03*
X0118530Y0160080D03*
X0120910Y0155880D03*
X0125670Y0156720D03*
X0116010Y0144960D03*
X0116150Y0144820D03*
D125*
X0118530Y0144120D03*
X0123150Y0143560D03*
X0129870Y0138800D03*
X0118810Y0131520D03*
X0104810Y0131520D03*
X0100330Y0143420D03*
X0093750Y0138800D03*
X0080310Y0142300D03*
X0080170Y0142580D03*
X0080170Y0142720D03*
X0080030Y0142860D03*
X0079190Y0161480D03*
X0079330Y0161620D03*
X0079330Y0161760D03*
X0085770Y0175200D03*
X0098790Y0157000D03*
X0104670Y0153780D03*
X0106210Y0158120D03*
X0107610Y0161200D03*
X0107050Y0163860D03*
X0109990Y0166800D03*
X0109290Y0169880D03*
X0109990Y0173380D03*
X0116850Y0163020D03*
X0124830Y0157000D03*
X0111670Y0153780D03*
X0111530Y0146360D03*
X0137850Y0175200D03*
X0144290Y0161760D03*
X0144290Y0161620D03*
X0144430Y0161480D03*
X0143590Y0142860D03*
X0143450Y0142720D03*
X0143450Y0142580D03*
X0143310Y0142300D03*
D126*
X0143240Y0142160D03*
X0143240Y0142020D03*
X0143100Y0141880D03*
X0144220Y0161900D03*
X0131200Y0167780D03*
X0137920Y0175060D03*
X0117620Y0168200D03*
X0117620Y0168060D03*
X0117480Y0167920D03*
X0117480Y0167780D03*
X0117340Y0167500D03*
X0117340Y0167360D03*
X0117200Y0167220D03*
X0117200Y0167080D03*
X0117340Y0157560D03*
X0117480Y0157000D03*
X0117480Y0156860D03*
X0117480Y0156720D03*
X0117480Y0156580D03*
X0117480Y0156300D03*
X0117480Y0156160D03*
X0117480Y0156020D03*
X0111600Y0146220D03*
X0105860Y0155180D03*
X0105860Y0155320D03*
X0106280Y0158260D03*
X0106280Y0158400D03*
X0107540Y0164980D03*
X0092420Y0167780D03*
X0085700Y0175060D03*
X0079540Y0162180D03*
X0079400Y0161900D03*
X0080380Y0142160D03*
X0080380Y0142020D03*
X0080520Y0141880D03*
X0104740Y0131800D03*
X0104740Y0131660D03*
X0118880Y0131660D03*
X0118880Y0131800D03*
D127*
X0135890Y0131660D03*
X0092490Y0167500D03*
X0087590Y0131800D03*
D128*
X0083740Y0142860D03*
X0083740Y0143000D03*
X0098300Y0151680D03*
X0098300Y0152100D03*
X0098020Y0152520D03*
X0097880Y0152800D03*
X0097740Y0153080D03*
X0099840Y0153080D03*
X0102780Y0156020D03*
X0102780Y0156160D03*
X0105160Y0160220D03*
X0108940Y0157000D03*
X0108800Y0156160D03*
X0108800Y0156020D03*
X0108800Y0155880D03*
X0108940Y0155460D03*
X0109220Y0154620D03*
X0106840Y0153220D03*
X0106560Y0153360D03*
X0112720Y0155460D03*
X0112580Y0155880D03*
X0112580Y0156020D03*
X0113980Y0154620D03*
X0116640Y0153360D03*
X0111600Y0158680D03*
X0114400Y0159380D03*
X0118460Y0159800D03*
X0120840Y0156160D03*
X0120840Y0156020D03*
X0120700Y0153220D03*
X0123640Y0152800D03*
X0125320Y0152100D03*
X0125320Y0151680D03*
X0125600Y0152520D03*
X0125740Y0152800D03*
X0125880Y0153080D03*
X0121400Y0147760D03*
X0121120Y0144960D03*
X0123360Y0144820D03*
X0124480Y0146220D03*
X0124480Y0146500D03*
X0125740Y0132360D03*
X0125740Y0132220D03*
X0122940Y0131800D03*
X0139880Y0142860D03*
X0139880Y0143000D03*
X0111880Y0162880D03*
X0106980Y0144820D03*
X0102500Y0144680D03*
X0100680Y0131800D03*
X0097880Y0132220D03*
X0097880Y0132360D03*
D129*
X0100470Y0141040D03*
X0087450Y0131940D03*
X0123150Y0141040D03*
X0136170Y0131940D03*
D130*
X0128610Y0134040D03*
X0125810Y0132640D03*
X0123010Y0131940D03*
X0116710Y0144540D03*
X0123570Y0152940D03*
X0120910Y0156440D03*
X0109010Y0157140D03*
X0102710Y0156440D03*
X0083670Y0143140D03*
X0095010Y0134040D03*
X0097810Y0132640D03*
X0100610Y0131940D03*
D131*
X0104670Y0131940D03*
X0118950Y0131940D03*
X0117550Y0155740D03*
X0117410Y0157140D03*
X0117270Y0157840D03*
X0122030Y0158540D03*
X0117410Y0167640D03*
X0110130Y0173240D03*
X0106350Y0158540D03*
X0079750Y0162740D03*
X0079470Y0162040D03*
X0143870Y0162740D03*
X0144150Y0162040D03*
X0143030Y0141740D03*
D132*
X0140020Y0143420D03*
X0140020Y0143560D03*
X0136380Y0138800D03*
X0132460Y0136000D03*
X0128820Y0134180D03*
X0125880Y0132780D03*
X0123080Y0132220D03*
X0123080Y0132080D03*
X0123360Y0144680D03*
X0119020Y0148320D03*
X0118880Y0148600D03*
X0118740Y0148880D03*
X0118740Y0149020D03*
X0118600Y0149160D03*
X0118600Y0149300D03*
X0116780Y0151820D03*
X0116920Y0153500D03*
X0112860Y0155180D03*
X0109080Y0155180D03*
X0109080Y0157280D03*
X0111600Y0158820D03*
X0111320Y0160920D03*
X0105860Y0163160D03*
X0106980Y0165960D03*
X0105300Y0160080D03*
X0102640Y0156580D03*
X0103060Y0153500D03*
X0104600Y0154060D03*
X0106980Y0154900D03*
X0104600Y0149160D03*
X0104600Y0149020D03*
X0104740Y0148880D03*
X0104880Y0148460D03*
X0107400Y0147900D03*
X0100120Y0144400D03*
X0099840Y0153360D03*
X0083600Y0143560D03*
X0083600Y0143420D03*
X0087240Y0138800D03*
X0091160Y0136000D03*
X0094800Y0134180D03*
X0097740Y0132780D03*
X0100540Y0132220D03*
X0100540Y0132080D03*
X0120140Y0153500D03*
X0120980Y0156580D03*
X0120980Y0156720D03*
X0118460Y0159660D03*
X0118040Y0162180D03*
D133*
X0114540Y0161760D03*
X0117200Y0158120D03*
X0106420Y0158680D03*
X0104600Y0144260D03*
X0100400Y0143280D03*
X0104600Y0132080D03*
X0119020Y0132080D03*
X0123080Y0143420D03*
X0142540Y0140760D03*
X0142820Y0141320D03*
X0143940Y0162600D03*
X0143800Y0162880D03*
X0138060Y0174780D03*
X0085560Y0174780D03*
X0079820Y0162880D03*
X0079680Y0162600D03*
X0080800Y0141320D03*
X0081080Y0140760D03*
D134*
X0086960Y0132500D03*
X0087100Y0132360D03*
X0087240Y0132220D03*
X0111600Y0144260D03*
X0136380Y0132220D03*
X0136520Y0132360D03*
X0136660Y0132500D03*
X0136940Y0132780D03*
D135*
X0142330Y0140480D03*
X0143730Y0163020D03*
X0143730Y0163160D03*
X0143590Y0163300D03*
X0138130Y0174500D03*
X0117130Y0158400D03*
X0117130Y0158260D03*
X0117550Y0155320D03*
X0117550Y0155180D03*
X0118530Y0144260D03*
X0111530Y0145800D03*
X0106490Y0158820D03*
X0108730Y0162320D03*
X0107330Y0164000D03*
X0109850Y0167080D03*
X0109290Y0168200D03*
X0085490Y0174500D03*
X0080030Y0163300D03*
X0079890Y0163160D03*
X0079890Y0163020D03*
X0081150Y0140620D03*
X0081290Y0140480D03*
X0104530Y0132220D03*
X0119090Y0132220D03*
D136*
X0123150Y0132360D03*
X0125810Y0132920D03*
X0136590Y0139080D03*
X0140090Y0143700D03*
X0140090Y0143980D03*
X0140090Y0144120D03*
X0125810Y0156860D03*
X0123710Y0156860D03*
X0123570Y0156720D03*
X0123570Y0153080D03*
X0118390Y0149720D03*
X0118390Y0149580D03*
X0118950Y0148460D03*
X0119090Y0148180D03*
X0116290Y0154900D03*
X0113070Y0152520D03*
X0112930Y0157280D03*
X0113490Y0158260D03*
X0116290Y0160080D03*
X0118390Y0159520D03*
X0109710Y0158260D03*
X0109150Y0157420D03*
X0109010Y0156580D03*
X0106210Y0153500D03*
X0104390Y0149580D03*
X0104530Y0149300D03*
X0104810Y0148600D03*
X0104950Y0148320D03*
X0104950Y0148180D03*
X0101870Y0150000D03*
X0099910Y0153500D03*
X0100050Y0156720D03*
X0099910Y0156860D03*
X0097810Y0156860D03*
X0102710Y0156720D03*
X0109150Y0174360D03*
X0083530Y0144120D03*
X0083530Y0143980D03*
X0083530Y0143700D03*
X0087030Y0139080D03*
X0097810Y0132920D03*
X0100470Y0132360D03*
D137*
X0104460Y0132360D03*
X0111600Y0145660D03*
X0106560Y0158960D03*
X0107960Y0161480D03*
X0109780Y0167220D03*
X0110340Y0173100D03*
X0111740Y0177160D03*
X0117620Y0168620D03*
X0114680Y0161620D03*
X0115380Y0160780D03*
X0138200Y0174360D03*
X0143520Y0163580D03*
X0142260Y0140200D03*
X0142120Y0140060D03*
X0119160Y0132360D03*
X0081500Y0140060D03*
X0081360Y0140200D03*
X0080100Y0163580D03*
X0080240Y0163720D03*
X0085420Y0174360D03*
D138*
X0098580Y0157560D03*
X0100120Y0156580D03*
X0102920Y0151680D03*
X0104180Y0149860D03*
X0104320Y0149720D03*
X0105160Y0147900D03*
X0106280Y0146220D03*
X0106000Y0144400D03*
X0103200Y0144400D03*
X0100120Y0144260D03*
X0094660Y0134320D03*
X0086960Y0139220D03*
X0086960Y0139360D03*
X0083460Y0144260D03*
X0100400Y0132500D03*
X0110200Y0152520D03*
X0115800Y0150000D03*
X0118320Y0149860D03*
X0119160Y0147900D03*
X0120280Y0146220D03*
X0123500Y0153220D03*
X0123500Y0156580D03*
X0120980Y0156860D03*
X0120980Y0157000D03*
X0117900Y0162320D03*
X0112020Y0163160D03*
X0111600Y0158960D03*
X0107120Y0160780D03*
X0112020Y0170020D03*
X0109220Y0174220D03*
X0140160Y0144260D03*
X0136660Y0139360D03*
X0136660Y0139220D03*
X0128960Y0134320D03*
X0125880Y0133060D03*
X0123220Y0132500D03*
D139*
X0119160Y0132500D03*
X0111600Y0145380D03*
X0111600Y0145520D03*
X0104460Y0132500D03*
X0081920Y0139500D03*
X0080520Y0164280D03*
X0080520Y0164420D03*
X0107820Y0164700D03*
X0108520Y0162180D03*
X0108100Y0161620D03*
X0109780Y0167360D03*
X0109500Y0168060D03*
X0114820Y0161480D03*
X0122380Y0158680D03*
X0132880Y0170020D03*
X0132880Y0170160D03*
X0132880Y0170300D03*
X0132880Y0170580D03*
X0132880Y0170720D03*
X0132880Y0170860D03*
X0132880Y0171000D03*
X0132880Y0171280D03*
X0132880Y0171420D03*
X0132880Y0171560D03*
X0132880Y0171700D03*
X0132880Y0171980D03*
X0132880Y0172120D03*
X0132880Y0172260D03*
X0132880Y0172400D03*
X0132880Y0172680D03*
X0132880Y0172820D03*
X0132880Y0172960D03*
X0132880Y0173100D03*
X0132880Y0173380D03*
X0132880Y0173520D03*
X0132880Y0173660D03*
X0132880Y0173800D03*
X0132880Y0174080D03*
X0132880Y0174220D03*
X0132880Y0174360D03*
X0132880Y0174500D03*
X0132880Y0174780D03*
X0132880Y0174920D03*
X0132880Y0175060D03*
X0132880Y0175200D03*
X0132880Y0175480D03*
X0132880Y0175620D03*
X0132880Y0175760D03*
X0132880Y0175900D03*
X0132880Y0176180D03*
X0132880Y0176320D03*
X0132880Y0180800D03*
X0132880Y0181080D03*
X0132880Y0181220D03*
X0132880Y0181360D03*
X0132880Y0181500D03*
X0132880Y0181780D03*
X0132880Y0181920D03*
X0132880Y0182060D03*
X0132880Y0182200D03*
X0132880Y0182480D03*
X0132880Y0182620D03*
X0132880Y0182760D03*
X0132880Y0182900D03*
X0132880Y0183180D03*
X0132880Y0183320D03*
X0132880Y0183460D03*
X0132880Y0183600D03*
X0132880Y0183880D03*
X0132880Y0184020D03*
X0132880Y0184160D03*
X0132880Y0184300D03*
X0132880Y0184580D03*
X0132880Y0184720D03*
X0132880Y0184860D03*
X0132880Y0185000D03*
X0132880Y0185280D03*
X0132880Y0185420D03*
X0132880Y0185560D03*
X0132880Y0185700D03*
X0132880Y0185980D03*
X0132880Y0186120D03*
X0132880Y0186260D03*
X0132880Y0186400D03*
X0132880Y0186680D03*
X0132880Y0186820D03*
X0132880Y0186960D03*
X0132880Y0187100D03*
X0143100Y0164420D03*
X0143100Y0164280D03*
X0141700Y0139500D03*
D140*
X0122730Y0138520D03*
X0111810Y0132500D03*
X0100890Y0138520D03*
X0109150Y0159800D03*
X0098510Y0182760D03*
X0125110Y0182760D03*
D141*
X0136800Y0132640D03*
X0086820Y0132640D03*
D142*
X0100400Y0132640D03*
X0104600Y0145240D03*
X0107260Y0148040D03*
X0118460Y0145240D03*
X0119160Y0148040D03*
X0121260Y0148040D03*
X0123360Y0144540D03*
X0123220Y0132640D03*
X0114400Y0166940D03*
D143*
X0141420Y0138940D03*
X0119160Y0132640D03*
X0104460Y0132640D03*
X0142820Y0164840D03*
D144*
X0111810Y0132640D03*
X0101030Y0138240D03*
D145*
X0100330Y0132780D03*
X0094590Y0134460D03*
X0090950Y0136280D03*
X0090810Y0136420D03*
X0086890Y0139500D03*
X0083530Y0144400D03*
X0100190Y0156160D03*
X0100190Y0156300D03*
X0104110Y0150000D03*
X0105230Y0147760D03*
X0107190Y0148180D03*
X0109430Y0157560D03*
X0109710Y0158120D03*
X0111250Y0160780D03*
X0109570Y0163020D03*
X0106070Y0163300D03*
X0107050Y0165820D03*
X0113770Y0162320D03*
X0113490Y0158120D03*
X0113070Y0157420D03*
X0112930Y0156300D03*
X0116850Y0151680D03*
X0118250Y0150000D03*
X0119370Y0147760D03*
X0120210Y0146360D03*
X0119930Y0144400D03*
X0117130Y0144400D03*
X0121190Y0148180D03*
X0123430Y0156160D03*
X0123430Y0156300D03*
X0118250Y0159380D03*
X0136730Y0139500D03*
X0132810Y0136420D03*
X0132670Y0136280D03*
X0129030Y0134460D03*
X0123290Y0132780D03*
X0140090Y0144400D03*
D146*
X0130010Y0163860D03*
X0111810Y0132780D03*
X0093610Y0163860D03*
D147*
X0100190Y0155880D03*
X0100050Y0153780D03*
X0102430Y0157420D03*
X0102430Y0157560D03*
X0109710Y0157980D03*
X0109570Y0154760D03*
X0111670Y0153920D03*
X0113490Y0157980D03*
X0111530Y0163860D03*
X0107050Y0165680D03*
X0121190Y0157560D03*
X0121190Y0157420D03*
X0123430Y0155880D03*
X0123430Y0153500D03*
X0118530Y0152660D03*
X0117970Y0150280D03*
X0116010Y0149720D03*
X0119510Y0147480D03*
X0120210Y0146500D03*
X0121050Y0148460D03*
X0121050Y0148600D03*
X0123290Y0144260D03*
X0129310Y0135020D03*
X0132950Y0136700D03*
X0133090Y0136980D03*
X0137010Y0140200D03*
X0123290Y0132920D03*
X0107190Y0148320D03*
X0105510Y0147480D03*
X0102150Y0149580D03*
X0094310Y0135020D03*
X0090670Y0136700D03*
X0090530Y0136980D03*
X0086610Y0140200D03*
X0100330Y0132920D03*
D148*
X0111810Y0132920D03*
D149*
X0097740Y0133060D03*
X0101940Y0149860D03*
X0102640Y0156860D03*
X0102640Y0157000D03*
X0113140Y0154900D03*
X0125040Y0157560D03*
D150*
X0111810Y0133060D03*
D151*
X0111810Y0133200D03*
X0111810Y0185560D03*
D152*
X0108520Y0164140D03*
X0086260Y0133340D03*
X0137360Y0133340D03*
X0137920Y0134040D03*
D153*
X0111810Y0133340D03*
D154*
X0111810Y0133480D03*
X0111810Y0133620D03*
D155*
X0111600Y0144400D03*
X0100540Y0141600D03*
X0085980Y0133760D03*
X0085840Y0133900D03*
X0123080Y0141600D03*
X0137640Y0133760D03*
X0137780Y0133900D03*
X0138200Y0134460D03*
D156*
X0128260Y0133760D03*
X0124620Y0145380D03*
X0124620Y0145520D03*
X0124620Y0145660D03*
X0123360Y0145100D03*
X0122660Y0150980D03*
X0114960Y0151960D03*
X0114820Y0151820D03*
X0114260Y0150700D03*
X0114260Y0150560D03*
X0114120Y0150280D03*
X0114120Y0150000D03*
X0114120Y0147900D03*
X0114120Y0147760D03*
X0114120Y0147620D03*
X0114260Y0147480D03*
X0114260Y0147200D03*
X0109220Y0148460D03*
X0109220Y0148600D03*
X0109220Y0148880D03*
X0109220Y0149020D03*
X0109220Y0149160D03*
X0109220Y0149300D03*
X0108660Y0151260D03*
X0106420Y0145800D03*
X0100960Y0146080D03*
X0100260Y0147480D03*
X0100260Y0147620D03*
X0100260Y0147760D03*
X0100120Y0147900D03*
X0100120Y0148180D03*
X0100120Y0148320D03*
X0100120Y0148460D03*
X0100120Y0148600D03*
X0100120Y0148880D03*
X0100120Y0149020D03*
X0100120Y0149160D03*
X0100120Y0149300D03*
X0100120Y0149580D03*
X0100120Y0149720D03*
X0100120Y0149860D03*
X0100120Y0150000D03*
X0100260Y0150280D03*
X0100260Y0150420D03*
X0100260Y0150560D03*
X0100820Y0151680D03*
X0101520Y0150420D03*
X0105020Y0160920D03*
X0105160Y0162320D03*
X0105160Y0162460D03*
X0110620Y0157560D03*
X0095360Y0133760D03*
X0084020Y0141880D03*
X0084020Y0142020D03*
D157*
X0111810Y0133900D03*
X0111810Y0133760D03*
X0111810Y0185420D03*
D158*
X0085700Y0134040D03*
D159*
X0111810Y0134040D03*
D160*
X0138060Y0134180D03*
X0114960Y0165120D03*
X0112160Y0176880D03*
X0085420Y0134460D03*
X0085560Y0134180D03*
D161*
X0111810Y0134180D03*
X0111810Y0134320D03*
X0111810Y0134460D03*
D162*
X0123360Y0144400D03*
X0121120Y0148320D03*
X0123360Y0156020D03*
X0121120Y0157280D03*
X0117760Y0162460D03*
X0112160Y0163300D03*
X0109220Y0156300D03*
X0100260Y0156020D03*
X0100120Y0144120D03*
X0094520Y0134600D03*
X0086820Y0139780D03*
X0109360Y0174080D03*
D163*
X0111810Y0185280D03*
X0111810Y0135160D03*
X0111810Y0135020D03*
X0111810Y0134880D03*
X0111810Y0134600D03*
D164*
X0106280Y0146360D03*
X0105440Y0147620D03*
X0103900Y0150280D03*
X0102080Y0149720D03*
X0102500Y0157280D03*
X0111040Y0164000D03*
X0111600Y0159100D03*
X0113700Y0154760D03*
X0115940Y0149860D03*
X0119440Y0147620D03*
X0123500Y0153360D03*
X0136940Y0140060D03*
X0136940Y0139920D03*
X0136800Y0139780D03*
X0132880Y0136560D03*
X0129240Y0134880D03*
X0129100Y0134600D03*
X0094380Y0134880D03*
X0090740Y0136560D03*
X0086680Y0139920D03*
X0086680Y0140060D03*
D165*
X0085210Y0134740D03*
X0100470Y0141740D03*
X0123150Y0141740D03*
X0138410Y0134740D03*
D166*
X0136800Y0139640D03*
X0129240Y0134740D03*
X0118040Y0150140D03*
X0106700Y0155040D03*
X0104040Y0150140D03*
X0094380Y0134740D03*
D167*
X0111810Y0134740D03*
D168*
X0123080Y0141880D03*
X0111600Y0153360D03*
X0138620Y0135020D03*
X0139180Y0135860D03*
X0139320Y0136000D03*
X0139460Y0136280D03*
X0139320Y0171420D03*
X0139180Y0171560D03*
X0084580Y0171700D03*
X0084300Y0171420D03*
X0083880Y0170720D03*
X0083880Y0136700D03*
X0084160Y0136280D03*
X0084300Y0136000D03*
X0084580Y0135720D03*
X0084580Y0135580D03*
X0085000Y0135020D03*
D169*
X0086540Y0140480D03*
X0086540Y0140620D03*
X0090460Y0137260D03*
X0090460Y0137120D03*
X0094100Y0135580D03*
X0094240Y0135300D03*
X0094240Y0135160D03*
X0100120Y0143980D03*
X0103760Y0150420D03*
X0104600Y0152660D03*
X0107120Y0148460D03*
X0100120Y0153920D03*
X0100260Y0155460D03*
X0100260Y0155600D03*
X0102360Y0157700D03*
X0109360Y0162880D03*
X0117480Y0162600D03*
X0121260Y0157700D03*
X0123360Y0155600D03*
X0123360Y0155460D03*
X0120980Y0148880D03*
X0117760Y0150420D03*
X0116080Y0149580D03*
X0111880Y0136980D03*
X0129380Y0135300D03*
X0129380Y0135160D03*
X0129520Y0135580D03*
X0133160Y0137120D03*
X0137080Y0140480D03*
X0137080Y0140620D03*
X0145760Y0151680D03*
X0077860Y0151680D03*
D170*
X0111810Y0135860D03*
X0111810Y0135720D03*
X0111810Y0135580D03*
X0111810Y0135300D03*
D171*
X0111600Y0144540D03*
X0138900Y0135440D03*
X0139460Y0171140D03*
X0084580Y0171840D03*
X0084160Y0171140D03*
X0084720Y0135440D03*
D172*
X0091790Y0135440D03*
X0098930Y0146640D03*
X0100330Y0147340D03*
X0100610Y0146640D03*
X0101030Y0145940D03*
X0097810Y0149440D03*
X0100750Y0151540D03*
X0108030Y0152240D03*
X0108590Y0146640D03*
X0108170Y0145940D03*
X0115030Y0145940D03*
X0120350Y0145940D03*
X0122590Y0146640D03*
X0122870Y0147340D03*
X0123010Y0148040D03*
X0122730Y0150840D03*
X0122450Y0151540D03*
X0121890Y0152240D03*
X0125810Y0149440D03*
X0115170Y0152240D03*
X0113490Y0158540D03*
X0111530Y0161340D03*
X0109710Y0158540D03*
X0118530Y0161340D03*
X0131830Y0135440D03*
D173*
X0129450Y0135440D03*
X0137150Y0141040D03*
X0145830Y0152240D03*
X0145830Y0152940D03*
X0145830Y0153640D03*
X0145830Y0154340D03*
X0123430Y0153640D03*
X0120210Y0146640D03*
X0116150Y0149440D03*
X0107050Y0148740D03*
X0105650Y0147340D03*
X0102150Y0149440D03*
X0094170Y0135440D03*
X0086470Y0141040D03*
X0077930Y0150840D03*
X0077930Y0155740D03*
D174*
X0111810Y0135440D03*
D175*
X0100540Y0141880D03*
X0084440Y0135860D03*
X0084440Y0171560D03*
X0139040Y0135580D03*
X0139740Y0136700D03*
X0139740Y0170720D03*
D176*
X0145690Y0155880D03*
X0145690Y0151400D03*
X0145690Y0151260D03*
X0145690Y0151120D03*
X0145690Y0150980D03*
X0145690Y0150700D03*
X0145690Y0150560D03*
X0145690Y0150420D03*
X0129590Y0135860D03*
X0129590Y0135720D03*
X0123290Y0144120D03*
X0113490Y0157560D03*
X0113490Y0157700D03*
X0115590Y0164560D03*
X0102990Y0151400D03*
X0100190Y0154060D03*
X0090390Y0137400D03*
X0077790Y0151820D03*
X0077790Y0151960D03*
X0077790Y0152100D03*
X0077790Y0152380D03*
X0077790Y0152520D03*
X0077790Y0152660D03*
X0077790Y0152800D03*
X0077790Y0153080D03*
X0077790Y0153220D03*
X0077790Y0153360D03*
X0077790Y0153500D03*
X0077790Y0153780D03*
X0077790Y0153920D03*
X0077790Y0154060D03*
X0077790Y0154200D03*
X0077790Y0154480D03*
X0077790Y0154620D03*
X0077790Y0154760D03*
D177*
X0102850Y0151820D03*
X0107190Y0154760D03*
X0112650Y0155600D03*
X0112790Y0155320D03*
X0112650Y0156160D03*
X0112650Y0156580D03*
X0112650Y0156720D03*
X0112650Y0156860D03*
X0112790Y0157000D03*
X0113490Y0158400D03*
X0111390Y0161060D03*
X0111950Y0163020D03*
X0114190Y0167080D03*
X0112230Y0169880D03*
X0117690Y0163580D03*
X0120490Y0153360D03*
X0125250Y0151960D03*
X0125250Y0151820D03*
X0121330Y0147900D03*
X0120350Y0146080D03*
X0120630Y0144680D03*
X0116430Y0144680D03*
X0106350Y0146080D03*
X0105650Y0163020D03*
X0132250Y0135860D03*
X0139950Y0143280D03*
D178*
X0103340Y0136000D03*
D179*
X0120280Y0136000D03*
D180*
X0132530Y0136140D03*
X0140090Y0143840D03*
X0123430Y0156440D03*
X0118530Y0149440D03*
X0112790Y0156440D03*
X0109290Y0155040D03*
X0105090Y0148040D03*
X0100190Y0156440D03*
X0083530Y0143840D03*
X0091090Y0136140D03*
D181*
X0090320Y0137540D03*
X0093960Y0136140D03*
X0100120Y0143840D03*
X0100260Y0155040D03*
X0102220Y0157840D03*
X0111600Y0159240D03*
X0117340Y0162740D03*
X0117200Y0163440D03*
X0121400Y0157840D03*
X0123360Y0155040D03*
X0120420Y0150840D03*
X0120700Y0150140D03*
X0120840Y0149440D03*
X0111600Y0149440D03*
X0111600Y0148740D03*
X0111600Y0148040D03*
X0111600Y0150140D03*
X0129660Y0136140D03*
X0133300Y0137540D03*
X0145340Y0148740D03*
X0145480Y0149440D03*
X0145620Y0150140D03*
X0145760Y0155040D03*
X0145620Y0156440D03*
X0078280Y0148740D03*
X0078140Y0149440D03*
X0078000Y0150140D03*
X0077860Y0155040D03*
X0078000Y0156440D03*
D182*
X0102920Y0136140D03*
D183*
X0120630Y0136140D03*
X0122870Y0183740D03*
X0100750Y0183740D03*
D184*
X0102150Y0157980D03*
X0100330Y0154760D03*
X0100330Y0154620D03*
X0100330Y0154480D03*
X0102990Y0151260D03*
X0102290Y0149020D03*
X0102290Y0148880D03*
X0105930Y0147060D03*
X0106630Y0150420D03*
X0106490Y0150700D03*
X0106350Y0150980D03*
X0111530Y0147760D03*
X0116290Y0148880D03*
X0118530Y0145380D03*
X0118530Y0143980D03*
X0123290Y0143980D03*
X0120630Y0150280D03*
X0120490Y0150700D03*
X0120350Y0150980D03*
X0119790Y0151680D03*
X0119650Y0151820D03*
X0123290Y0153920D03*
X0123290Y0154060D03*
X0123290Y0154200D03*
X0123290Y0154480D03*
X0123290Y0154620D03*
X0123290Y0154760D03*
X0137150Y0141320D03*
X0129730Y0136700D03*
X0129730Y0136560D03*
X0129730Y0136420D03*
X0129730Y0136280D03*
X0144990Y0146920D03*
X0144990Y0147060D03*
X0145130Y0147480D03*
X0145130Y0147620D03*
X0145550Y0156720D03*
X0145550Y0156860D03*
X0145550Y0157000D03*
X0145550Y0157280D03*
X0093890Y0136700D03*
X0093890Y0136560D03*
X0093890Y0136420D03*
X0093890Y0136280D03*
X0078630Y0146920D03*
X0078630Y0147060D03*
X0078490Y0147480D03*
X0078490Y0147620D03*
X0078350Y0148180D03*
D185*
X0091510Y0144260D03*
X0102710Y0136280D03*
X0111810Y0140200D03*
X0120910Y0136280D03*
X0132110Y0144260D03*
X0114330Y0171280D03*
X0114470Y0171560D03*
D186*
X0132320Y0143700D03*
X0121120Y0136420D03*
X0111880Y0139920D03*
X0102500Y0136420D03*
X0091300Y0143560D03*
X0091300Y0143700D03*
D187*
X0090600Y0136840D03*
X0077860Y0151540D03*
X0100260Y0155740D03*
X0106280Y0163440D03*
X0111180Y0160640D03*
X0116920Y0151540D03*
X0119720Y0147340D03*
X0120980Y0148740D03*
X0123360Y0155740D03*
X0133020Y0136840D03*
X0145760Y0151540D03*
X0109500Y0173940D03*
D188*
X0109220Y0162740D03*
X0106000Y0151540D03*
X0106420Y0150840D03*
X0106700Y0150140D03*
X0103200Y0150840D03*
X0102500Y0148040D03*
X0102780Y0147340D03*
X0103760Y0145940D03*
X0111600Y0147340D03*
X0116360Y0148740D03*
X0119020Y0152240D03*
X0129800Y0136840D03*
X0144920Y0146640D03*
X0145200Y0158540D03*
X0093820Y0136840D03*
X0078700Y0146640D03*
D189*
X0102010Y0136840D03*
X0121610Y0136840D03*
D190*
X0129800Y0136980D03*
X0129800Y0137120D03*
X0129800Y0137260D03*
X0133580Y0138660D03*
X0144640Y0145660D03*
X0144640Y0145800D03*
X0144780Y0146080D03*
X0144780Y0146220D03*
X0144780Y0146360D03*
X0144920Y0146500D03*
X0144920Y0146780D03*
X0145060Y0147200D03*
X0145340Y0157980D03*
X0145340Y0158120D03*
X0145340Y0158260D03*
X0145200Y0158680D03*
X0145200Y0158820D03*
X0124900Y0157280D03*
X0121540Y0158120D03*
X0115940Y0160360D03*
X0110760Y0166100D03*
X0110200Y0166380D03*
X0107260Y0165400D03*
X0102080Y0158120D03*
X0098720Y0157280D03*
X0103060Y0151120D03*
X0104600Y0152520D03*
X0105300Y0152100D03*
X0105720Y0151820D03*
X0105860Y0151680D03*
X0106140Y0151260D03*
X0106280Y0151120D03*
X0106560Y0150560D03*
X0106700Y0150280D03*
X0106840Y0149720D03*
X0106840Y0149580D03*
X0106140Y0146920D03*
X0104460Y0145520D03*
X0104180Y0145660D03*
X0103620Y0146080D03*
X0103480Y0146220D03*
X0103340Y0146360D03*
X0103200Y0146500D03*
X0103060Y0146780D03*
X0102920Y0146920D03*
X0102920Y0147060D03*
X0102780Y0147200D03*
X0102640Y0147480D03*
X0102640Y0147620D03*
X0102640Y0147760D03*
X0102500Y0147900D03*
X0102500Y0148180D03*
X0102500Y0148320D03*
X0102360Y0148460D03*
X0102360Y0148600D03*
X0111600Y0147620D03*
X0111600Y0147480D03*
X0111600Y0147200D03*
X0111600Y0150280D03*
X0111600Y0150420D03*
X0111600Y0150560D03*
X0111600Y0150700D03*
X0116220Y0149020D03*
X0116360Y0148600D03*
X0117200Y0146500D03*
X0120140Y0146920D03*
X0119440Y0151960D03*
X0119300Y0152100D03*
X0093820Y0137260D03*
X0093820Y0137120D03*
X0093820Y0136980D03*
X0090040Y0138660D03*
X0078980Y0145800D03*
X0078840Y0146080D03*
X0078840Y0146220D03*
X0078840Y0146360D03*
X0078700Y0146500D03*
X0078700Y0146780D03*
X0078560Y0147200D03*
X0078280Y0157980D03*
X0078280Y0158120D03*
X0078280Y0158260D03*
X0078420Y0158680D03*
X0078420Y0158820D03*
D191*
X0082480Y0168200D03*
X0082620Y0168480D03*
X0082760Y0168760D03*
X0083040Y0169180D03*
X0083040Y0169320D03*
X0083180Y0169460D03*
X0083180Y0169600D03*
X0083460Y0170020D03*
X0084720Y0172260D03*
X0111600Y0153220D03*
X0111600Y0144680D03*
X0117200Y0169180D03*
X0117200Y0169320D03*
X0117200Y0169460D03*
X0117340Y0169600D03*
X0117480Y0169880D03*
X0117480Y0170020D03*
X0117620Y0170300D03*
X0138900Y0172260D03*
X0140160Y0170020D03*
X0140440Y0169600D03*
X0140440Y0169460D03*
X0140580Y0169320D03*
X0140580Y0169180D03*
X0140860Y0168760D03*
X0141000Y0168480D03*
X0141140Y0168200D03*
X0140160Y0137400D03*
X0083460Y0137400D03*
D192*
X0090110Y0138800D03*
X0093750Y0137680D03*
X0093750Y0137400D03*
X0100190Y0143700D03*
X0103970Y0145800D03*
X0103130Y0150980D03*
X0104810Y0152380D03*
X0105510Y0151960D03*
X0107470Y0161060D03*
X0106770Y0163720D03*
X0107330Y0165260D03*
X0110130Y0166520D03*
X0111110Y0165960D03*
X0109710Y0173660D03*
X0117130Y0162880D03*
X0118530Y0152520D03*
X0118810Y0152380D03*
X0116990Y0151260D03*
X0116990Y0151120D03*
X0117130Y0150980D03*
X0116430Y0148460D03*
X0116430Y0148320D03*
X0116430Y0148180D03*
X0116570Y0147900D03*
X0116570Y0147760D03*
X0116710Y0147480D03*
X0116850Y0147060D03*
X0116990Y0146780D03*
X0117270Y0146360D03*
X0117410Y0146220D03*
X0117550Y0146080D03*
X0117970Y0145800D03*
X0118110Y0145660D03*
X0118390Y0145520D03*
X0129870Y0137820D03*
X0129870Y0137680D03*
X0129870Y0137400D03*
X0133510Y0138800D03*
X0144290Y0144680D03*
X0144430Y0145100D03*
X0144570Y0145380D03*
X0144570Y0145520D03*
X0145270Y0158400D03*
X0145130Y0158960D03*
X0145130Y0159100D03*
X0144990Y0159520D03*
X0078630Y0159520D03*
X0078490Y0159100D03*
X0078490Y0158960D03*
X0078350Y0158400D03*
X0079050Y0145660D03*
X0079050Y0145520D03*
X0079050Y0145380D03*
X0079190Y0145100D03*
X0079330Y0144680D03*
D193*
X0083320Y0137540D03*
X0082900Y0169040D03*
X0083320Y0169740D03*
X0117340Y0169740D03*
X0140300Y0169740D03*
X0140720Y0169040D03*
X0140300Y0137540D03*
D194*
X0144710Y0145940D03*
X0129870Y0137540D03*
X0123290Y0143840D03*
X0117690Y0145940D03*
X0117130Y0146640D03*
X0116710Y0147340D03*
X0117270Y0150840D03*
X0114190Y0162040D03*
X0105090Y0152240D03*
X0093750Y0137540D03*
X0079190Y0145240D03*
X0078910Y0145940D03*
X0078350Y0158540D03*
X0119090Y0172540D03*
D195*
X0101380Y0137540D03*
D196*
X0111810Y0137540D03*
D197*
X0122170Y0137540D03*
D198*
X0111530Y0144820D03*
X0110830Y0172680D03*
X0084790Y0172400D03*
X0082830Y0168900D03*
X0082690Y0168620D03*
X0082130Y0167500D03*
X0081990Y0167220D03*
X0083250Y0137680D03*
X0138830Y0172400D03*
X0140790Y0168900D03*
X0140930Y0168620D03*
X0141350Y0167780D03*
X0141490Y0167500D03*
X0141630Y0167220D03*
D199*
X0141560Y0167360D03*
X0141700Y0167080D03*
X0141840Y0166800D03*
X0141840Y0166660D03*
X0141980Y0166380D03*
X0142120Y0166100D03*
X0142120Y0165960D03*
X0142260Y0165820D03*
X0138760Y0172680D03*
X0118740Y0172820D03*
X0116220Y0166800D03*
X0116080Y0166660D03*
X0116080Y0166520D03*
X0115800Y0165820D03*
X0110340Y0170160D03*
X0110340Y0170300D03*
X0110480Y0170860D03*
X0112020Y0177020D03*
X0108100Y0164420D03*
X0111600Y0153500D03*
X0111600Y0153080D03*
X0100680Y0142580D03*
X0083040Y0137960D03*
X0082900Y0138100D03*
X0081360Y0165820D03*
X0081500Y0165960D03*
X0081500Y0166100D03*
X0081640Y0166380D03*
X0081780Y0166660D03*
X0081780Y0166800D03*
X0081920Y0167080D03*
X0082060Y0167360D03*
X0084860Y0172680D03*
X0122940Y0142580D03*
X0140580Y0137960D03*
X0140720Y0138100D03*
D200*
X0122590Y0138100D03*
X0109290Y0159660D03*
X0112790Y0171700D03*
X0116290Y0174360D03*
X0124830Y0182900D03*
X0098790Y0182900D03*
D201*
X0111670Y0152940D03*
X0082830Y0138240D03*
D202*
X0090110Y0138240D03*
X0106210Y0146640D03*
X0106910Y0149440D03*
X0111670Y0151540D03*
X0110410Y0166240D03*
X0133510Y0138240D03*
X0145270Y0148040D03*
X0145410Y0157840D03*
X0078210Y0157840D03*
X0078070Y0157140D03*
D203*
X0078560Y0159240D03*
X0078700Y0159940D03*
X0079400Y0144540D03*
X0090180Y0138940D03*
X0093820Y0138240D03*
X0111600Y0150840D03*
X0116500Y0148040D03*
X0129800Y0138240D03*
X0144220Y0144540D03*
X0144500Y0145240D03*
X0145060Y0159240D03*
X0144920Y0159940D03*
D204*
X0122590Y0138240D03*
D205*
X0140790Y0138240D03*
D206*
X0141000Y0138380D03*
X0142540Y0165400D03*
X0138620Y0173100D03*
X0111600Y0152800D03*
X0111600Y0145100D03*
X0106980Y0159380D03*
X0110620Y0172820D03*
X0085000Y0173100D03*
X0081080Y0165400D03*
X0082620Y0138380D03*
D207*
X0100820Y0138660D03*
D208*
X0122800Y0138660D03*
D209*
X0111600Y0152660D03*
X0116780Y0159100D03*
X0138480Y0173520D03*
X0142680Y0165120D03*
X0141280Y0138800D03*
X0085140Y0173520D03*
X0080940Y0165120D03*
X0082340Y0138800D03*
D210*
X0082200Y0138940D03*
X0080800Y0164840D03*
X0109640Y0167640D03*
X0111600Y0145240D03*
D211*
X0106420Y0144540D03*
X0104740Y0148740D03*
X0104460Y0149440D03*
X0102780Y0144540D03*
X0113000Y0155040D03*
X0112860Y0157140D03*
X0114820Y0159240D03*
X0118880Y0148740D03*
X0120420Y0144540D03*
X0136520Y0138940D03*
X0087100Y0138940D03*
D212*
X0093680Y0138940D03*
X0080240Y0142440D03*
X0109080Y0168340D03*
X0117480Y0156440D03*
X0129940Y0138940D03*
X0143380Y0142440D03*
D213*
X0122800Y0138940D03*
X0100820Y0138940D03*
D214*
X0111810Y0138940D03*
D215*
X0133440Y0138940D03*
D216*
X0111810Y0139080D03*
D217*
X0107960Y0164560D03*
X0082060Y0139220D03*
X0141560Y0139220D03*
D218*
X0117620Y0173520D03*
X0112020Y0171980D03*
X0100680Y0139360D03*
D219*
X0111600Y0153640D03*
X0114960Y0161340D03*
X0132880Y0170440D03*
X0132880Y0171140D03*
X0132880Y0171840D03*
X0132880Y0172540D03*
X0132880Y0173240D03*
X0132880Y0173940D03*
X0132880Y0174640D03*
X0132880Y0175340D03*
X0132880Y0176040D03*
X0132880Y0180940D03*
X0132880Y0181640D03*
X0132880Y0182340D03*
X0132880Y0183040D03*
X0132880Y0183740D03*
X0132880Y0184440D03*
X0132880Y0185140D03*
X0132880Y0185840D03*
X0132880Y0186540D03*
X0085280Y0173940D03*
X0080380Y0164140D03*
X0081780Y0139640D03*
D220*
X0086820Y0139640D03*
D221*
X0090740Y0170440D03*
X0090740Y0171140D03*
X0090740Y0171840D03*
X0090740Y0172540D03*
X0090740Y0173240D03*
X0090740Y0173940D03*
X0090740Y0174640D03*
X0090740Y0175340D03*
X0090740Y0176040D03*
X0090740Y0180940D03*
X0090740Y0181640D03*
X0090740Y0182340D03*
X0090740Y0183040D03*
X0090740Y0183740D03*
X0090740Y0184440D03*
X0090740Y0185140D03*
X0090740Y0185840D03*
X0090740Y0186540D03*
X0138340Y0173940D03*
X0143240Y0164140D03*
X0141840Y0139640D03*
D222*
X0141910Y0139780D03*
X0142050Y0139920D03*
X0123010Y0143280D03*
X0116990Y0158680D03*
X0116990Y0158820D03*
X0115310Y0160920D03*
X0116290Y0163300D03*
X0118950Y0172680D03*
X0132810Y0169880D03*
X0138270Y0174080D03*
X0138270Y0174220D03*
X0143310Y0164000D03*
X0143310Y0163860D03*
X0143450Y0163720D03*
X0106630Y0159100D03*
X0090810Y0169880D03*
X0085350Y0174080D03*
X0085350Y0174220D03*
X0080310Y0164000D03*
X0080310Y0163860D03*
X0081570Y0139920D03*
X0081710Y0139780D03*
D223*
X0111810Y0140060D03*
X0100330Y0183600D03*
X0123290Y0183600D03*
D224*
X0143520Y0163440D03*
X0142260Y0140340D03*
X0117060Y0158540D03*
X0081360Y0140340D03*
X0080100Y0163440D03*
D225*
X0086610Y0140340D03*
X0102990Y0151540D03*
X0109710Y0157840D03*
X0113490Y0157840D03*
X0116570Y0155040D03*
X0118110Y0159240D03*
X0137010Y0140340D03*
D226*
X0100540Y0140340D03*
D227*
X0111810Y0140340D03*
D228*
X0123080Y0140340D03*
D229*
X0111810Y0140480D03*
X0111810Y0188220D03*
D230*
X0130570Y0166100D03*
X0111810Y0140760D03*
X0111810Y0140620D03*
X0093050Y0166100D03*
D231*
X0111810Y0188780D03*
X0142610Y0140900D03*
X0142470Y0140620D03*
X0081010Y0140900D03*
D232*
X0111810Y0140900D03*
D233*
X0111600Y0145940D03*
X0107820Y0161340D03*
X0109920Y0166940D03*
X0085560Y0174640D03*
X0080940Y0141040D03*
X0142680Y0141040D03*
D234*
X0111810Y0141040D03*
D235*
X0111810Y0141180D03*
X0111810Y0141320D03*
D236*
X0111810Y0141460D03*
X0111810Y0141600D03*
D237*
X0117690Y0168480D03*
X0137990Y0174920D03*
X0142890Y0141460D03*
X0080590Y0141600D03*
D238*
X0080590Y0141740D03*
X0101590Y0158540D03*
X0115590Y0160640D03*
X0117690Y0168340D03*
D239*
X0120910Y0155040D03*
X0114330Y0150840D03*
X0114050Y0148040D03*
X0107750Y0147340D03*
X0110830Y0155040D03*
X0104950Y0161340D03*
X0105090Y0162040D03*
X0102710Y0155040D03*
X0098930Y0145240D03*
X0084090Y0141740D03*
X0081570Y0146640D03*
X0123290Y0145240D03*
X0124690Y0145240D03*
X0139530Y0141740D03*
X0142050Y0146640D03*
D240*
X0133510Y0146500D03*
X0133510Y0146360D03*
X0133510Y0146220D03*
X0130430Y0165680D03*
X0111810Y0142720D03*
X0111810Y0142580D03*
X0111810Y0142300D03*
X0111810Y0142160D03*
X0090110Y0146220D03*
X0090110Y0146360D03*
X0090110Y0146500D03*
D241*
X0100610Y0142440D03*
X0123010Y0142440D03*
X0141070Y0168340D03*
X0082270Y0167640D03*
D242*
X0090110Y0146640D03*
X0111810Y0142440D03*
X0133510Y0146640D03*
D243*
X0123220Y0143700D03*
X0121820Y0158400D03*
X0110060Y0166660D03*
X0109220Y0169600D03*
X0109360Y0170020D03*
X0105860Y0155880D03*
X0105860Y0155600D03*
X0105860Y0155460D03*
X0079120Y0161060D03*
X0079120Y0161200D03*
X0079820Y0143420D03*
X0079820Y0143280D03*
X0079960Y0143000D03*
X0143660Y0143000D03*
D244*
X0143660Y0143140D03*
X0109220Y0169740D03*
X0105860Y0155740D03*
X0079960Y0143140D03*
D245*
X0091160Y0143140D03*
X0132460Y0143140D03*
D246*
X0113210Y0163440D03*
X0100610Y0143140D03*
X0090810Y0187240D03*
X0132810Y0187240D03*
D247*
X0124620Y0183040D03*
X0130920Y0166940D03*
X0111600Y0143140D03*
X0092700Y0166940D03*
X0099000Y0183040D03*
D248*
X0108450Y0162040D03*
X0106770Y0159240D03*
X0122870Y0143140D03*
D249*
X0132250Y0143840D03*
X0091370Y0143840D03*
D250*
X0111600Y0143840D03*
D251*
X0091440Y0143980D03*
X0091440Y0144120D03*
D252*
X0114260Y0171000D03*
X0132180Y0144120D03*
X0132180Y0143980D03*
D253*
X0116640Y0147620D03*
X0112440Y0163580D03*
X0108940Y0168620D03*
X0101940Y0158260D03*
X0079540Y0144120D03*
D254*
X0090250Y0144540D03*
X0090250Y0145240D03*
X0093190Y0165540D03*
D255*
X0133370Y0145240D03*
X0133370Y0144540D03*
D256*
X0135330Y0156720D03*
X0135330Y0156860D03*
X0090250Y0145100D03*
X0090250Y0144960D03*
X0090250Y0144820D03*
X0090250Y0144680D03*
X0088150Y0156020D03*
X0088150Y0156160D03*
X0088150Y0156300D03*
X0088290Y0156720D03*
X0088290Y0156860D03*
D257*
X0133370Y0145100D03*
X0133370Y0144960D03*
X0133370Y0144820D03*
X0133370Y0144680D03*
X0135470Y0156020D03*
X0135470Y0156160D03*
X0135470Y0156300D03*
D258*
X0126090Y0153500D03*
X0125390Y0151400D03*
X0125390Y0151260D03*
X0124690Y0146780D03*
X0115590Y0150280D03*
X0116290Y0153220D03*
X0118390Y0161760D03*
X0105090Y0160360D03*
X0098090Y0152380D03*
X0098090Y0150980D03*
X0102290Y0144820D03*
X0107190Y0144960D03*
D259*
X0102010Y0152940D03*
X0097810Y0152940D03*
X0097950Y0150140D03*
X0099070Y0145940D03*
X0111810Y0162740D03*
X0106910Y0166240D03*
X0109010Y0174640D03*
X0125810Y0152940D03*
X0125530Y0150840D03*
X0125670Y0150140D03*
X0124550Y0145940D03*
X0121470Y0145240D03*
D260*
X0133440Y0145380D03*
X0133440Y0145520D03*
X0133440Y0145660D03*
X0133440Y0145800D03*
X0133440Y0146080D03*
X0090180Y0146080D03*
X0090180Y0145800D03*
X0090180Y0145660D03*
X0090180Y0145520D03*
X0090180Y0145380D03*
D261*
X0090180Y0145940D03*
X0133440Y0145940D03*
D262*
X0123290Y0154340D03*
X0119930Y0151540D03*
X0103130Y0146640D03*
X0102290Y0148740D03*
X0100330Y0154340D03*
X0078350Y0148040D03*
X0078490Y0147340D03*
X0145130Y0147340D03*
X0145550Y0157140D03*
D263*
X0144640Y0160640D03*
X0111600Y0146640D03*
X0106000Y0157140D03*
X0106140Y0157840D03*
X0078980Y0160640D03*
D264*
X0090040Y0147060D03*
X0090040Y0146920D03*
X0090040Y0146780D03*
X0133580Y0146780D03*
X0133580Y0146920D03*
X0133580Y0147060D03*
D265*
X0133720Y0147340D03*
X0089900Y0147340D03*
D266*
X0089200Y0147480D03*
X0089060Y0147900D03*
X0088500Y0150420D03*
X0088500Y0150560D03*
X0088500Y0150700D03*
X0088360Y0152380D03*
X0088360Y0152520D03*
X0089200Y0158400D03*
X0134420Y0158400D03*
X0135260Y0152520D03*
X0135260Y0152380D03*
X0135120Y0150700D03*
X0135120Y0150560D03*
X0135120Y0150420D03*
X0134560Y0147900D03*
X0134420Y0147480D03*
D267*
X0134490Y0147620D03*
X0134490Y0147760D03*
X0134630Y0148180D03*
X0134770Y0148320D03*
X0134770Y0148460D03*
X0135190Y0150280D03*
X0135330Y0152660D03*
X0135330Y0152800D03*
X0134630Y0158260D03*
X0130290Y0165260D03*
X0093330Y0165260D03*
X0088990Y0158260D03*
X0088290Y0152800D03*
X0088290Y0152660D03*
X0088430Y0150280D03*
X0088850Y0148460D03*
X0088850Y0148320D03*
X0088990Y0148180D03*
X0089130Y0147760D03*
X0089130Y0147620D03*
D268*
X0088990Y0148040D03*
X0088290Y0152940D03*
X0134630Y0148040D03*
X0135330Y0152940D03*
D269*
X0135400Y0153080D03*
X0135400Y0153220D03*
X0134700Y0158120D03*
X0134980Y0149160D03*
X0134980Y0149020D03*
X0134980Y0148880D03*
X0134840Y0148600D03*
X0088780Y0148600D03*
X0088640Y0148880D03*
X0088640Y0149020D03*
X0088640Y0149160D03*
X0088500Y0149580D03*
X0088500Y0149720D03*
X0088500Y0149860D03*
X0088500Y0150000D03*
D270*
X0088500Y0150140D03*
X0088780Y0148740D03*
X0134840Y0148740D03*
D271*
X0125740Y0148740D03*
X0109640Y0152240D03*
D272*
X0088570Y0149440D03*
X0088150Y0153640D03*
X0111810Y0187940D03*
X0135470Y0153640D03*
X0135050Y0149440D03*
D273*
X0135120Y0149580D03*
X0135120Y0149720D03*
X0135120Y0149860D03*
X0135120Y0150000D03*
X0088920Y0158120D03*
X0088220Y0153220D03*
X0088220Y0153080D03*
D274*
X0135120Y0150140D03*
D275*
X0135120Y0150840D03*
X0088500Y0150840D03*
D276*
X0098090Y0150840D03*
X0121190Y0152940D03*
D277*
X0107190Y0165540D03*
X0077790Y0154340D03*
X0077790Y0153640D03*
X0077790Y0152940D03*
X0077790Y0152240D03*
X0145690Y0150840D03*
X0145690Y0155740D03*
D278*
X0135050Y0151260D03*
X0135050Y0151120D03*
X0135050Y0150980D03*
X0121330Y0184020D03*
X0088430Y0152100D03*
X0088570Y0151260D03*
X0088570Y0151120D03*
X0088570Y0150980D03*
D279*
X0088500Y0151400D03*
X0088500Y0151680D03*
X0088500Y0151820D03*
X0088500Y0151960D03*
X0135120Y0151960D03*
X0135120Y0151820D03*
X0135120Y0151680D03*
X0135120Y0151400D03*
D280*
X0135120Y0151540D03*
X0134280Y0158540D03*
X0089340Y0158540D03*
X0088500Y0151540D03*
D281*
X0102290Y0184020D03*
X0135190Y0152100D03*
D282*
X0088430Y0152240D03*
D283*
X0135190Y0152240D03*
D284*
X0118530Y0153640D03*
X0107750Y0164840D03*
X0138130Y0174640D03*
D285*
X0130360Y0165400D03*
X0134980Y0157700D03*
X0093260Y0165400D03*
X0088080Y0154200D03*
X0088080Y0154060D03*
X0088080Y0153920D03*
X0088080Y0153780D03*
D286*
X0088640Y0157700D03*
X0135540Y0154200D03*
X0135540Y0154060D03*
X0135540Y0153920D03*
X0135540Y0153780D03*
D287*
X0135610Y0154340D03*
X0088010Y0154340D03*
D288*
X0088010Y0154480D03*
X0088010Y0154620D03*
X0088010Y0154760D03*
X0088010Y0154900D03*
X0088430Y0157280D03*
X0088570Y0157560D03*
X0135050Y0157560D03*
X0135190Y0157280D03*
X0135610Y0154900D03*
X0135610Y0154760D03*
X0135610Y0154620D03*
X0135610Y0154480D03*
D289*
X0135540Y0155040D03*
X0135540Y0155740D03*
X0135400Y0156440D03*
X0135260Y0157140D03*
X0130360Y0165540D03*
X0088360Y0157140D03*
X0088220Y0156440D03*
X0088080Y0155740D03*
X0088080Y0155040D03*
D290*
X0088080Y0155180D03*
X0088080Y0155320D03*
X0088080Y0155460D03*
X0088080Y0155600D03*
X0088080Y0155880D03*
X0088220Y0156580D03*
X0088360Y0157000D03*
X0088500Y0157420D03*
X0135120Y0157420D03*
X0135260Y0157000D03*
X0135400Y0156580D03*
X0135540Y0155880D03*
X0135540Y0155600D03*
X0135540Y0155460D03*
X0135540Y0155320D03*
X0135540Y0155180D03*
D291*
X0088780Y0157840D03*
D292*
X0134840Y0157840D03*
D293*
X0101240Y0158680D03*
X0090740Y0170020D03*
X0090740Y0170160D03*
X0090740Y0170300D03*
X0090740Y0170580D03*
X0090740Y0170720D03*
X0090740Y0170860D03*
X0090740Y0171000D03*
X0090740Y0171280D03*
X0090740Y0171420D03*
X0090740Y0171560D03*
X0090740Y0171700D03*
X0090740Y0171980D03*
X0090740Y0172120D03*
X0090740Y0172260D03*
X0090740Y0172400D03*
X0090740Y0172680D03*
X0090740Y0172820D03*
X0090740Y0172960D03*
X0090740Y0173100D03*
X0090740Y0173380D03*
X0090740Y0173520D03*
X0090740Y0173660D03*
X0090740Y0173800D03*
X0090740Y0174080D03*
X0090740Y0174220D03*
X0090740Y0174360D03*
X0090740Y0174500D03*
X0090740Y0174780D03*
X0090740Y0174920D03*
X0090740Y0175060D03*
X0090740Y0175200D03*
X0090740Y0175480D03*
X0090740Y0175620D03*
X0090740Y0175760D03*
X0090740Y0175900D03*
X0090740Y0176180D03*
X0090740Y0176320D03*
X0090740Y0180800D03*
X0090740Y0181080D03*
X0090740Y0181220D03*
X0090740Y0181360D03*
X0090740Y0181500D03*
X0090740Y0181780D03*
X0090740Y0181920D03*
X0090740Y0182060D03*
X0090740Y0182200D03*
X0090740Y0182480D03*
X0090740Y0182620D03*
X0090740Y0182760D03*
X0090740Y0182900D03*
X0090740Y0183180D03*
X0090740Y0183320D03*
X0090740Y0183460D03*
X0090740Y0183600D03*
X0090740Y0183880D03*
X0090740Y0184020D03*
X0090740Y0184160D03*
X0090740Y0184300D03*
X0090740Y0184580D03*
X0090740Y0184720D03*
X0090740Y0184860D03*
X0090740Y0185000D03*
X0090740Y0185280D03*
X0090740Y0185420D03*
X0090740Y0185560D03*
X0090740Y0185700D03*
X0090740Y0185980D03*
X0090740Y0186120D03*
X0090740Y0186260D03*
X0090740Y0186400D03*
X0090740Y0186680D03*
X0090740Y0186820D03*
X0090740Y0186960D03*
X0090740Y0187100D03*
D294*
X0092490Y0159380D03*
X0092350Y0158960D03*
X0092350Y0158820D03*
X0131130Y0159380D03*
D295*
X0131270Y0158960D03*
X0131270Y0158820D03*
D296*
X0131200Y0159100D03*
X0131060Y0159520D03*
X0131060Y0159660D03*
X0092560Y0159660D03*
X0092560Y0159520D03*
X0092420Y0159100D03*
D297*
X0092420Y0159240D03*
X0131200Y0159240D03*
D298*
X0111810Y0187100D03*
X0092630Y0160080D03*
X0092630Y0159800D03*
D299*
X0130990Y0159800D03*
X0130990Y0160080D03*
D300*
X0092630Y0159940D03*
D301*
X0105440Y0159940D03*
D302*
X0110550Y0159940D03*
X0117130Y0169040D03*
X0138830Y0172540D03*
X0084790Y0172540D03*
X0082550Y0168340D03*
D303*
X0130990Y0159940D03*
D304*
X0130920Y0160220D03*
X0130920Y0160360D03*
X0092700Y0160360D03*
X0092700Y0160220D03*
D305*
X0092770Y0160500D03*
X0092910Y0160780D03*
X0092910Y0160920D03*
X0130710Y0160920D03*
X0130710Y0160780D03*
X0130850Y0160500D03*
D306*
X0092840Y0160640D03*
D307*
X0130850Y0160640D03*
D308*
X0130640Y0161060D03*
X0130640Y0161200D03*
X0092980Y0161200D03*
X0092980Y0161060D03*
D309*
X0079190Y0161340D03*
X0117130Y0166940D03*
X0144430Y0161340D03*
D310*
X0130570Y0161340D03*
X0093050Y0161340D03*
D311*
X0093050Y0161480D03*
X0130570Y0161480D03*
D312*
X0130500Y0161620D03*
X0130360Y0161760D03*
X0130360Y0161900D03*
X0093260Y0161900D03*
X0093260Y0161760D03*
X0093120Y0161620D03*
D313*
X0093330Y0162040D03*
X0111810Y0187240D03*
X0130290Y0162040D03*
D314*
X0130290Y0162180D03*
X0093330Y0162180D03*
D315*
X0093400Y0162320D03*
X0093540Y0162600D03*
X0130080Y0162600D03*
X0130220Y0162320D03*
D316*
X0093470Y0162460D03*
D317*
X0130150Y0162460D03*
D318*
X0130010Y0162740D03*
X0093610Y0162740D03*
D319*
X0093680Y0162880D03*
X0093680Y0163020D03*
X0129940Y0163020D03*
X0129940Y0162880D03*
D320*
X0129940Y0163160D03*
X0093680Y0163160D03*
D321*
X0093750Y0163300D03*
X0129870Y0163300D03*
D322*
X0129940Y0163440D03*
X0093680Y0163440D03*
D323*
X0093680Y0163580D03*
D324*
X0129940Y0163580D03*
D325*
X0129940Y0163720D03*
X0093680Y0163720D03*
D326*
X0093540Y0164140D03*
X0130080Y0164140D03*
D327*
X0093540Y0164280D03*
D328*
X0130080Y0164280D03*
D329*
X0130080Y0164420D03*
X0111740Y0187660D03*
X0093540Y0164420D03*
D330*
X0093540Y0164560D03*
D331*
X0130150Y0164560D03*
D332*
X0130150Y0164700D03*
X0132810Y0176460D03*
X0132810Y0176600D03*
X0132810Y0176880D03*
X0132810Y0177020D03*
X0132810Y0177160D03*
X0132810Y0177300D03*
X0132810Y0177580D03*
X0132810Y0177720D03*
X0132810Y0177860D03*
X0132810Y0178000D03*
X0132810Y0178280D03*
X0132810Y0178420D03*
X0132810Y0178560D03*
X0132810Y0178700D03*
X0132810Y0178980D03*
X0132810Y0179120D03*
X0132810Y0179260D03*
X0132810Y0179400D03*
X0132810Y0179680D03*
X0132810Y0179820D03*
X0132810Y0179960D03*
X0132810Y0180100D03*
X0132810Y0180380D03*
X0132810Y0180520D03*
X0132810Y0180660D03*
X0093470Y0164700D03*
X0090810Y0176460D03*
X0090810Y0176600D03*
X0090810Y0176880D03*
X0090810Y0177020D03*
X0090810Y0177160D03*
X0090810Y0177300D03*
X0090810Y0177580D03*
X0090810Y0177720D03*
X0090810Y0177860D03*
X0090810Y0178000D03*
X0090810Y0178280D03*
X0090810Y0178420D03*
X0090810Y0178560D03*
X0090810Y0178700D03*
X0090810Y0178980D03*
X0090810Y0179120D03*
X0090810Y0179260D03*
X0090810Y0179400D03*
X0090810Y0179680D03*
X0090810Y0179820D03*
X0090810Y0179960D03*
X0090810Y0180100D03*
X0090810Y0180380D03*
X0090810Y0180520D03*
X0090810Y0180660D03*
D333*
X0093470Y0164840D03*
X0130150Y0164840D03*
D334*
X0115310Y0164840D03*
D335*
X0130290Y0165120D03*
X0093330Y0165120D03*
D336*
X0085000Y0173240D03*
X0081220Y0165540D03*
X0138620Y0173240D03*
X0142400Y0165540D03*
D337*
X0138690Y0172820D03*
X0138690Y0172960D03*
X0081290Y0165680D03*
D338*
X0093190Y0165680D03*
D339*
X0093120Y0165820D03*
D340*
X0130500Y0165820D03*
D341*
X0130500Y0165960D03*
X0093120Y0165960D03*
D342*
X0092420Y0167640D03*
X0081920Y0166940D03*
X0081640Y0166240D03*
X0110340Y0170440D03*
X0115940Y0166240D03*
X0131200Y0167640D03*
X0141420Y0167640D03*
X0141700Y0166940D03*
X0141980Y0166240D03*
D343*
X0130640Y0166240D03*
X0092980Y0166240D03*
D344*
X0092560Y0167360D03*
X0131060Y0167360D03*
D345*
X0114330Y0171140D03*
D346*
X0112370Y0171840D03*
D347*
X0111040Y0172540D03*
X0139040Y0171840D03*
D348*
X0114470Y0175480D03*
X0111810Y0188500D03*
D349*
X0113560Y0176040D03*
D350*
X0132810Y0176740D03*
X0132810Y0177440D03*
X0132810Y0178140D03*
X0132810Y0178840D03*
X0132810Y0179540D03*
X0132810Y0180240D03*
X0090810Y0180240D03*
X0090810Y0179540D03*
X0090810Y0178840D03*
X0090810Y0178140D03*
X0090810Y0177440D03*
X0090810Y0176740D03*
D351*
X0097880Y0182340D03*
X0125740Y0182340D03*
D352*
X0111810Y0184160D03*
D353*
X0111810Y0184300D03*
D354*
X0111810Y0184440D03*
D355*
X0111810Y0184580D03*
D356*
X0111810Y0184720D03*
D357*
X0111810Y0184860D03*
D358*
X0111810Y0185000D03*
D359*
X0111810Y0185140D03*
D360*
X0111810Y0185700D03*
D361*
X0111810Y0185840D03*
D362*
X0111810Y0185980D03*
D363*
X0111810Y0186120D03*
D364*
X0111810Y0186260D03*
D365*
X0111810Y0186400D03*
D366*
X0111810Y0186540D03*
D367*
X0111810Y0186680D03*
D368*
X0111810Y0186820D03*
D369*
X0111810Y0186960D03*
D370*
X0111740Y0187380D03*
D371*
X0111810Y0187800D03*
D372*
X0025854Y0114340D02*
X0022626Y0114340D01*
X0022626Y0109340D02*
X0025854Y0109340D01*
D373*
X0027120Y0111834D03*
X0021320Y0111834D03*
D374*
X0209222Y0102063D03*
X0209258Y0091617D03*
X0209222Y0082063D03*
X0209258Y0071617D03*
X0209258Y0124117D03*
X0209222Y0134563D03*
X0209258Y0144117D03*
X0209222Y0154563D03*
M02*
