G75*
%MOIN*%
%OFA0B0*%
%FSLAX25Y25*%
%IPPOS*%
%LPD*%
%AMOC8*
5,1,8,0,0,1.08239X$1,22.5*
%
%ADD10R,0.06000X0.05000*%
%ADD11C,0.07000*%
%ADD12C,0.06200*%
%ADD13R,2.60000X0.35000*%
%ADD14OC8,0.06600*%
%ADD15OC8,0.06200*%
%ADD16R,0.07300X0.05600*%
%ADD17R,0.07200X0.00600*%
%ADD18R,0.07000X0.07000*%
%ADD19OC8,0.07000*%
%ADD20R,0.02362X0.03937*%
%ADD21R,0.06906X0.06118*%
%ADD22C,0.09850*%
D10*
X0199591Y0139500D03*
X0199591Y0146500D03*
X0199591Y0175500D03*
X0199591Y0182500D03*
D11*
X0196591Y0360031D03*
X0206591Y0360031D03*
X0216591Y0360031D03*
X0226591Y0360031D03*
X0236591Y0360031D03*
X0246591Y0360031D03*
X0256591Y0360031D03*
X0266591Y0360031D03*
X0276591Y0360031D03*
X0286591Y0360031D03*
X0296591Y0360031D03*
X0306591Y0360031D03*
X0316591Y0360031D03*
X0316591Y0380031D03*
X0306591Y0380031D03*
X0296591Y0380031D03*
X0286591Y0380031D03*
X0276591Y0380031D03*
X0266591Y0380031D03*
X0256591Y0380031D03*
X0246591Y0380031D03*
X0236591Y0380031D03*
X0226591Y0380031D03*
X0216591Y0380031D03*
X0206591Y0380031D03*
X0196591Y0380031D03*
X0186591Y0380031D03*
X0176591Y0380031D03*
X0166591Y0380031D03*
X0156591Y0380031D03*
X0146591Y0380031D03*
X0136591Y0380031D03*
X0126591Y0380031D03*
X0116591Y0380031D03*
X0106591Y0380031D03*
X0096591Y0380031D03*
X0086591Y0380031D03*
X0076591Y0380031D03*
X0076591Y0360031D03*
X0086591Y0360031D03*
X0096591Y0360031D03*
X0106591Y0360031D03*
X0116591Y0360031D03*
X0126591Y0360031D03*
X0136591Y0360031D03*
X0146591Y0360031D03*
X0156591Y0360031D03*
X0166591Y0360031D03*
X0176591Y0360031D03*
X0186591Y0360031D03*
D12*
X0169191Y0331000D02*
X0163991Y0331000D01*
X0163991Y0321000D02*
X0169191Y0321000D01*
X0169191Y0311000D02*
X0163991Y0311000D01*
X0163991Y0301000D02*
X0169191Y0301000D01*
X0169191Y0291000D02*
X0163991Y0291000D01*
X0163991Y0281000D02*
X0169191Y0281000D01*
X0169191Y0271000D02*
X0163991Y0271000D01*
X0163991Y0261000D02*
X0169191Y0261000D01*
X0169191Y0251000D02*
X0163991Y0251000D01*
X0163991Y0241000D02*
X0169191Y0241000D01*
X0139191Y0241000D02*
X0133991Y0241000D01*
X0133991Y0251000D02*
X0139191Y0251000D01*
X0139191Y0261000D02*
X0133991Y0261000D01*
X0133991Y0271000D02*
X0139191Y0271000D01*
X0139191Y0281000D02*
X0133991Y0281000D01*
X0133991Y0291000D02*
X0139191Y0291000D01*
X0139191Y0301000D02*
X0133991Y0301000D01*
X0133991Y0311000D02*
X0139191Y0311000D01*
X0139191Y0321000D02*
X0133991Y0321000D01*
X0133991Y0331000D02*
X0139191Y0331000D01*
X0074191Y0331000D02*
X0068991Y0331000D01*
X0068991Y0321000D02*
X0074191Y0321000D01*
X0074191Y0311000D02*
X0068991Y0311000D01*
X0068991Y0301000D02*
X0074191Y0301000D01*
X0074191Y0291000D02*
X0068991Y0291000D01*
X0068991Y0281000D02*
X0074191Y0281000D01*
X0074191Y0271000D02*
X0068991Y0271000D01*
X0068991Y0261000D02*
X0074191Y0261000D01*
X0074191Y0251000D02*
X0068991Y0251000D01*
X0068991Y0241000D02*
X0074191Y0241000D01*
X0044191Y0241000D02*
X0038991Y0241000D01*
X0038991Y0251000D02*
X0044191Y0251000D01*
X0044191Y0261000D02*
X0038991Y0261000D01*
X0038991Y0271000D02*
X0044191Y0271000D01*
X0044191Y0281000D02*
X0038991Y0281000D01*
X0038991Y0291000D02*
X0044191Y0291000D01*
X0044191Y0301000D02*
X0038991Y0301000D01*
X0038991Y0311000D02*
X0044191Y0311000D01*
X0044191Y0321000D02*
X0038991Y0321000D01*
X0038991Y0331000D02*
X0044191Y0331000D01*
X0228991Y0331000D02*
X0234191Y0331000D01*
X0234191Y0321000D02*
X0228991Y0321000D01*
X0228991Y0311000D02*
X0234191Y0311000D01*
X0234191Y0301000D02*
X0228991Y0301000D01*
X0228991Y0291000D02*
X0234191Y0291000D01*
X0234191Y0281000D02*
X0228991Y0281000D01*
X0228991Y0271000D02*
X0234191Y0271000D01*
X0234191Y0261000D02*
X0228991Y0261000D01*
X0228991Y0251000D02*
X0234191Y0251000D01*
X0234191Y0241000D02*
X0228991Y0241000D01*
X0258991Y0241000D02*
X0264191Y0241000D01*
X0264191Y0251000D02*
X0258991Y0251000D01*
X0258991Y0261000D02*
X0264191Y0261000D01*
X0264191Y0271000D02*
X0258991Y0271000D01*
X0258991Y0281000D02*
X0264191Y0281000D01*
X0264191Y0291000D02*
X0258991Y0291000D01*
X0258991Y0301000D02*
X0264191Y0301000D01*
X0264191Y0311000D02*
X0258991Y0311000D01*
X0258991Y0321000D02*
X0264191Y0321000D01*
X0264191Y0331000D02*
X0258991Y0331000D01*
X0323991Y0331000D02*
X0329191Y0331000D01*
X0329191Y0321000D02*
X0323991Y0321000D01*
X0323991Y0311000D02*
X0329191Y0311000D01*
X0329191Y0301000D02*
X0323991Y0301000D01*
X0323991Y0291000D02*
X0329191Y0291000D01*
X0329191Y0281000D02*
X0323991Y0281000D01*
X0323991Y0271000D02*
X0329191Y0271000D01*
X0329191Y0261000D02*
X0323991Y0261000D01*
X0323991Y0251000D02*
X0329191Y0251000D01*
X0329191Y0241000D02*
X0323991Y0241000D01*
X0353991Y0241000D02*
X0359191Y0241000D01*
X0359191Y0251000D02*
X0353991Y0251000D01*
X0353991Y0261000D02*
X0359191Y0261000D01*
X0359191Y0271000D02*
X0353991Y0271000D01*
X0353991Y0281000D02*
X0359191Y0281000D01*
X0359191Y0291000D02*
X0353991Y0291000D01*
X0353991Y0301000D02*
X0359191Y0301000D01*
X0359191Y0311000D02*
X0353991Y0311000D01*
X0353991Y0321000D02*
X0359191Y0321000D01*
X0359191Y0331000D02*
X0353991Y0331000D01*
D13*
X0216591Y0022500D03*
D14*
X0049091Y0182500D03*
X0049091Y0192500D03*
X0049091Y0202500D03*
X0049091Y0212500D03*
X0049091Y0222500D03*
X0039091Y0222500D03*
X0039091Y0212500D03*
X0039091Y0202500D03*
X0039091Y0192500D03*
X0039091Y0182500D03*
X0039091Y0349500D03*
X0039091Y0359500D03*
X0049091Y0359500D03*
X0049091Y0349500D03*
X0049091Y0369500D03*
X0049091Y0379500D03*
X0049091Y0389500D03*
X0039091Y0389500D03*
X0039091Y0379500D03*
X0039091Y0369500D03*
D15*
X0063591Y0083000D03*
X0093591Y0083000D03*
X0351732Y0369000D03*
X0361732Y0369000D03*
D16*
X0082841Y0090500D03*
X0082841Y0084500D03*
D17*
X0082841Y0087500D03*
D18*
X0049819Y0125256D03*
D19*
X0049819Y0135256D03*
X0039819Y0135256D03*
X0039819Y0125256D03*
X0039819Y0145256D03*
X0039819Y0155256D03*
X0049819Y0155256D03*
X0049819Y0145256D03*
X0049819Y0165256D03*
X0039819Y0165256D03*
X0384491Y0360100D03*
X0384491Y0377900D03*
D20*
X0326315Y0076900D03*
X0323165Y0076900D03*
X0320016Y0076900D03*
X0316866Y0076900D03*
X0316866Y0070600D03*
X0320016Y0070600D03*
X0323165Y0070600D03*
X0326315Y0070600D03*
X0286315Y0070600D03*
X0283165Y0070600D03*
X0280016Y0070600D03*
X0276866Y0070600D03*
X0276866Y0076900D03*
X0280016Y0076900D03*
X0283165Y0076900D03*
X0286315Y0076900D03*
X0236315Y0076900D03*
X0233165Y0076900D03*
X0230016Y0076900D03*
X0226866Y0076900D03*
X0226866Y0070600D03*
X0230016Y0070600D03*
X0233165Y0070600D03*
X0236315Y0070600D03*
X0196315Y0070600D03*
X0193165Y0070600D03*
X0190016Y0070600D03*
X0186866Y0070600D03*
X0186866Y0076900D03*
X0190016Y0076900D03*
X0193165Y0076900D03*
X0196315Y0076900D03*
X0156315Y0076900D03*
X0153165Y0076900D03*
X0150016Y0076900D03*
X0146866Y0076900D03*
X0146866Y0070600D03*
X0150016Y0070600D03*
X0153165Y0070600D03*
X0156315Y0070600D03*
D21*
X0199591Y0139260D03*
X0199591Y0146740D03*
X0199591Y0175260D03*
X0199591Y0182740D03*
D22*
X0374691Y0355200D03*
X0374691Y0382800D03*
M02*
