G75*
%MOIN*%
%OFA0B0*%
%FSLAX25Y25*%
%IPPOS*%
%LPD*%
%AMOC8*
5,1,8,0,0,1.08239X$1,22.5*
%
%ADD10R,0.06150X0.06150*%
%ADD11C,0.06150*%
%ADD12OC8,0.06600*%
%ADD13OC8,0.06200*%
D10*
X0033925Y0039025D03*
X0033925Y0048868D03*
X0033925Y0056742D03*
X0033925Y0066584D03*
X0033925Y0139025D03*
X0033925Y0148868D03*
X0033925Y0156742D03*
X0033925Y0166584D03*
X0033925Y0239025D03*
X0033925Y0248868D03*
X0033925Y0256742D03*
X0033925Y0266584D03*
X0189437Y0266584D03*
X0189437Y0256742D03*
X0189437Y0248868D03*
X0189437Y0239025D03*
X0189437Y0166584D03*
X0189437Y0156742D03*
X0189437Y0148868D03*
X0189437Y0139025D03*
X0189437Y0066584D03*
X0189437Y0056742D03*
X0189437Y0048868D03*
X0189437Y0039025D03*
D11*
X0226740Y0071840D03*
X0226740Y0081840D03*
X0226740Y0091840D03*
X0226740Y0101840D03*
X0226740Y0124340D03*
X0226740Y0134340D03*
X0226740Y0144340D03*
X0226740Y0154340D03*
D12*
X0251740Y0176840D03*
X0261740Y0176840D03*
X0261740Y0186840D03*
X0261740Y0196840D03*
X0261740Y0206840D03*
X0261740Y0216840D03*
X0251740Y0216840D03*
X0251740Y0206840D03*
X0251740Y0196840D03*
X0251740Y0186840D03*
X0251740Y0049340D03*
X0261740Y0049340D03*
X0261740Y0039340D03*
X0261740Y0029340D03*
X0261740Y0019340D03*
X0261740Y0009340D03*
X0251740Y0009340D03*
X0251740Y0019340D03*
X0251740Y0029340D03*
X0251740Y0039340D03*
D13*
X0029240Y0094340D03*
X0019240Y0094340D03*
M02*
