%
M48
M72
T01C0.0118
T02C0.0197
T03C0.0236
T04C0.0320
T05C0.0360
T06C0.0400
T07C0.0590
%
T01
X12059Y9200
X14359Y6800
X13159Y6200
X15659Y8800
X15359Y9000
X15059Y9200
X14759Y9400
X14759Y10000
X14759Y10500
X14759Y10900
X14759Y11300
X14759Y11700
X15259Y11700
X15759Y11700
X16259Y11700
X16559Y12000
X17459Y12000
X16059Y12900
X15659Y12900
X15259Y12900
X14859Y12900
X14459Y12900
X14059Y12900
X13659Y12900
X13259Y12900
X12859Y12900
X12459Y12900
X12059Y12900
X11659Y12900
X11259Y12900
X10859Y12900
X10459Y12900
X5659Y17700
X4459Y17100
X10559Y22300
X10559Y22700
X10559Y23100
X10559Y23500
X13359Y23500
X13359Y23100
X13359Y22700
X13359Y22300
X15459Y22300
X15459Y22700
X15659Y23100
X16059Y23500
X16359Y20300
X16559Y20000
X16759Y19700
X16859Y19300
X18659Y19800
X18659Y20200
X21359Y20200
X21359Y19800
X22459Y17200
X23659Y16700
X23659Y15700
X22459Y15700
X22459Y13500
X21559Y12300
X21559Y11900
X22559Y10400
X22259Y10100
X21959Y9800
X21659Y9500
X23059Y10300
X21659Y7400
X20959Y7400
X19659Y8900
X19359Y9200
X19059Y9500
X18759Y9800
X18259Y9200
X18059Y8400
X17559Y8100
X16959Y6600
X18859Y11900
X18859Y12300
X17959Y13500
X16159Y15500
X15959Y15800
X15659Y16100
X24959Y7500
X25159Y6400
X26759Y7400
X27359Y8300
X29159Y7800
X29459Y7300
X30559Y8700
X33359Y7400
X34459Y6900
X27259Y13100
X27259Y13700
X27259Y14300
X27259Y14900
X27759Y15736
X26559Y16736
X30389Y16736
X31459Y16500
X31459Y17100
X31459Y15900
X31459Y15300
X34759Y17600
X34759Y18600
X33659Y19200
X34259Y19900
X34559Y20200
X34859Y20500
X35159Y20800
X37959Y25700
X37959Y26500
X37959Y27700
X37959Y29600
X26359Y12000
T02
X4459Y6100
X5959Y7400
X5859Y10400
X6259Y12400
X6259Y14595
X9859Y12500
X9859Y10000
X9959Y7600
X10559Y7100
X11059Y6600
X11559Y6100
X12059Y5600
X13596Y14000
X18259Y14500
X18259Y17700
X21459Y17700
X21459Y14500
X13556Y18724
X10659Y21600
X8045Y19283
X7059Y22600
X3159Y24100
X2459Y20300
X11059Y27200
X11059Y30100
X17659Y34700
X18159Y34700
X20159Y39500
X21059Y39500
X28159Y30600
X28159Y26600
X32659Y22200
X35259Y22200
X38759Y22200
X37259Y27200
X37159Y29654
X35659Y36100
X38759Y39400
X33359Y16025
X33359Y8600
X38759Y6100
X3159Y30100
X2459Y37000
X759Y39400
X659Y9500
T03
X6943Y13591
X6943Y14280
X6943Y14969
X6943Y15657
X7730Y15657
X8419Y15657
X9206Y15657
X9206Y14969
X9206Y14280
X9206Y13591
X8419Y13591
X8419Y14280
X7730Y14280
X7730Y13591
X19259Y13900
X20659Y13900
X20659Y18300
X19259Y18300
X759Y34950
T04
X4159Y33100
X4159Y32100
X4159Y31100
X4159Y30100
X4159Y29100
X4159Y28100
X4159Y27100
X4159Y26100
X4159Y25100
X4159Y24100
X7159Y24100
X7159Y25100
X7159Y26100
X7159Y27100
X7159Y28100
X7159Y29100
X7159Y30100
X7159Y31100
X7159Y32100
X7159Y33100
X13659Y33100
X13659Y32100
X13659Y31100
X13659Y30100
X13659Y29100
X13659Y28100
X13659Y27100
X13659Y26100
X13659Y25100
X13659Y24100
X16659Y24100
X16659Y25100
X16659Y26100
X16659Y27100
X16659Y28100
X16659Y29100
X16659Y30100
X16659Y31100
X16659Y32100
X16659Y33100
X23159Y33100
X23159Y32100
X23159Y31100
X23159Y30100
X23159Y29100
X23159Y28100
X23159Y27100
X23159Y26100
X23159Y25100
X23159Y24100
X26159Y24100
X26159Y25100
X26159Y26100
X26159Y27100
X26159Y28100
X26159Y29100
X26159Y30100
X26159Y31100
X26159Y32100
X26159Y33100
X32659Y33100
X32659Y32100
X32659Y31100
X32659Y30100
X32659Y29100
X32659Y28100
X32659Y27100
X32659Y26100
X32659Y25100
X32659Y24100
X35659Y24100
X35659Y25100
X35659Y26100
X35659Y27100
X35659Y28100
X35659Y29100
X35659Y30100
X35659Y31100
X35659Y32100
X35659Y33100
X35173Y36900
X36173Y36900
X9359Y8300
X6359Y8300
T05
X4909Y18250
X4909Y19250
X3909Y19250
X3909Y18250
X3909Y20250
X3909Y21250
X3909Y22250
X4909Y22250
X4909Y21250
X4909Y20250
X4909Y34950
X4909Y35950
X3909Y35950
X3909Y34950
X3909Y36950
X3909Y37950
X3909Y38950
X4909Y38950
X4909Y37950
X4909Y36950
T06
X7659Y36003
X8659Y36003
X9659Y36003
X10659Y36003
X11659Y36003
X12659Y36003
X13659Y36003
X14659Y36003
X15659Y36003
X16659Y36003
X17659Y36003
X18659Y36003
X19659Y36003
X20659Y36003
X21659Y36003
X22659Y36003
X23659Y36003
X24659Y36003
X25659Y36003
X26659Y36003
X27659Y36003
X28659Y36003
X29659Y36003
X30659Y36003
X31659Y36003
X31659Y38003
X30659Y38003
X29659Y38003
X28659Y38003
X27659Y38003
X26659Y38003
X25659Y38003
X24659Y38003
X23659Y38003
X22659Y38003
X21659Y38003
X20659Y38003
X19659Y38003
X18659Y38003
X17659Y38003
X16659Y38003
X15659Y38003
X14659Y38003
X13659Y38003
X12659Y38003
X11659Y38003
X10659Y38003
X9659Y38003
X8659Y38003
X7659Y38003
X4982Y16526
X3982Y16526
X3982Y15526
X4982Y15526
X4982Y14526
X3982Y14526
X3982Y13526
X4982Y13526
X4982Y12526
X3982Y12526
X38449Y36010
X38449Y37790
T07
X37469Y38280
X37469Y35520
M30
