G75*
%MOIN*%
%OFA0B0*%
%FSLAX25Y25*%
%IPPOS*%
%LPD*%
%AMOC8*
5,1,8,0,0,1.08239X$1,22.5*
%
%ADD10R,0.05118X0.05906*%
%ADD11R,0.05150X0.05150*%
%ADD12C,0.05150*%
%ADD13OC8,0.05600*%
%ADD14R,0.10630X0.06299*%
%ADD15OC8,0.05200*%
%ADD16C,0.05000*%
%ADD17C,0.03000*%
%ADD18C,0.03962*%
%ADD19C,0.01600*%
%ADD20R,0.03962X0.03962*%
%ADD21C,0.02362*%
D10*
X0020500Y0111840D03*
X0027980Y0111840D03*
D11*
X0033925Y0139025D03*
X0033925Y0148868D03*
X0033925Y0156742D03*
X0033925Y0166584D03*
X0033925Y0239025D03*
X0033925Y0248868D03*
X0033925Y0256742D03*
X0033925Y0266584D03*
X0189437Y0266584D03*
X0189437Y0256742D03*
X0189437Y0248868D03*
X0189437Y0239025D03*
X0189437Y0166584D03*
X0189437Y0156742D03*
X0189437Y0148868D03*
X0189437Y0139025D03*
X0189437Y0066584D03*
X0189437Y0056742D03*
X0189437Y0048868D03*
X0189437Y0039025D03*
X0033925Y0039025D03*
X0033925Y0048868D03*
X0033925Y0056742D03*
X0033925Y0066584D03*
D12*
X0226740Y0071840D03*
X0226740Y0081840D03*
X0226740Y0091840D03*
X0226740Y0101840D03*
X0226740Y0124340D03*
X0226740Y0134340D03*
X0226740Y0144340D03*
X0226740Y0154340D03*
D13*
X0251740Y0176840D03*
X0261740Y0176840D03*
X0261740Y0186840D03*
X0261740Y0196840D03*
X0261740Y0206840D03*
X0261740Y0216840D03*
X0251740Y0216840D03*
X0251740Y0206840D03*
X0251740Y0196840D03*
X0251740Y0186840D03*
X0251740Y0049340D03*
X0261740Y0049340D03*
X0261740Y0039340D03*
X0261740Y0029340D03*
X0261740Y0019340D03*
X0261740Y0009340D03*
X0251740Y0009340D03*
X0251740Y0019340D03*
X0251740Y0029340D03*
X0251740Y0039340D03*
D14*
X0209240Y0071328D03*
X0209240Y0082352D03*
X0209240Y0091328D03*
X0209240Y0102352D03*
X0209240Y0123828D03*
X0209240Y0134852D03*
X0209240Y0143828D03*
X0209240Y0154852D03*
D15*
X0029240Y0094340D03*
X0019240Y0094340D03*
D16*
X0033925Y0039025D02*
X0138985Y0038985D01*
X0202312Y0102312D01*
X0209240Y0102352D01*
X0226288Y0102312D01*
X0238065Y0117882D02*
X0231175Y0124771D01*
X0227171Y0124771D01*
X0226740Y0124340D01*
X0209752Y0124340D01*
X0209240Y0123828D01*
X0208788Y0134300D02*
X0201800Y0134300D01*
X0174300Y0106800D01*
X0174240Y0086840D01*
X0174240Y0091840D01*
X0174300Y0094300D01*
X0189437Y0066584D02*
X0193890Y0066584D01*
X0201647Y0058827D01*
X0231175Y0058827D01*
X0238065Y0065716D01*
X0238065Y0117882D01*
X0232159Y0124771D02*
X0231175Y0124771D01*
X0232159Y0124771D02*
X0237080Y0129693D01*
X0237080Y0149378D01*
X0232118Y0154340D01*
X0226740Y0154340D01*
X0209752Y0154340D01*
X0209240Y0154852D01*
X0208687Y0154299D01*
X0205584Y0154299D01*
X0193299Y0166584D01*
X0189437Y0166584D01*
X0174300Y0171800D02*
X0174300Y0146213D01*
X0180978Y0139535D01*
X0188927Y0139535D01*
X0189437Y0139025D01*
X0209240Y0134852D02*
X0226288Y0134812D01*
X0226288Y0143788D02*
X0209240Y0143828D01*
X0226740Y0154340D02*
X0227238Y0154838D01*
X0227238Y0166110D01*
X0247968Y0186840D01*
X0251740Y0186840D01*
X0251740Y0196840D02*
X0199300Y0196800D01*
X0174300Y0171800D01*
X0197335Y0206840D02*
X0174088Y0230086D01*
X0174088Y0257646D01*
X0182947Y0266504D01*
X0189357Y0266504D01*
X0189437Y0266584D01*
X0189437Y0239025D02*
X0189300Y0238788D01*
X0189300Y0229300D01*
X0201800Y0216800D01*
X0251740Y0216840D01*
X0251740Y0206840D02*
X0197335Y0206840D01*
X0209240Y0071328D02*
X0226288Y0071288D01*
D17*
X0226740Y0071840D01*
X0226740Y0101840D02*
X0226288Y0102312D01*
X0226740Y0134340D02*
X0226288Y0134812D01*
X0226288Y0143788D02*
X0226740Y0144340D01*
X0209240Y0134852D02*
X0208788Y0134300D01*
D18*
X0174240Y0091840D03*
X0174240Y0086840D03*
D19*
X0274084Y0004937D02*
X0004396Y0004937D01*
X0004040Y0005293D02*
X0004040Y0300887D01*
X0005193Y0302040D01*
X0208287Y0302040D01*
X0209440Y0300887D01*
X0209440Y0229356D01*
X0213287Y0225509D01*
X0215193Y0225509D01*
X0273287Y0225509D01*
X0274440Y0224356D01*
X0274440Y0005293D01*
X0273287Y0004140D01*
X0005193Y0004140D01*
X0004040Y0005293D01*
X0004040Y0006536D02*
X0248322Y0006536D01*
X0247340Y0007517D02*
X0247340Y0011163D01*
X0249917Y0013740D01*
X0253563Y0013740D01*
X0256140Y0011163D01*
X0256140Y0007517D01*
X0253563Y0004940D01*
X0249917Y0004940D01*
X0247340Y0007517D01*
X0247340Y0008134D02*
X0004040Y0008134D01*
X0004040Y0009733D02*
X0247340Y0009733D01*
X0247509Y0011331D02*
X0004040Y0011331D01*
X0004040Y0012930D02*
X0249107Y0012930D01*
X0249420Y0013740D02*
X0246140Y0017020D01*
X0246140Y0019240D01*
X0251640Y0019240D01*
X0251640Y0019440D01*
X0251640Y0024940D01*
X0249420Y0024940D01*
X0246140Y0021660D01*
X0246140Y0019440D01*
X0251640Y0019440D01*
X0251840Y0019440D01*
X0251840Y0024940D01*
X0254060Y0024940D01*
X0256740Y0022260D01*
X0259420Y0024940D01*
X0261640Y0024940D01*
X0261640Y0019440D01*
X0261840Y0019440D01*
X0261840Y0024940D01*
X0264060Y0024940D01*
X0267340Y0021660D01*
X0267340Y0019440D01*
X0261840Y0019440D01*
X0261840Y0019240D01*
X0267340Y0019240D01*
X0267340Y0017020D01*
X0264060Y0013740D01*
X0261840Y0013740D01*
X0261840Y0019240D01*
X0261640Y0019240D01*
X0261640Y0013740D01*
X0259420Y0013740D01*
X0256740Y0016420D01*
X0254060Y0013740D01*
X0251840Y0013740D01*
X0251840Y0019240D01*
X0251840Y0019440D01*
X0256140Y0019440D01*
X0261640Y0019440D01*
X0261640Y0019240D01*
X0251840Y0019240D01*
X0251640Y0019240D01*
X0251640Y0013740D01*
X0249420Y0013740D01*
X0248632Y0014528D02*
X0004040Y0014528D01*
X0004040Y0016127D02*
X0247034Y0016127D01*
X0246140Y0017725D02*
X0004040Y0017725D01*
X0004040Y0019324D02*
X0251640Y0019324D01*
X0251840Y0019324D02*
X0261640Y0019324D01*
X0261840Y0019324D02*
X0274440Y0019324D01*
X0274440Y0020922D02*
X0267340Y0020922D01*
X0266479Y0022521D02*
X0274440Y0022521D01*
X0274440Y0024119D02*
X0264880Y0024119D01*
X0263563Y0024940D02*
X0266140Y0027517D01*
X0266140Y0031163D01*
X0263563Y0033740D01*
X0259917Y0033740D01*
X0257340Y0031163D01*
X0257340Y0027517D01*
X0259917Y0024940D01*
X0263563Y0024940D01*
X0264340Y0025718D02*
X0274440Y0025718D01*
X0274440Y0027316D02*
X0265939Y0027316D01*
X0266140Y0028915D02*
X0274440Y0028915D01*
X0274440Y0030513D02*
X0266140Y0030513D01*
X0265191Y0032112D02*
X0274440Y0032112D01*
X0274440Y0033710D02*
X0263592Y0033710D01*
X0264060Y0033740D02*
X0267340Y0037020D01*
X0267340Y0039240D01*
X0261840Y0039240D01*
X0261840Y0039440D01*
X0261640Y0039440D01*
X0261640Y0044940D01*
X0259420Y0044940D01*
X0256740Y0042260D01*
X0254060Y0044940D01*
X0251840Y0044940D01*
X0251840Y0039440D01*
X0251640Y0039440D01*
X0251640Y0044940D01*
X0249420Y0044940D01*
X0246140Y0041660D01*
X0246140Y0039440D01*
X0251640Y0039440D01*
X0251640Y0039240D01*
X0246140Y0039240D01*
X0246140Y0037020D01*
X0249420Y0033740D01*
X0251640Y0033740D01*
X0251640Y0039240D01*
X0251840Y0039240D01*
X0251840Y0039440D01*
X0257340Y0039440D01*
X0261640Y0039440D01*
X0261640Y0039240D01*
X0261840Y0039240D01*
X0261840Y0033740D01*
X0264060Y0033740D01*
X0265628Y0035309D02*
X0274440Y0035309D01*
X0274440Y0036907D02*
X0267227Y0036907D01*
X0267340Y0038506D02*
X0274440Y0038506D01*
X0274440Y0040104D02*
X0267340Y0040104D01*
X0267340Y0039440D02*
X0267340Y0041660D01*
X0264060Y0044940D01*
X0261840Y0044940D01*
X0261840Y0039440D01*
X0267340Y0039440D01*
X0267297Y0041703D02*
X0274440Y0041703D01*
X0274440Y0043301D02*
X0265698Y0043301D01*
X0264100Y0044900D02*
X0274440Y0044900D01*
X0274440Y0046498D02*
X0265121Y0046498D01*
X0266140Y0047517D02*
X0263563Y0044940D01*
X0259917Y0044940D01*
X0257340Y0047517D01*
X0257340Y0051163D01*
X0259917Y0053740D01*
X0263563Y0053740D01*
X0266140Y0051163D01*
X0266140Y0047517D01*
X0266140Y0048097D02*
X0274440Y0048097D01*
X0274440Y0049695D02*
X0266140Y0049695D01*
X0266009Y0051294D02*
X0274440Y0051294D01*
X0274440Y0052892D02*
X0264410Y0052892D01*
X0259070Y0052892D02*
X0254410Y0052892D01*
X0253563Y0053740D02*
X0249917Y0053740D01*
X0247340Y0051163D01*
X0247340Y0047517D01*
X0249917Y0044940D01*
X0253563Y0044940D01*
X0256140Y0047517D01*
X0256140Y0051163D01*
X0253563Y0053740D01*
X0256009Y0051294D02*
X0257471Y0051294D01*
X0257340Y0049695D02*
X0256140Y0049695D01*
X0256140Y0048097D02*
X0257340Y0048097D01*
X0258359Y0046498D02*
X0255121Y0046498D01*
X0254100Y0044900D02*
X0259380Y0044900D01*
X0261640Y0044900D02*
X0261840Y0044900D01*
X0261840Y0043301D02*
X0261640Y0043301D01*
X0261640Y0041703D02*
X0261840Y0041703D01*
X0261840Y0040104D02*
X0261640Y0040104D01*
X0261640Y0039240D02*
X0251840Y0039240D01*
X0251840Y0033740D01*
X0254060Y0033740D01*
X0256740Y0036420D01*
X0259420Y0033740D01*
X0261640Y0033740D01*
X0261640Y0039240D01*
X0261640Y0038506D02*
X0261840Y0038506D01*
X0261840Y0036907D02*
X0261640Y0036907D01*
X0261640Y0035309D02*
X0261840Y0035309D01*
X0259888Y0033710D02*
X0253592Y0033710D01*
X0253563Y0033740D02*
X0249917Y0033740D01*
X0247340Y0031163D01*
X0247340Y0027517D01*
X0249917Y0024940D01*
X0253563Y0024940D01*
X0256140Y0027517D01*
X0256140Y0031163D01*
X0253563Y0033740D01*
X0255191Y0032112D02*
X0258289Y0032112D01*
X0257340Y0030513D02*
X0256140Y0030513D01*
X0256140Y0028915D02*
X0257340Y0028915D01*
X0257541Y0027316D02*
X0255939Y0027316D01*
X0254340Y0025718D02*
X0259140Y0025718D01*
X0258600Y0024119D02*
X0254880Y0024119D01*
X0256479Y0022521D02*
X0257001Y0022521D01*
X0261640Y0022521D02*
X0261840Y0022521D01*
X0261840Y0024119D02*
X0261640Y0024119D01*
X0261640Y0020922D02*
X0261840Y0020922D01*
X0261840Y0017725D02*
X0261640Y0017725D01*
X0261640Y0016127D02*
X0261840Y0016127D01*
X0261840Y0014528D02*
X0261640Y0014528D01*
X0259917Y0013740D02*
X0257340Y0011163D01*
X0257340Y0007517D01*
X0259917Y0004940D01*
X0263563Y0004940D01*
X0266140Y0007517D01*
X0266140Y0011163D01*
X0263563Y0013740D01*
X0259917Y0013740D01*
X0259107Y0012930D02*
X0254373Y0012930D01*
X0254848Y0014528D02*
X0258632Y0014528D01*
X0257034Y0016127D02*
X0256446Y0016127D01*
X0251840Y0016127D02*
X0251640Y0016127D01*
X0251640Y0017725D02*
X0251840Y0017725D01*
X0251840Y0014528D02*
X0251640Y0014528D01*
X0255971Y0011331D02*
X0257509Y0011331D01*
X0257340Y0009733D02*
X0256140Y0009733D01*
X0256140Y0008134D02*
X0257340Y0008134D01*
X0258322Y0006536D02*
X0255158Y0006536D01*
X0264373Y0012930D02*
X0274440Y0012930D01*
X0274440Y0014528D02*
X0264848Y0014528D01*
X0266446Y0016127D02*
X0274440Y0016127D01*
X0274440Y0017725D02*
X0267340Y0017725D01*
X0265971Y0011331D02*
X0274440Y0011331D01*
X0274440Y0009733D02*
X0266140Y0009733D01*
X0266140Y0008134D02*
X0274440Y0008134D01*
X0274440Y0006536D02*
X0265158Y0006536D01*
X0251840Y0020922D02*
X0251640Y0020922D01*
X0251640Y0022521D02*
X0251840Y0022521D01*
X0251840Y0024119D02*
X0251640Y0024119D01*
X0249140Y0025718D02*
X0004040Y0025718D01*
X0004040Y0027316D02*
X0247541Y0027316D01*
X0247340Y0028915D02*
X0004040Y0028915D01*
X0004040Y0030513D02*
X0247340Y0030513D01*
X0248289Y0032112D02*
X0004040Y0032112D01*
X0004040Y0033710D02*
X0249888Y0033710D01*
X0251640Y0035309D02*
X0251840Y0035309D01*
X0251840Y0036907D02*
X0251640Y0036907D01*
X0251640Y0038506D02*
X0251840Y0038506D01*
X0251840Y0040104D02*
X0251640Y0040104D01*
X0251640Y0041703D02*
X0251840Y0041703D01*
X0251840Y0043301D02*
X0251640Y0043301D01*
X0251640Y0044900D02*
X0251840Y0044900D01*
X0249380Y0044900D02*
X0192881Y0044900D01*
X0192674Y0044693D02*
X0193612Y0045630D01*
X0193612Y0052105D01*
X0192912Y0052805D01*
X0193612Y0053504D01*
X0193612Y0059979D01*
X0192674Y0060916D01*
X0186199Y0060916D01*
X0185262Y0059979D01*
X0185262Y0053504D01*
X0185962Y0052805D01*
X0185262Y0052105D01*
X0185262Y0045630D01*
X0186199Y0044693D01*
X0192674Y0044693D01*
X0192674Y0043200D02*
X0186199Y0043200D01*
X0185262Y0042263D01*
X0185262Y0035787D01*
X0186199Y0034850D01*
X0192674Y0034850D01*
X0193612Y0035787D01*
X0193612Y0042263D01*
X0192674Y0043200D01*
X0193612Y0041703D02*
X0246183Y0041703D01*
X0246140Y0040104D02*
X0193612Y0040104D01*
X0193612Y0038506D02*
X0246140Y0038506D01*
X0246253Y0036907D02*
X0193612Y0036907D01*
X0193133Y0035309D02*
X0247852Y0035309D01*
X0255628Y0035309D02*
X0257852Y0035309D01*
X0257782Y0043301D02*
X0255698Y0043301D01*
X0248359Y0046498D02*
X0193612Y0046498D01*
X0193612Y0048097D02*
X0247340Y0048097D01*
X0247340Y0049695D02*
X0193612Y0049695D01*
X0193612Y0051294D02*
X0247471Y0051294D01*
X0249070Y0052892D02*
X0193000Y0052892D01*
X0193612Y0054491D02*
X0274440Y0054491D01*
X0274440Y0056089D02*
X0234236Y0056089D01*
X0233497Y0055351D02*
X0231991Y0054727D01*
X0200832Y0054727D01*
X0199325Y0055351D01*
X0198172Y0056504D01*
X0192266Y0062409D01*
X0186199Y0062409D01*
X0185262Y0063347D01*
X0185262Y0069822D01*
X0186199Y0070759D01*
X0192674Y0070759D01*
X0192749Y0070684D01*
X0194705Y0070684D01*
X0196212Y0070060D01*
X0203346Y0062927D01*
X0229477Y0062927D01*
X0233965Y0067415D01*
X0233965Y0116183D01*
X0229477Y0120671D01*
X0228793Y0120671D01*
X0227570Y0120165D01*
X0225910Y0120165D01*
X0225729Y0120240D01*
X0216155Y0120240D01*
X0216155Y0120016D01*
X0215218Y0119079D01*
X0203262Y0119079D01*
X0202325Y0120016D01*
X0202325Y0127641D01*
X0203262Y0128578D01*
X0215218Y0128578D01*
X0215355Y0128440D01*
X0225314Y0128440D01*
X0226356Y0128871D01*
X0230461Y0128871D01*
X0232980Y0131391D01*
X0232980Y0147680D01*
X0230420Y0150240D01*
X0227751Y0150240D01*
X0227570Y0150165D01*
X0225910Y0150165D01*
X0225729Y0150240D01*
X0215355Y0150240D01*
X0215218Y0150102D01*
X0203262Y0150102D01*
X0202325Y0151039D01*
X0202325Y0151760D01*
X0202109Y0151977D01*
X0191676Y0162409D01*
X0186199Y0162409D01*
X0185262Y0163347D01*
X0185262Y0169822D01*
X0186199Y0170759D01*
X0192674Y0170759D01*
X0192749Y0170684D01*
X0194115Y0170684D01*
X0195622Y0170060D01*
X0206080Y0159601D01*
X0215218Y0159601D01*
X0216155Y0158664D01*
X0216155Y0158440D01*
X0223138Y0158440D01*
X0223138Y0166926D01*
X0223762Y0168433D01*
X0224915Y0169586D01*
X0245645Y0190316D01*
X0247152Y0190940D01*
X0249617Y0190940D01*
X0249917Y0191240D01*
X0253563Y0191240D01*
X0253984Y0190818D01*
X0253984Y0192862D01*
X0253563Y0192440D01*
X0249917Y0192440D01*
X0249619Y0192738D01*
X0201000Y0192701D01*
X0178400Y0170102D01*
X0178400Y0147912D01*
X0182676Y0143635D01*
X0189742Y0143635D01*
X0190793Y0143200D01*
X0192674Y0143200D01*
X0193612Y0142263D01*
X0193612Y0135787D01*
X0192674Y0134850D01*
X0186199Y0134850D01*
X0185614Y0135435D01*
X0180163Y0135435D01*
X0178656Y0136059D01*
X0177502Y0137213D01*
X0170824Y0143891D01*
X0170200Y0145398D01*
X0170200Y0172616D01*
X0170824Y0174122D01*
X0171978Y0175276D01*
X0196395Y0199693D01*
X0196975Y0200274D01*
X0196976Y0200275D01*
X0196978Y0200276D01*
X0197730Y0200588D01*
X0198481Y0200899D01*
X0198483Y0200899D01*
X0198484Y0200900D01*
X0199304Y0200900D01*
X0249616Y0200938D01*
X0249917Y0201240D01*
X0253563Y0201240D01*
X0253984Y0200818D01*
X0253984Y0202862D01*
X0253563Y0202440D01*
X0249917Y0202440D01*
X0249617Y0202740D01*
X0196519Y0202740D01*
X0195012Y0203364D01*
X0171766Y0226611D01*
X0170613Y0227764D01*
X0169988Y0229271D01*
X0169988Y0258461D01*
X0170613Y0259968D01*
X0179471Y0268826D01*
X0180624Y0269980D01*
X0182131Y0270604D01*
X0186044Y0270604D01*
X0186199Y0270759D01*
X0192674Y0270759D01*
X0193612Y0269822D01*
X0193612Y0263347D01*
X0192674Y0262409D01*
X0190185Y0262409D01*
X0190172Y0262404D01*
X0184645Y0262404D01*
X0178188Y0255947D01*
X0178188Y0231785D01*
X0199033Y0210940D01*
X0249617Y0210940D01*
X0249917Y0211240D01*
X0253563Y0211240D01*
X0255181Y0209621D01*
X0255959Y0209621D01*
X0256413Y0209433D01*
X0259420Y0212440D01*
X0261640Y0212440D01*
X0261640Y0206940D01*
X0261840Y0206940D01*
X0261840Y0212440D01*
X0264060Y0212440D01*
X0267340Y0209160D01*
X0267340Y0206940D01*
X0261840Y0206940D01*
X0261840Y0206740D01*
X0267340Y0206740D01*
X0267340Y0204520D01*
X0264060Y0201240D01*
X0261840Y0201240D01*
X0261840Y0206740D01*
X0261640Y0206740D01*
X0261640Y0201240D01*
X0259547Y0201240D01*
X0259547Y0200869D01*
X0259917Y0201240D01*
X0263563Y0201240D01*
X0266140Y0198663D01*
X0266140Y0195017D01*
X0263563Y0192440D01*
X0259917Y0192440D01*
X0259547Y0192811D01*
X0259547Y0192440D01*
X0261640Y0192440D01*
X0261640Y0186940D01*
X0261840Y0186940D01*
X0261840Y0192440D01*
X0264060Y0192440D01*
X0267340Y0189160D01*
X0267340Y0186940D01*
X0261840Y0186940D01*
X0261840Y0186740D01*
X0267340Y0186740D01*
X0267340Y0184520D01*
X0264060Y0181240D01*
X0261840Y0181240D01*
X0261840Y0186740D01*
X0261640Y0186740D01*
X0261640Y0181240D01*
X0259420Y0181240D01*
X0256566Y0184094D01*
X0256334Y0183998D01*
X0255121Y0183998D01*
X0253563Y0182440D01*
X0249917Y0182440D01*
X0249642Y0182716D01*
X0231338Y0164412D01*
X0231338Y0158440D01*
X0232934Y0158440D01*
X0234441Y0157816D01*
X0239403Y0152854D01*
X0240556Y0151700D01*
X0241180Y0150193D01*
X0241180Y0128877D01*
X0240556Y0127370D01*
X0237465Y0124279D01*
X0241541Y0120204D01*
X0242165Y0118697D01*
X0242165Y0064901D01*
X0241541Y0063394D01*
X0240387Y0062241D01*
X0233497Y0055351D01*
X0235835Y0057688D02*
X0274440Y0057688D01*
X0274440Y0059286D02*
X0237433Y0059286D01*
X0239032Y0060885D02*
X0274440Y0060885D01*
X0274440Y0062483D02*
X0240630Y0062483D01*
X0241826Y0064082D02*
X0274440Y0064082D01*
X0274440Y0065680D02*
X0242165Y0065680D01*
X0242165Y0067279D02*
X0274440Y0067279D01*
X0274440Y0068877D02*
X0242165Y0068877D01*
X0242165Y0070476D02*
X0274440Y0070476D01*
X0274440Y0072074D02*
X0242165Y0072074D01*
X0242165Y0073673D02*
X0274440Y0073673D01*
X0274440Y0075272D02*
X0242165Y0075272D01*
X0242165Y0076870D02*
X0274440Y0076870D01*
X0274440Y0078469D02*
X0242165Y0078469D01*
X0242165Y0080067D02*
X0274440Y0080067D01*
X0274440Y0081666D02*
X0242165Y0081666D01*
X0242165Y0083264D02*
X0274440Y0083264D01*
X0274440Y0084863D02*
X0242165Y0084863D01*
X0242165Y0086461D02*
X0274440Y0086461D01*
X0274440Y0088060D02*
X0242165Y0088060D01*
X0242165Y0089658D02*
X0274440Y0089658D01*
X0274440Y0091257D02*
X0242165Y0091257D01*
X0242165Y0092855D02*
X0274440Y0092855D01*
X0274440Y0094454D02*
X0242165Y0094454D01*
X0242165Y0096052D02*
X0274440Y0096052D01*
X0274440Y0097651D02*
X0242165Y0097651D01*
X0242165Y0099249D02*
X0274440Y0099249D01*
X0274440Y0100848D02*
X0242165Y0100848D01*
X0242165Y0102446D02*
X0274440Y0102446D01*
X0274440Y0104045D02*
X0242165Y0104045D01*
X0242165Y0105643D02*
X0274440Y0105643D01*
X0274440Y0107242D02*
X0242165Y0107242D01*
X0242165Y0108840D02*
X0274440Y0108840D01*
X0274440Y0110439D02*
X0242165Y0110439D01*
X0242165Y0112037D02*
X0274440Y0112037D01*
X0274440Y0113636D02*
X0242165Y0113636D01*
X0242165Y0115234D02*
X0274440Y0115234D01*
X0274440Y0116833D02*
X0242165Y0116833D01*
X0242165Y0118431D02*
X0274440Y0118431D01*
X0274440Y0120030D02*
X0241613Y0120030D01*
X0240116Y0121628D02*
X0274440Y0121628D01*
X0274440Y0123227D02*
X0238518Y0123227D01*
X0238011Y0124825D02*
X0274440Y0124825D01*
X0274440Y0126424D02*
X0239610Y0126424D01*
X0240826Y0128022D02*
X0274440Y0128022D01*
X0274440Y0129621D02*
X0241180Y0129621D01*
X0241180Y0131219D02*
X0274440Y0131219D01*
X0274440Y0132818D02*
X0241180Y0132818D01*
X0241180Y0134416D02*
X0274440Y0134416D01*
X0274440Y0136015D02*
X0241180Y0136015D01*
X0241180Y0137613D02*
X0274440Y0137613D01*
X0274440Y0139212D02*
X0241180Y0139212D01*
X0241180Y0140810D02*
X0274440Y0140810D01*
X0274440Y0142409D02*
X0241180Y0142409D01*
X0241180Y0144008D02*
X0274440Y0144008D01*
X0274440Y0145606D02*
X0241180Y0145606D01*
X0241180Y0147205D02*
X0274440Y0147205D01*
X0274440Y0148803D02*
X0241180Y0148803D01*
X0241094Y0150402D02*
X0274440Y0150402D01*
X0274440Y0152000D02*
X0240256Y0152000D01*
X0238658Y0153599D02*
X0274440Y0153599D01*
X0274440Y0155197D02*
X0237059Y0155197D01*
X0235461Y0156796D02*
X0274440Y0156796D01*
X0274440Y0158394D02*
X0233045Y0158394D01*
X0231338Y0159993D02*
X0274440Y0159993D01*
X0274440Y0161591D02*
X0231338Y0161591D01*
X0231338Y0163190D02*
X0274440Y0163190D01*
X0274440Y0164788D02*
X0231714Y0164788D01*
X0233313Y0166387D02*
X0274440Y0166387D01*
X0274440Y0167985D02*
X0234911Y0167985D01*
X0236510Y0169584D02*
X0274440Y0169584D01*
X0274440Y0171182D02*
X0238108Y0171182D01*
X0239707Y0172781D02*
X0249577Y0172781D01*
X0249917Y0172440D02*
X0253563Y0172440D01*
X0256140Y0175017D01*
X0256140Y0178663D01*
X0253563Y0181240D01*
X0249917Y0181240D01*
X0247340Y0178663D01*
X0247340Y0175017D01*
X0249917Y0172440D01*
X0247978Y0174379D02*
X0241305Y0174379D01*
X0242904Y0175978D02*
X0247340Y0175978D01*
X0247340Y0177576D02*
X0244502Y0177576D01*
X0246101Y0179175D02*
X0247852Y0179175D01*
X0247699Y0180773D02*
X0249451Y0180773D01*
X0249298Y0182372D02*
X0258289Y0182372D01*
X0259451Y0180773D02*
X0254029Y0180773D01*
X0255628Y0179175D02*
X0257852Y0179175D01*
X0257340Y0178663D02*
X0257340Y0175017D01*
X0259917Y0172440D01*
X0263563Y0172440D01*
X0266140Y0175017D01*
X0266140Y0178663D01*
X0263563Y0181240D01*
X0259917Y0181240D01*
X0257340Y0178663D01*
X0257340Y0177576D02*
X0256140Y0177576D01*
X0256140Y0175978D02*
X0257340Y0175978D01*
X0257978Y0174379D02*
X0255502Y0174379D01*
X0253903Y0172781D02*
X0259577Y0172781D01*
X0263903Y0172781D02*
X0274440Y0172781D01*
X0274440Y0174379D02*
X0265502Y0174379D01*
X0266140Y0175978D02*
X0274440Y0175978D01*
X0274440Y0177576D02*
X0266140Y0177576D01*
X0265628Y0179175D02*
X0274440Y0179175D01*
X0274440Y0180773D02*
X0264029Y0180773D01*
X0265191Y0182372D02*
X0274440Y0182372D01*
X0274440Y0183970D02*
X0266790Y0183970D01*
X0267340Y0185569D02*
X0274440Y0185569D01*
X0274440Y0187167D02*
X0267340Y0187167D01*
X0267340Y0188766D02*
X0274440Y0188766D01*
X0274440Y0190364D02*
X0266135Y0190364D01*
X0264537Y0191963D02*
X0274440Y0191963D01*
X0274440Y0193561D02*
X0264684Y0193561D01*
X0266140Y0195160D02*
X0274440Y0195160D01*
X0274440Y0196758D02*
X0266140Y0196758D01*
X0266140Y0198357D02*
X0274440Y0198357D01*
X0274440Y0199955D02*
X0264847Y0199955D01*
X0264373Y0201554D02*
X0274440Y0201554D01*
X0274440Y0203152D02*
X0265972Y0203152D01*
X0267340Y0204751D02*
X0274440Y0204751D01*
X0274440Y0206349D02*
X0267340Y0206349D01*
X0267340Y0207948D02*
X0274440Y0207948D01*
X0274440Y0209546D02*
X0266953Y0209546D01*
X0265355Y0211145D02*
X0274440Y0211145D01*
X0274440Y0212743D02*
X0263866Y0212743D01*
X0263563Y0212440D02*
X0266140Y0215017D01*
X0266140Y0218663D01*
X0263563Y0221240D01*
X0259917Y0221240D01*
X0257340Y0218663D01*
X0257340Y0215017D01*
X0259917Y0212440D01*
X0263563Y0212440D01*
X0261840Y0211145D02*
X0261640Y0211145D01*
X0261640Y0209546D02*
X0261840Y0209546D01*
X0261840Y0207948D02*
X0261640Y0207948D01*
X0261640Y0206349D02*
X0261840Y0206349D01*
X0261840Y0204751D02*
X0261640Y0204751D01*
X0261640Y0203152D02*
X0261840Y0203152D01*
X0261840Y0201554D02*
X0261640Y0201554D01*
X0253984Y0201554D02*
X0004040Y0201554D01*
X0004040Y0203152D02*
X0195524Y0203152D01*
X0193626Y0204751D02*
X0004040Y0204751D01*
X0004040Y0206349D02*
X0192027Y0206349D01*
X0190429Y0207948D02*
X0004040Y0207948D01*
X0004040Y0209546D02*
X0188830Y0209546D01*
X0187232Y0211145D02*
X0004040Y0211145D01*
X0004040Y0212743D02*
X0185633Y0212743D01*
X0184035Y0214342D02*
X0004040Y0214342D01*
X0004040Y0215941D02*
X0182436Y0215941D01*
X0180837Y0217539D02*
X0004040Y0217539D01*
X0004040Y0219138D02*
X0179239Y0219138D01*
X0177640Y0220736D02*
X0004040Y0220736D01*
X0004040Y0222335D02*
X0176042Y0222335D01*
X0174443Y0223933D02*
X0004040Y0223933D01*
X0004040Y0225532D02*
X0172845Y0225532D01*
X0171246Y0227130D02*
X0004040Y0227130D01*
X0004040Y0228729D02*
X0170213Y0228729D01*
X0169988Y0230327D02*
X0004040Y0230327D01*
X0004040Y0231926D02*
X0169988Y0231926D01*
X0169988Y0233524D02*
X0004040Y0233524D01*
X0004040Y0235123D02*
X0030415Y0235123D01*
X0030687Y0234850D02*
X0029750Y0235787D01*
X0029750Y0242263D01*
X0030687Y0243200D01*
X0037163Y0243200D01*
X0038100Y0242263D01*
X0038100Y0235787D01*
X0037163Y0234850D01*
X0030687Y0234850D01*
X0029750Y0236721D02*
X0004040Y0236721D01*
X0004040Y0238320D02*
X0029750Y0238320D01*
X0029750Y0239918D02*
X0004040Y0239918D01*
X0004040Y0241517D02*
X0029750Y0241517D01*
X0030603Y0243115D02*
X0004040Y0243115D01*
X0004040Y0244714D02*
X0030667Y0244714D01*
X0030687Y0244693D02*
X0037163Y0244693D01*
X0038100Y0245630D01*
X0038100Y0252105D01*
X0037400Y0252805D01*
X0038100Y0253504D01*
X0038100Y0259979D01*
X0037163Y0260916D01*
X0030687Y0260916D01*
X0029750Y0259979D01*
X0029750Y0253504D01*
X0030450Y0252805D01*
X0029750Y0252105D01*
X0029750Y0245630D01*
X0030687Y0244693D01*
X0029750Y0246312D02*
X0004040Y0246312D01*
X0004040Y0247911D02*
X0029750Y0247911D01*
X0029750Y0249509D02*
X0004040Y0249509D01*
X0004040Y0251108D02*
X0029750Y0251108D01*
X0030351Y0252706D02*
X0004040Y0252706D01*
X0004040Y0254305D02*
X0029750Y0254305D01*
X0029750Y0255903D02*
X0004040Y0255903D01*
X0004040Y0257502D02*
X0029750Y0257502D01*
X0029750Y0259100D02*
X0004040Y0259100D01*
X0004040Y0260699D02*
X0030470Y0260699D01*
X0030533Y0261317D02*
X0031074Y0261209D01*
X0033925Y0261209D01*
X0033925Y0266584D01*
X0033925Y0266584D01*
X0033925Y0261209D01*
X0036776Y0261209D01*
X0037317Y0261317D01*
X0037826Y0261528D01*
X0038285Y0261834D01*
X0038675Y0262224D01*
X0038981Y0262683D01*
X0039192Y0263193D01*
X0039300Y0263734D01*
X0039300Y0266584D01*
X0033925Y0266584D01*
X0028550Y0266584D01*
X0028550Y0263734D01*
X0028658Y0263193D01*
X0028869Y0262683D01*
X0029175Y0262224D01*
X0029565Y0261834D01*
X0030024Y0261528D01*
X0030533Y0261317D01*
X0029127Y0262297D02*
X0004040Y0262297D01*
X0004040Y0263896D02*
X0028550Y0263896D01*
X0028550Y0265494D02*
X0004040Y0265494D01*
X0004040Y0267093D02*
X0028550Y0267093D01*
X0028550Y0266584D02*
X0033925Y0266584D01*
X0033925Y0266584D01*
X0033925Y0266584D01*
X0039300Y0266584D01*
X0039300Y0269435D01*
X0039192Y0269976D01*
X0038981Y0270485D01*
X0038675Y0270944D01*
X0038285Y0271334D01*
X0037826Y0271640D01*
X0037317Y0271851D01*
X0036776Y0271959D01*
X0033925Y0271959D01*
X0031074Y0271959D01*
X0030533Y0271851D01*
X0030024Y0271640D01*
X0029565Y0271334D01*
X0029175Y0270944D01*
X0028869Y0270485D01*
X0028658Y0269976D01*
X0028550Y0269435D01*
X0028550Y0266584D01*
X0028550Y0268691D02*
X0004040Y0268691D01*
X0004040Y0270290D02*
X0028788Y0270290D01*
X0030720Y0271888D02*
X0004040Y0271888D01*
X0004040Y0273487D02*
X0209440Y0273487D01*
X0209440Y0275085D02*
X0004040Y0275085D01*
X0004040Y0276684D02*
X0209440Y0276684D01*
X0209440Y0278282D02*
X0004040Y0278282D01*
X0004040Y0279881D02*
X0209440Y0279881D01*
X0209440Y0281479D02*
X0004040Y0281479D01*
X0004040Y0283078D02*
X0209440Y0283078D01*
X0209440Y0284677D02*
X0004040Y0284677D01*
X0004040Y0286275D02*
X0209440Y0286275D01*
X0209440Y0287874D02*
X0004040Y0287874D01*
X0004040Y0289472D02*
X0209440Y0289472D01*
X0209440Y0291071D02*
X0004040Y0291071D01*
X0004040Y0292669D02*
X0209440Y0292669D01*
X0209440Y0294268D02*
X0004040Y0294268D01*
X0004040Y0295866D02*
X0209440Y0295866D01*
X0209440Y0297465D02*
X0004040Y0297465D01*
X0004040Y0299063D02*
X0209440Y0299063D01*
X0209440Y0300662D02*
X0004040Y0300662D01*
X0033925Y0271959D02*
X0033925Y0266584D01*
X0033925Y0266584D01*
X0033925Y0271959D01*
X0033925Y0271888D02*
X0033925Y0271888D01*
X0033925Y0270290D02*
X0033925Y0270290D01*
X0033925Y0268691D02*
X0033925Y0268691D01*
X0033925Y0267093D02*
X0033925Y0267093D01*
X0033925Y0265494D02*
X0033925Y0265494D01*
X0033925Y0263896D02*
X0033925Y0263896D01*
X0033925Y0262297D02*
X0033925Y0262297D01*
X0037380Y0260699D02*
X0171343Y0260699D01*
X0170253Y0259100D02*
X0038100Y0259100D01*
X0038100Y0257502D02*
X0169988Y0257502D01*
X0169988Y0255903D02*
X0038100Y0255903D01*
X0038100Y0254305D02*
X0169988Y0254305D01*
X0169988Y0252706D02*
X0037499Y0252706D01*
X0038100Y0251108D02*
X0169988Y0251108D01*
X0169988Y0249509D02*
X0038100Y0249509D01*
X0038100Y0247911D02*
X0169988Y0247911D01*
X0169988Y0246312D02*
X0038100Y0246312D01*
X0037184Y0244714D02*
X0169988Y0244714D01*
X0169988Y0243115D02*
X0037247Y0243115D01*
X0038100Y0241517D02*
X0169988Y0241517D01*
X0169988Y0239918D02*
X0038100Y0239918D01*
X0038100Y0238320D02*
X0169988Y0238320D01*
X0169988Y0236721D02*
X0038100Y0236721D01*
X0037435Y0235123D02*
X0169988Y0235123D01*
X0178188Y0235123D02*
X0185200Y0235123D01*
X0185200Y0236721D02*
X0178188Y0236721D01*
X0178188Y0238320D02*
X0185181Y0238320D01*
X0185200Y0238249D02*
X0185200Y0228484D01*
X0185824Y0226978D01*
X0186978Y0225824D01*
X0198325Y0214476D01*
X0198326Y0214475D01*
X0198903Y0213899D01*
X0199478Y0213324D01*
X0199479Y0213324D01*
X0199480Y0213322D01*
X0200233Y0213011D01*
X0200984Y0212700D01*
X0200986Y0212700D01*
X0200988Y0212699D01*
X0201802Y0212700D01*
X0202616Y0212700D01*
X0202617Y0212701D01*
X0249619Y0212738D01*
X0249917Y0212440D01*
X0253563Y0212440D01*
X0256140Y0215017D01*
X0256140Y0218663D01*
X0253563Y0221240D01*
X0249917Y0221240D01*
X0249616Y0220938D01*
X0203497Y0220901D01*
X0193400Y0230998D01*
X0193400Y0235576D01*
X0193612Y0235787D01*
X0193612Y0242263D01*
X0192674Y0243200D01*
X0186199Y0243200D01*
X0185262Y0242263D01*
X0185262Y0239754D01*
X0185200Y0239604D01*
X0185200Y0239058D01*
X0185129Y0238516D01*
X0185200Y0238249D01*
X0185262Y0239918D02*
X0178188Y0239918D01*
X0178188Y0241517D02*
X0185262Y0241517D01*
X0186115Y0243115D02*
X0178188Y0243115D01*
X0178188Y0244714D02*
X0186178Y0244714D01*
X0186199Y0244693D02*
X0192674Y0244693D01*
X0193612Y0245630D01*
X0193612Y0252105D01*
X0192912Y0252805D01*
X0193612Y0253504D01*
X0193612Y0259979D01*
X0192674Y0260916D01*
X0186199Y0260916D01*
X0185262Y0259979D01*
X0185262Y0253504D01*
X0185962Y0252805D01*
X0185262Y0252105D01*
X0185262Y0245630D01*
X0186199Y0244693D01*
X0185262Y0246312D02*
X0178188Y0246312D01*
X0178188Y0247911D02*
X0185262Y0247911D01*
X0185262Y0249509D02*
X0178188Y0249509D01*
X0178188Y0251108D02*
X0185262Y0251108D01*
X0185863Y0252706D02*
X0178188Y0252706D01*
X0178188Y0254305D02*
X0185262Y0254305D01*
X0185262Y0255903D02*
X0178188Y0255903D01*
X0179743Y0257502D02*
X0185262Y0257502D01*
X0185262Y0259100D02*
X0181341Y0259100D01*
X0182940Y0260699D02*
X0185982Y0260699D01*
X0184538Y0262297D02*
X0209440Y0262297D01*
X0209440Y0260699D02*
X0192892Y0260699D01*
X0193612Y0259100D02*
X0209440Y0259100D01*
X0209440Y0257502D02*
X0193612Y0257502D01*
X0193612Y0255903D02*
X0209440Y0255903D01*
X0209440Y0254305D02*
X0193612Y0254305D01*
X0193010Y0252706D02*
X0209440Y0252706D01*
X0209440Y0251108D02*
X0193612Y0251108D01*
X0193612Y0249509D02*
X0209440Y0249509D01*
X0209440Y0247911D02*
X0193612Y0247911D01*
X0193612Y0246312D02*
X0209440Y0246312D01*
X0209440Y0244714D02*
X0192695Y0244714D01*
X0192759Y0243115D02*
X0209440Y0243115D01*
X0209440Y0241517D02*
X0193612Y0241517D01*
X0193612Y0239918D02*
X0209440Y0239918D01*
X0209440Y0238320D02*
X0193612Y0238320D01*
X0193612Y0236721D02*
X0209440Y0236721D01*
X0209440Y0235123D02*
X0193400Y0235123D01*
X0193400Y0233524D02*
X0209440Y0233524D01*
X0209440Y0231926D02*
X0193400Y0231926D01*
X0194071Y0230327D02*
X0209440Y0230327D01*
X0210067Y0228729D02*
X0195670Y0228729D01*
X0197268Y0227130D02*
X0211666Y0227130D01*
X0213264Y0225532D02*
X0198867Y0225532D01*
X0200465Y0223933D02*
X0274440Y0223933D01*
X0274440Y0222335D02*
X0202064Y0222335D01*
X0196861Y0215941D02*
X0194033Y0215941D01*
X0195263Y0217539D02*
X0192434Y0217539D01*
X0193664Y0219138D02*
X0190836Y0219138D01*
X0192066Y0220736D02*
X0189237Y0220736D01*
X0190467Y0222335D02*
X0187638Y0222335D01*
X0188869Y0223933D02*
X0186040Y0223933D01*
X0187270Y0225532D02*
X0184441Y0225532D01*
X0185761Y0227130D02*
X0182843Y0227130D01*
X0181244Y0228729D02*
X0185200Y0228729D01*
X0185200Y0230327D02*
X0179646Y0230327D01*
X0178188Y0231926D02*
X0185200Y0231926D01*
X0185200Y0233524D02*
X0178188Y0233524D01*
X0195631Y0214342D02*
X0198459Y0214342D01*
X0197230Y0212743D02*
X0200879Y0212743D01*
X0198828Y0211145D02*
X0249822Y0211145D01*
X0253658Y0211145D02*
X0258125Y0211145D01*
X0259614Y0212743D02*
X0253866Y0212743D01*
X0255465Y0214342D02*
X0258015Y0214342D01*
X0257340Y0215941D02*
X0256140Y0215941D01*
X0256140Y0217539D02*
X0257340Y0217539D01*
X0257815Y0219138D02*
X0255665Y0219138D01*
X0254066Y0220736D02*
X0259414Y0220736D01*
X0264066Y0220736D02*
X0274440Y0220736D01*
X0274440Y0219138D02*
X0265665Y0219138D01*
X0266140Y0217539D02*
X0274440Y0217539D01*
X0274440Y0215941D02*
X0266140Y0215941D01*
X0265465Y0214342D02*
X0274440Y0214342D01*
X0256527Y0209546D02*
X0256139Y0209546D01*
X0253984Y0191963D02*
X0200261Y0191963D01*
X0198663Y0190364D02*
X0245763Y0190364D01*
X0244095Y0188766D02*
X0197064Y0188766D01*
X0195466Y0187167D02*
X0242497Y0187167D01*
X0240898Y0185569D02*
X0193867Y0185569D01*
X0192269Y0183970D02*
X0239300Y0183970D01*
X0237701Y0182372D02*
X0190670Y0182372D01*
X0189072Y0180773D02*
X0236103Y0180773D01*
X0234504Y0179175D02*
X0187473Y0179175D01*
X0185874Y0177576D02*
X0232906Y0177576D01*
X0231307Y0175978D02*
X0184276Y0175978D01*
X0182677Y0174379D02*
X0229709Y0174379D01*
X0228110Y0172781D02*
X0181079Y0172781D01*
X0179480Y0171182D02*
X0226512Y0171182D01*
X0224913Y0169584D02*
X0196098Y0169584D01*
X0197697Y0167985D02*
X0223577Y0167985D01*
X0223138Y0166387D02*
X0199295Y0166387D01*
X0200894Y0164788D02*
X0223138Y0164788D01*
X0223138Y0163190D02*
X0202492Y0163190D01*
X0204091Y0161591D02*
X0223138Y0161591D01*
X0223138Y0159993D02*
X0205689Y0159993D01*
X0200487Y0153599D02*
X0193612Y0153599D01*
X0193612Y0153504D02*
X0192912Y0152805D01*
X0193612Y0152105D01*
X0193612Y0145630D01*
X0192674Y0144693D01*
X0186199Y0144693D01*
X0185262Y0145630D01*
X0185262Y0152105D01*
X0185962Y0152805D01*
X0185262Y0153504D01*
X0185262Y0159979D01*
X0186199Y0160916D01*
X0192674Y0160916D01*
X0193612Y0159979D01*
X0193612Y0153504D01*
X0193612Y0152000D02*
X0202085Y0152000D01*
X0202963Y0150402D02*
X0193612Y0150402D01*
X0193612Y0148803D02*
X0231857Y0148803D01*
X0232980Y0147205D02*
X0229780Y0147205D01*
X0230279Y0146705D02*
X0229105Y0147879D01*
X0227570Y0148515D01*
X0225910Y0148515D01*
X0224407Y0147893D01*
X0215883Y0147913D01*
X0215218Y0148578D01*
X0203262Y0148578D01*
X0202325Y0147641D01*
X0202325Y0140016D01*
X0203001Y0139340D01*
X0202325Y0138664D01*
X0202325Y0138400D01*
X0200984Y0138400D01*
X0199478Y0137776D01*
X0171406Y0109704D01*
X0170831Y0109133D01*
X0170829Y0109127D01*
X0170824Y0109122D01*
X0170514Y0108374D01*
X0170202Y0107628D01*
X0170202Y0107621D01*
X0170200Y0107616D01*
X0170200Y0106805D01*
X0170158Y0092698D01*
X0170140Y0092656D01*
X0170140Y0091890D01*
X0170121Y0091125D01*
X0170140Y0091076D01*
X0170140Y0086847D01*
X0170138Y0086037D01*
X0170140Y0086031D01*
X0170140Y0086024D01*
X0170450Y0085277D01*
X0170757Y0084528D01*
X0170762Y0084523D01*
X0170764Y0084518D01*
X0171336Y0083946D01*
X0171907Y0083371D01*
X0171913Y0083369D01*
X0171918Y0083364D01*
X0172666Y0083054D01*
X0173412Y0082742D01*
X0173419Y0082742D01*
X0173424Y0082740D01*
X0174234Y0082740D01*
X0175043Y0082738D01*
X0175049Y0082740D01*
X0175056Y0082740D01*
X0175803Y0083050D01*
X0176552Y0083357D01*
X0176557Y0083362D01*
X0176562Y0083364D01*
X0177134Y0083936D01*
X0177709Y0084507D01*
X0177711Y0084513D01*
X0177716Y0084518D01*
X0178026Y0085266D01*
X0178338Y0086012D01*
X0178338Y0086019D01*
X0178340Y0086024D01*
X0178340Y0086835D01*
X0178357Y0092487D01*
X0178419Y0095015D01*
X0178365Y0095154D01*
X0178395Y0105097D01*
X0203400Y0130102D01*
X0215218Y0130102D01*
X0215852Y0130736D01*
X0224580Y0130716D01*
X0225910Y0130165D01*
X0227570Y0130165D01*
X0229105Y0130801D01*
X0230279Y0131975D01*
X0230915Y0133510D01*
X0230915Y0135170D01*
X0230279Y0136705D01*
X0229105Y0137879D01*
X0228960Y0137939D01*
X0228619Y0138282D01*
X0227113Y0138910D01*
X0215883Y0138936D01*
X0215479Y0139340D01*
X0215852Y0139713D01*
X0227094Y0139686D01*
X0228602Y0140307D01*
X0229094Y0140796D01*
X0229105Y0140801D01*
X0230279Y0141975D01*
X0230915Y0143510D01*
X0230915Y0145170D01*
X0230279Y0146705D01*
X0230734Y0145606D02*
X0232980Y0145606D01*
X0232980Y0144008D02*
X0230915Y0144008D01*
X0230459Y0142409D02*
X0232980Y0142409D01*
X0232980Y0140810D02*
X0229115Y0140810D01*
X0232980Y0139212D02*
X0215607Y0139212D01*
X0202873Y0139212D02*
X0193612Y0139212D01*
X0193612Y0140810D02*
X0202325Y0140810D01*
X0202325Y0142409D02*
X0193465Y0142409D01*
X0193588Y0145606D02*
X0202325Y0145606D01*
X0202325Y0144008D02*
X0182304Y0144008D01*
X0180706Y0145606D02*
X0185286Y0145606D01*
X0185262Y0147205D02*
X0179107Y0147205D01*
X0178400Y0148803D02*
X0185262Y0148803D01*
X0185262Y0150402D02*
X0178400Y0150402D01*
X0178400Y0152000D02*
X0185262Y0152000D01*
X0185262Y0153599D02*
X0178400Y0153599D01*
X0178400Y0155197D02*
X0185262Y0155197D01*
X0185262Y0156796D02*
X0178400Y0156796D01*
X0178400Y0158394D02*
X0185262Y0158394D01*
X0185276Y0159993D02*
X0178400Y0159993D01*
X0178400Y0161591D02*
X0192494Y0161591D01*
X0193598Y0159993D02*
X0194093Y0159993D01*
X0193612Y0158394D02*
X0195691Y0158394D01*
X0197290Y0156796D02*
X0193612Y0156796D01*
X0193612Y0155197D02*
X0198888Y0155197D01*
X0202325Y0147205D02*
X0193612Y0147205D01*
X0193612Y0137613D02*
X0199315Y0137613D01*
X0197717Y0136015D02*
X0193612Y0136015D01*
X0196118Y0134416D02*
X0004040Y0134416D01*
X0004040Y0132818D02*
X0194520Y0132818D01*
X0192921Y0131219D02*
X0004040Y0131219D01*
X0004040Y0129621D02*
X0191323Y0129621D01*
X0189724Y0128022D02*
X0004040Y0128022D01*
X0004040Y0126424D02*
X0188126Y0126424D01*
X0186527Y0124825D02*
X0004040Y0124825D01*
X0004040Y0123227D02*
X0184929Y0123227D01*
X0183330Y0121628D02*
X0004040Y0121628D01*
X0004040Y0120030D02*
X0181732Y0120030D01*
X0180133Y0118431D02*
X0004040Y0118431D01*
X0004040Y0116833D02*
X0016021Y0116833D01*
X0016156Y0116968D02*
X0015766Y0116578D01*
X0015459Y0116119D01*
X0015248Y0115609D01*
X0015141Y0115069D01*
X0015141Y0112320D01*
X0020020Y0112320D01*
X0020020Y0117593D01*
X0017665Y0117593D01*
X0017124Y0117485D01*
X0016614Y0117274D01*
X0016156Y0116968D01*
X0015174Y0115234D02*
X0004040Y0115234D01*
X0004040Y0113636D02*
X0015141Y0113636D01*
X0015141Y0111360D02*
X0015141Y0108611D01*
X0015248Y0108070D01*
X0015459Y0107561D01*
X0015766Y0107102D01*
X0016156Y0106712D01*
X0016614Y0106406D01*
X0017124Y0106195D01*
X0017665Y0106087D01*
X0020020Y0106087D01*
X0020020Y0111360D01*
X0020979Y0111360D01*
X0020979Y0106087D01*
X0023335Y0106087D01*
X0023876Y0106195D01*
X0024385Y0106406D01*
X0024844Y0106712D01*
X0025234Y0107102D01*
X0025357Y0107287D01*
X0025597Y0107287D01*
X0025636Y0096676D01*
X0025040Y0096080D01*
X0025040Y0092600D01*
X0027500Y0090140D01*
X0030980Y0090140D01*
X0033440Y0092600D01*
X0033440Y0096080D01*
X0030980Y0098540D01*
X0030429Y0098540D01*
X0030397Y0107287D01*
X0031202Y0107287D01*
X0032139Y0108224D01*
X0032139Y0115455D01*
X0031202Y0116393D01*
X0025357Y0116393D01*
X0025234Y0116578D01*
X0024844Y0116968D01*
X0024385Y0117274D01*
X0023876Y0117485D01*
X0023335Y0117593D01*
X0020979Y0117593D01*
X0020979Y0112320D01*
X0020020Y0112320D01*
X0020020Y0111360D01*
X0015141Y0111360D01*
X0015141Y0110439D02*
X0004040Y0110439D01*
X0004040Y0112037D02*
X0020020Y0112037D01*
X0020020Y0110439D02*
X0020979Y0110439D01*
X0020979Y0108840D02*
X0020020Y0108840D01*
X0020020Y0107242D02*
X0020979Y0107242D01*
X0025327Y0107242D02*
X0025597Y0107242D01*
X0025603Y0105643D02*
X0004040Y0105643D01*
X0004040Y0104045D02*
X0025609Y0104045D01*
X0025615Y0102446D02*
X0004040Y0102446D01*
X0004040Y0100848D02*
X0025621Y0100848D01*
X0025627Y0099249D02*
X0004040Y0099249D01*
X0004040Y0097651D02*
X0016611Y0097651D01*
X0017500Y0098540D02*
X0015040Y0096080D01*
X0015040Y0092600D01*
X0017500Y0090140D01*
X0020980Y0090140D01*
X0023440Y0092600D01*
X0023440Y0096080D01*
X0020980Y0098540D01*
X0017500Y0098540D01*
X0015040Y0096052D02*
X0004040Y0096052D01*
X0004040Y0094454D02*
X0015040Y0094454D01*
X0015040Y0092855D02*
X0004040Y0092855D01*
X0004040Y0091257D02*
X0016384Y0091257D01*
X0022096Y0091257D02*
X0026384Y0091257D01*
X0025040Y0092855D02*
X0023440Y0092855D01*
X0023440Y0094454D02*
X0025040Y0094454D01*
X0025040Y0096052D02*
X0023440Y0096052D01*
X0021869Y0097651D02*
X0025632Y0097651D01*
X0028040Y0095560D02*
X0029240Y0094340D01*
X0028040Y0095560D02*
X0027980Y0111840D01*
X0032139Y0112037D02*
X0173739Y0112037D01*
X0172141Y0110439D02*
X0032139Y0110439D01*
X0032139Y0108840D02*
X0170707Y0108840D01*
X0170200Y0107242D02*
X0030397Y0107242D01*
X0030403Y0105643D02*
X0170197Y0105643D01*
X0170192Y0104045D02*
X0030409Y0104045D01*
X0030415Y0102446D02*
X0170187Y0102446D01*
X0170182Y0100848D02*
X0030421Y0100848D01*
X0030427Y0099249D02*
X0170177Y0099249D01*
X0170172Y0097651D02*
X0031869Y0097651D01*
X0033440Y0096052D02*
X0170168Y0096052D01*
X0170163Y0094454D02*
X0033440Y0094454D01*
X0033440Y0092855D02*
X0170158Y0092855D01*
X0170125Y0091257D02*
X0032096Y0091257D01*
X0031074Y0071959D02*
X0030533Y0071851D01*
X0030024Y0071640D01*
X0029565Y0071334D01*
X0029175Y0070944D01*
X0028869Y0070485D01*
X0028658Y0069976D01*
X0028550Y0069435D01*
X0028550Y0066584D01*
X0028550Y0063734D01*
X0028658Y0063193D01*
X0028869Y0062683D01*
X0029175Y0062224D01*
X0029565Y0061834D01*
X0030024Y0061528D01*
X0030533Y0061317D01*
X0031074Y0061209D01*
X0033925Y0061209D01*
X0033925Y0066584D01*
X0033925Y0066584D01*
X0033925Y0061209D01*
X0036776Y0061209D01*
X0037317Y0061317D01*
X0037826Y0061528D01*
X0038285Y0061834D01*
X0038675Y0062224D01*
X0038981Y0062683D01*
X0039192Y0063193D01*
X0039300Y0063734D01*
X0039300Y0066584D01*
X0033925Y0066584D01*
X0028550Y0066584D01*
X0033925Y0066584D01*
X0033925Y0066584D01*
X0033925Y0066584D01*
X0039300Y0066584D01*
X0039300Y0069435D01*
X0039192Y0069976D01*
X0038981Y0070485D01*
X0038675Y0070944D01*
X0038285Y0071334D01*
X0037826Y0071640D01*
X0037317Y0071851D01*
X0036776Y0071959D01*
X0033925Y0071959D01*
X0031074Y0071959D01*
X0028865Y0070476D02*
X0004040Y0070476D01*
X0004040Y0072074D02*
X0166276Y0072074D01*
X0164678Y0070476D02*
X0038985Y0070476D01*
X0039300Y0068877D02*
X0163079Y0068877D01*
X0161481Y0067279D02*
X0039300Y0067279D01*
X0039300Y0065680D02*
X0159882Y0065680D01*
X0158284Y0064082D02*
X0039300Y0064082D01*
X0038848Y0062483D02*
X0156685Y0062483D01*
X0155087Y0060885D02*
X0037194Y0060885D01*
X0037163Y0060916D02*
X0030687Y0060916D01*
X0029750Y0059979D01*
X0029750Y0053504D01*
X0030450Y0052805D01*
X0029750Y0052105D01*
X0029750Y0045630D01*
X0030687Y0044693D01*
X0037163Y0044693D01*
X0038100Y0045630D01*
X0038100Y0052105D01*
X0037400Y0052805D01*
X0038100Y0053504D01*
X0038100Y0059979D01*
X0037163Y0060916D01*
X0038100Y0059286D02*
X0153488Y0059286D01*
X0151890Y0057688D02*
X0038100Y0057688D01*
X0038100Y0056089D02*
X0150291Y0056089D01*
X0148693Y0054491D02*
X0038100Y0054491D01*
X0037488Y0052892D02*
X0147094Y0052892D01*
X0145496Y0051294D02*
X0038100Y0051294D01*
X0038100Y0049695D02*
X0143897Y0049695D01*
X0142299Y0048097D02*
X0038100Y0048097D01*
X0038100Y0046498D02*
X0140700Y0046498D01*
X0139102Y0044900D02*
X0037370Y0044900D01*
X0037163Y0043200D02*
X0037239Y0043124D01*
X0137287Y0043086D01*
X0199404Y0105202D01*
X0199969Y0105774D01*
X0199981Y0105779D01*
X0199989Y0105788D01*
X0200731Y0106095D01*
X0201473Y0106407D01*
X0201485Y0106407D01*
X0201496Y0106412D01*
X0202300Y0106412D01*
X0202574Y0106413D01*
X0203262Y0107101D01*
X0215218Y0107101D01*
X0215883Y0106436D01*
X0227113Y0106410D01*
X0228619Y0105782D01*
X0228960Y0105439D01*
X0229105Y0105379D01*
X0230279Y0104205D01*
X0230915Y0102670D01*
X0230915Y0101010D01*
X0230279Y0099475D01*
X0229105Y0098301D01*
X0227570Y0097665D01*
X0225910Y0097665D01*
X0224580Y0098216D01*
X0215852Y0098236D01*
X0215218Y0097602D01*
X0203400Y0097602D01*
X0202870Y0097071D01*
X0203108Y0097170D01*
X0203649Y0097278D01*
X0208465Y0097278D01*
X0208465Y0092103D01*
X0208465Y0090553D01*
X0210015Y0090553D01*
X0210015Y0085379D01*
X0210015Y0083127D01*
X0208465Y0083127D01*
X0208465Y0090553D01*
X0201125Y0090553D01*
X0201125Y0087903D01*
X0201233Y0087362D01*
X0201444Y0086852D01*
X0201452Y0086840D01*
X0201444Y0086828D01*
X0201233Y0086318D01*
X0201125Y0085777D01*
X0201125Y0083127D01*
X0208465Y0083127D01*
X0208465Y0081577D01*
X0201125Y0081577D01*
X0201125Y0078926D01*
X0201233Y0078385D01*
X0201444Y0077876D01*
X0201750Y0077417D01*
X0202140Y0077027D01*
X0202599Y0076721D01*
X0203108Y0076510D01*
X0203649Y0076402D01*
X0208465Y0076402D01*
X0208465Y0081577D01*
X0210015Y0081577D01*
X0210015Y0083127D01*
X0217355Y0083127D01*
X0217355Y0085777D01*
X0217247Y0086318D01*
X0217036Y0086828D01*
X0217028Y0086840D01*
X0217036Y0086852D01*
X0217247Y0087362D01*
X0217355Y0087903D01*
X0217355Y0090553D01*
X0210015Y0090553D01*
X0210015Y0092103D01*
X0217355Y0092103D01*
X0217355Y0094754D01*
X0217247Y0095295D01*
X0217036Y0095804D01*
X0216730Y0096263D01*
X0216340Y0096653D01*
X0215881Y0096959D01*
X0215372Y0097170D01*
X0214831Y0097278D01*
X0210015Y0097278D01*
X0210015Y0092103D01*
X0208465Y0092103D01*
X0201125Y0092103D01*
X0201125Y0094754D01*
X0201233Y0095295D01*
X0201332Y0095533D01*
X0142460Y0036662D01*
X0142460Y0036661D01*
X0141875Y0036077D01*
X0141307Y0035509D01*
X0141307Y0035509D01*
X0141306Y0035508D01*
X0140552Y0035196D01*
X0139801Y0034885D01*
X0139800Y0034885D01*
X0139799Y0034885D01*
X0138992Y0034885D01*
X0138169Y0034885D01*
X0138169Y0034885D01*
X0037236Y0034924D01*
X0037163Y0034850D01*
X0030687Y0034850D01*
X0029750Y0035787D01*
X0029750Y0042263D01*
X0030687Y0043200D01*
X0037163Y0043200D01*
X0030480Y0044900D02*
X0004040Y0044900D01*
X0004040Y0046498D02*
X0029750Y0046498D01*
X0029750Y0048097D02*
X0004040Y0048097D01*
X0004040Y0049695D02*
X0029750Y0049695D01*
X0029750Y0051294D02*
X0004040Y0051294D01*
X0004040Y0052892D02*
X0030362Y0052892D01*
X0029750Y0054491D02*
X0004040Y0054491D01*
X0004040Y0056089D02*
X0029750Y0056089D01*
X0029750Y0057688D02*
X0004040Y0057688D01*
X0004040Y0059286D02*
X0029750Y0059286D01*
X0030656Y0060885D02*
X0004040Y0060885D01*
X0004040Y0062483D02*
X0029002Y0062483D01*
X0028550Y0064082D02*
X0004040Y0064082D01*
X0004040Y0065680D02*
X0028550Y0065680D01*
X0028550Y0067279D02*
X0004040Y0067279D01*
X0004040Y0068877D02*
X0028550Y0068877D01*
X0033925Y0068877D02*
X0033925Y0068877D01*
X0033925Y0067279D02*
X0033925Y0067279D01*
X0033925Y0066584D02*
X0033925Y0071959D01*
X0033925Y0066584D01*
X0033925Y0066584D01*
X0033925Y0065680D02*
X0033925Y0065680D01*
X0033925Y0064082D02*
X0033925Y0064082D01*
X0033925Y0062483D02*
X0033925Y0062483D01*
X0033925Y0070476D02*
X0033925Y0070476D01*
X0029750Y0041703D02*
X0004040Y0041703D01*
X0004040Y0043301D02*
X0137503Y0043301D01*
X0142705Y0036907D02*
X0185262Y0036907D01*
X0185262Y0038506D02*
X0144304Y0038506D01*
X0145903Y0040104D02*
X0185262Y0040104D01*
X0185262Y0041703D02*
X0147501Y0041703D01*
X0149100Y0043301D02*
X0247782Y0043301D01*
X0230632Y0064082D02*
X0202190Y0064082D01*
X0200592Y0065680D02*
X0232231Y0065680D01*
X0233829Y0067279D02*
X0227319Y0067279D01*
X0227094Y0067186D02*
X0228602Y0067807D01*
X0229094Y0068296D01*
X0229105Y0068301D01*
X0230279Y0069475D01*
X0230915Y0071010D01*
X0230915Y0072670D01*
X0230279Y0074205D01*
X0229105Y0075379D01*
X0227570Y0076015D01*
X0225910Y0076015D01*
X0224407Y0075393D01*
X0215883Y0075413D01*
X0215218Y0076078D01*
X0203262Y0076078D01*
X0202325Y0075141D01*
X0202325Y0067516D01*
X0203262Y0066579D01*
X0215218Y0066579D01*
X0215852Y0067213D01*
X0227094Y0067186D01*
X0229682Y0068877D02*
X0233965Y0068877D01*
X0233965Y0070476D02*
X0230694Y0070476D01*
X0230915Y0072074D02*
X0233965Y0072074D01*
X0233965Y0073673D02*
X0230500Y0073673D01*
X0229213Y0075272D02*
X0233965Y0075272D01*
X0233965Y0076870D02*
X0228825Y0076870D01*
X0228803Y0076859D02*
X0229557Y0077243D01*
X0230241Y0077740D01*
X0230840Y0078339D01*
X0231337Y0079023D01*
X0231721Y0079777D01*
X0231982Y0080581D01*
X0232115Y0081417D01*
X0232115Y0081840D01*
X0232115Y0082263D01*
X0231982Y0083099D01*
X0231721Y0083903D01*
X0231337Y0084657D01*
X0230840Y0085341D01*
X0230241Y0085940D01*
X0229557Y0086437D01*
X0228803Y0086821D01*
X0228745Y0086840D01*
X0228803Y0086859D01*
X0229557Y0087243D01*
X0230241Y0087740D01*
X0230840Y0088339D01*
X0231337Y0089023D01*
X0231721Y0089777D01*
X0231982Y0090581D01*
X0232115Y0091417D01*
X0232115Y0091840D01*
X0232115Y0092263D01*
X0231982Y0093099D01*
X0231721Y0093903D01*
X0231337Y0094657D01*
X0230840Y0095341D01*
X0230241Y0095940D01*
X0229557Y0096437D01*
X0228803Y0096821D01*
X0227999Y0097082D01*
X0227163Y0097215D01*
X0226740Y0097215D01*
X0226740Y0091840D01*
X0232115Y0091840D01*
X0226740Y0091840D01*
X0226740Y0091840D01*
X0226740Y0091840D01*
X0226740Y0091840D01*
X0221365Y0091840D01*
X0221365Y0091417D01*
X0221498Y0090581D01*
X0221759Y0089777D01*
X0222143Y0089023D01*
X0222640Y0088339D01*
X0223239Y0087740D01*
X0223923Y0087243D01*
X0224677Y0086859D01*
X0224735Y0086840D01*
X0224677Y0086821D01*
X0223923Y0086437D01*
X0223239Y0085940D01*
X0222640Y0085341D01*
X0222143Y0084657D01*
X0221759Y0083903D01*
X0221498Y0083099D01*
X0221365Y0082263D01*
X0221365Y0081840D01*
X0221365Y0081417D01*
X0221498Y0080581D01*
X0221759Y0079777D01*
X0222143Y0079023D01*
X0222640Y0078339D01*
X0223239Y0077740D01*
X0223923Y0077243D01*
X0224677Y0076859D01*
X0225481Y0076598D01*
X0226317Y0076465D01*
X0226740Y0076465D01*
X0227163Y0076465D01*
X0227999Y0076598D01*
X0228803Y0076859D01*
X0226740Y0076870D02*
X0226740Y0076870D01*
X0226740Y0076465D02*
X0226740Y0081840D01*
X0232115Y0081840D01*
X0226740Y0081840D01*
X0226740Y0081840D01*
X0226740Y0081840D01*
X0226740Y0086465D01*
X0226740Y0091840D01*
X0226740Y0097215D01*
X0226317Y0097215D01*
X0225481Y0097082D01*
X0224677Y0096821D01*
X0223923Y0096437D01*
X0223239Y0095940D01*
X0222640Y0095341D01*
X0222143Y0094657D01*
X0221759Y0093903D01*
X0221498Y0093099D01*
X0221365Y0092263D01*
X0221365Y0091840D01*
X0226740Y0091840D01*
X0226740Y0091840D01*
X0226740Y0081840D01*
X0226740Y0081840D01*
X0226740Y0081840D01*
X0221365Y0081840D01*
X0226740Y0081840D01*
X0226740Y0076465D01*
X0226740Y0078469D02*
X0226740Y0078469D01*
X0226740Y0080067D02*
X0226740Y0080067D01*
X0226740Y0081666D02*
X0226740Y0081666D01*
X0226740Y0083264D02*
X0226740Y0083264D01*
X0226740Y0084863D02*
X0226740Y0084863D01*
X0226740Y0086461D02*
X0226740Y0086461D01*
X0226740Y0088060D02*
X0226740Y0088060D01*
X0226740Y0089658D02*
X0226740Y0089658D01*
X0226740Y0091257D02*
X0226740Y0091257D01*
X0226740Y0092855D02*
X0226740Y0092855D01*
X0226740Y0094454D02*
X0226740Y0094454D01*
X0226740Y0096052D02*
X0226740Y0096052D01*
X0223393Y0096052D02*
X0216871Y0096052D01*
X0217355Y0094454D02*
X0222039Y0094454D01*
X0221459Y0092855D02*
X0217355Y0092855D01*
X0217355Y0089658D02*
X0221819Y0089658D01*
X0221391Y0091257D02*
X0210015Y0091257D01*
X0208465Y0091257D02*
X0197055Y0091257D01*
X0198653Y0092855D02*
X0201125Y0092855D01*
X0201125Y0094454D02*
X0200252Y0094454D01*
X0201125Y0089658D02*
X0195456Y0089658D01*
X0193858Y0088060D02*
X0201125Y0088060D01*
X0201292Y0086461D02*
X0192259Y0086461D01*
X0190661Y0084863D02*
X0201125Y0084863D01*
X0201125Y0083264D02*
X0189062Y0083264D01*
X0187464Y0081666D02*
X0208465Y0081666D01*
X0210015Y0081666D02*
X0221365Y0081666D01*
X0221551Y0083264D02*
X0217355Y0083264D01*
X0217355Y0084863D02*
X0222292Y0084863D01*
X0223970Y0086461D02*
X0217188Y0086461D01*
X0217355Y0088060D02*
X0222919Y0088060D01*
X0229510Y0086461D02*
X0233965Y0086461D01*
X0233965Y0084863D02*
X0231188Y0084863D01*
X0231929Y0083264D02*
X0233965Y0083264D01*
X0233965Y0081666D02*
X0232115Y0081666D01*
X0231815Y0080067D02*
X0233965Y0080067D01*
X0233965Y0078469D02*
X0230934Y0078469D01*
X0224655Y0076870D02*
X0216104Y0076870D01*
X0215881Y0076721D02*
X0216340Y0077027D01*
X0216730Y0077417D01*
X0217036Y0077876D01*
X0217247Y0078385D01*
X0217355Y0078926D01*
X0217355Y0081577D01*
X0210015Y0081577D01*
X0210015Y0076402D01*
X0214831Y0076402D01*
X0215372Y0076510D01*
X0215881Y0076721D01*
X0217264Y0078469D02*
X0222546Y0078469D01*
X0221665Y0080067D02*
X0217355Y0080067D01*
X0210015Y0080067D02*
X0208465Y0080067D01*
X0208465Y0078469D02*
X0210015Y0078469D01*
X0210015Y0076870D02*
X0208465Y0076870D01*
X0202376Y0076870D02*
X0182668Y0076870D01*
X0181070Y0075272D02*
X0202456Y0075272D01*
X0202325Y0073673D02*
X0179471Y0073673D01*
X0177873Y0072074D02*
X0202325Y0072074D01*
X0202325Y0070476D02*
X0195208Y0070476D01*
X0197395Y0068877D02*
X0202325Y0068877D01*
X0202562Y0067279D02*
X0198993Y0067279D01*
X0193791Y0060885D02*
X0192706Y0060885D01*
X0193612Y0059286D02*
X0195389Y0059286D01*
X0196988Y0057688D02*
X0193612Y0057688D01*
X0193612Y0056089D02*
X0198586Y0056089D01*
X0185874Y0052892D02*
X0158691Y0052892D01*
X0160289Y0054491D02*
X0185262Y0054491D01*
X0185262Y0056089D02*
X0161888Y0056089D01*
X0163486Y0057688D02*
X0185262Y0057688D01*
X0185262Y0059286D02*
X0165085Y0059286D01*
X0166683Y0060885D02*
X0186168Y0060885D01*
X0186125Y0062483D02*
X0168282Y0062483D01*
X0169880Y0064082D02*
X0185262Y0064082D01*
X0185262Y0065680D02*
X0171479Y0065680D01*
X0173077Y0067279D02*
X0185262Y0067279D01*
X0185262Y0068877D02*
X0174676Y0068877D01*
X0176274Y0070476D02*
X0185916Y0070476D01*
X0184267Y0078469D02*
X0201216Y0078469D01*
X0201125Y0080067D02*
X0185865Y0080067D01*
X0180663Y0086461D02*
X0178340Y0086461D01*
X0178344Y0088060D02*
X0182261Y0088060D01*
X0183860Y0089658D02*
X0178348Y0089658D01*
X0178353Y0091257D02*
X0185458Y0091257D01*
X0187057Y0092855D02*
X0178366Y0092855D01*
X0178405Y0094454D02*
X0188655Y0094454D01*
X0190254Y0096052D02*
X0178368Y0096052D01*
X0178372Y0097651D02*
X0191852Y0097651D01*
X0193451Y0099249D02*
X0178377Y0099249D01*
X0178382Y0100848D02*
X0195049Y0100848D01*
X0196648Y0102446D02*
X0178387Y0102446D01*
X0178392Y0104045D02*
X0198246Y0104045D01*
X0199840Y0105643D02*
X0178941Y0105643D01*
X0180540Y0107242D02*
X0233965Y0107242D01*
X0233965Y0108840D02*
X0182139Y0108840D01*
X0183737Y0110439D02*
X0233965Y0110439D01*
X0233965Y0112037D02*
X0185336Y0112037D01*
X0186934Y0113636D02*
X0233965Y0113636D01*
X0233965Y0115234D02*
X0188533Y0115234D01*
X0190131Y0116833D02*
X0233315Y0116833D01*
X0231717Y0118431D02*
X0191730Y0118431D01*
X0193328Y0120030D02*
X0202325Y0120030D01*
X0202325Y0121628D02*
X0194927Y0121628D01*
X0196525Y0123227D02*
X0202325Y0123227D01*
X0202325Y0124825D02*
X0198124Y0124825D01*
X0199722Y0126424D02*
X0202325Y0126424D01*
X0202707Y0128022D02*
X0201321Y0128022D01*
X0202919Y0129621D02*
X0231210Y0129621D01*
X0232809Y0131219D02*
X0229523Y0131219D01*
X0230628Y0132818D02*
X0232980Y0132818D01*
X0232980Y0134416D02*
X0230915Y0134416D01*
X0230565Y0136015D02*
X0232980Y0136015D01*
X0232980Y0137613D02*
X0229371Y0137613D01*
X0230118Y0120030D02*
X0216155Y0120030D01*
X0228757Y0105643D02*
X0233965Y0105643D01*
X0233965Y0104045D02*
X0230346Y0104045D01*
X0230915Y0102446D02*
X0233965Y0102446D01*
X0233965Y0100848D02*
X0230848Y0100848D01*
X0230053Y0099249D02*
X0233965Y0099249D01*
X0233965Y0097651D02*
X0215266Y0097651D01*
X0210015Y0096052D02*
X0208465Y0096052D01*
X0208465Y0094454D02*
X0210015Y0094454D01*
X0210015Y0092855D02*
X0208465Y0092855D01*
X0208465Y0089658D02*
X0210015Y0089658D01*
X0210015Y0088060D02*
X0208465Y0088060D01*
X0208465Y0086461D02*
X0210015Y0086461D01*
X0210015Y0084863D02*
X0208465Y0084863D01*
X0208465Y0083264D02*
X0210015Y0083264D01*
X0230561Y0088060D02*
X0233965Y0088060D01*
X0233965Y0089658D02*
X0231661Y0089658D01*
X0232089Y0091257D02*
X0233965Y0091257D01*
X0233965Y0092855D02*
X0232021Y0092855D01*
X0231441Y0094454D02*
X0233965Y0094454D01*
X0233965Y0096052D02*
X0230087Y0096052D01*
X0185262Y0051294D02*
X0157092Y0051294D01*
X0155494Y0049695D02*
X0185262Y0049695D01*
X0185262Y0048097D02*
X0153895Y0048097D01*
X0152297Y0046498D02*
X0185262Y0046498D01*
X0185992Y0044900D02*
X0150698Y0044900D01*
X0140824Y0035309D02*
X0185741Y0035309D01*
X0167875Y0073673D02*
X0004040Y0073673D01*
X0004040Y0075272D02*
X0169473Y0075272D01*
X0171072Y0076870D02*
X0004040Y0076870D01*
X0004040Y0078469D02*
X0172670Y0078469D01*
X0174269Y0080067D02*
X0004040Y0080067D01*
X0004040Y0081666D02*
X0175867Y0081666D01*
X0176325Y0083264D02*
X0177466Y0083264D01*
X0177859Y0084863D02*
X0179064Y0084863D01*
X0172159Y0083264D02*
X0004040Y0083264D01*
X0004040Y0084863D02*
X0170620Y0084863D01*
X0170139Y0086461D02*
X0004040Y0086461D01*
X0004040Y0088060D02*
X0170140Y0088060D01*
X0170140Y0089658D02*
X0004040Y0089658D01*
X0004040Y0107242D02*
X0015673Y0107242D01*
X0015141Y0108840D02*
X0004040Y0108840D01*
X0020020Y0113636D02*
X0020979Y0113636D01*
X0020979Y0115234D02*
X0020020Y0115234D01*
X0020020Y0116833D02*
X0020979Y0116833D01*
X0024979Y0116833D02*
X0178535Y0116833D01*
X0176936Y0115234D02*
X0032139Y0115234D01*
X0032139Y0113636D02*
X0175338Y0113636D01*
X0178763Y0136015D02*
X0038100Y0136015D01*
X0038100Y0135787D02*
X0037163Y0134850D01*
X0030687Y0134850D01*
X0029750Y0135787D01*
X0029750Y0142263D01*
X0030687Y0143200D01*
X0037163Y0143200D01*
X0038100Y0142263D01*
X0038100Y0135787D01*
X0038100Y0137613D02*
X0177102Y0137613D01*
X0175503Y0139212D02*
X0038100Y0139212D01*
X0038100Y0140810D02*
X0173905Y0140810D01*
X0172306Y0142409D02*
X0037953Y0142409D01*
X0037163Y0144693D02*
X0038100Y0145630D01*
X0038100Y0152105D01*
X0037400Y0152805D01*
X0038100Y0153504D01*
X0038100Y0159979D01*
X0037163Y0160916D01*
X0030687Y0160916D01*
X0029750Y0159979D01*
X0029750Y0153504D01*
X0030450Y0152805D01*
X0029750Y0152105D01*
X0029750Y0145630D01*
X0030687Y0144693D01*
X0037163Y0144693D01*
X0038076Y0145606D02*
X0170200Y0145606D01*
X0170200Y0147205D02*
X0038100Y0147205D01*
X0038100Y0148803D02*
X0170200Y0148803D01*
X0170200Y0150402D02*
X0038100Y0150402D01*
X0038100Y0152000D02*
X0170200Y0152000D01*
X0170200Y0153599D02*
X0038100Y0153599D01*
X0038100Y0155197D02*
X0170200Y0155197D01*
X0170200Y0156796D02*
X0038100Y0156796D01*
X0038100Y0158394D02*
X0170200Y0158394D01*
X0170200Y0159993D02*
X0038086Y0159993D01*
X0037317Y0161317D02*
X0037826Y0161528D01*
X0038285Y0161834D01*
X0038675Y0162224D01*
X0038981Y0162683D01*
X0039192Y0163193D01*
X0039300Y0163734D01*
X0039300Y0166584D01*
X0033925Y0166584D01*
X0033925Y0166584D01*
X0033925Y0161209D01*
X0031074Y0161209D01*
X0030533Y0161317D01*
X0030024Y0161528D01*
X0029565Y0161834D01*
X0029175Y0162224D01*
X0028869Y0162683D01*
X0028658Y0163193D01*
X0028550Y0163734D01*
X0028550Y0166584D01*
X0033925Y0166584D01*
X0033925Y0161209D01*
X0036776Y0161209D01*
X0037317Y0161317D01*
X0037921Y0161591D02*
X0170200Y0161591D01*
X0170200Y0163190D02*
X0039191Y0163190D01*
X0039300Y0164788D02*
X0170200Y0164788D01*
X0170200Y0166387D02*
X0039300Y0166387D01*
X0039300Y0166584D02*
X0039300Y0169435D01*
X0039192Y0169976D01*
X0038981Y0170485D01*
X0038675Y0170944D01*
X0038285Y0171334D01*
X0037826Y0171640D01*
X0037317Y0171851D01*
X0036776Y0171959D01*
X0033925Y0171959D01*
X0031074Y0171959D01*
X0030533Y0171851D01*
X0030024Y0171640D01*
X0029565Y0171334D01*
X0029175Y0170944D01*
X0028869Y0170485D01*
X0028658Y0169976D01*
X0028550Y0169435D01*
X0028550Y0166584D01*
X0033925Y0166584D01*
X0033925Y0166584D01*
X0033925Y0166584D01*
X0039300Y0166584D01*
X0039300Y0167985D02*
X0170200Y0167985D01*
X0170200Y0169584D02*
X0039270Y0169584D01*
X0038436Y0171182D02*
X0170200Y0171182D01*
X0170268Y0172781D02*
X0004040Y0172781D01*
X0004040Y0174379D02*
X0171081Y0174379D01*
X0172679Y0175978D02*
X0004040Y0175978D01*
X0004040Y0177576D02*
X0174278Y0177576D01*
X0175877Y0179175D02*
X0004040Y0179175D01*
X0004040Y0180773D02*
X0177475Y0180773D01*
X0179074Y0182372D02*
X0004040Y0182372D01*
X0004040Y0183970D02*
X0180672Y0183970D01*
X0182271Y0185569D02*
X0004040Y0185569D01*
X0004040Y0187167D02*
X0183869Y0187167D01*
X0185468Y0188766D02*
X0004040Y0188766D01*
X0004040Y0190364D02*
X0187066Y0190364D01*
X0188665Y0191963D02*
X0004040Y0191963D01*
X0004040Y0193561D02*
X0190263Y0193561D01*
X0191862Y0195160D02*
X0004040Y0195160D01*
X0004040Y0196758D02*
X0193460Y0196758D01*
X0195059Y0198357D02*
X0004040Y0198357D01*
X0004040Y0199955D02*
X0196657Y0199955D01*
X0185262Y0169584D02*
X0178400Y0169584D01*
X0178400Y0167985D02*
X0185262Y0167985D01*
X0185262Y0166387D02*
X0178400Y0166387D01*
X0178400Y0164788D02*
X0185262Y0164788D01*
X0185419Y0163190D02*
X0178400Y0163190D01*
X0170776Y0144008D02*
X0004040Y0144008D01*
X0004040Y0145606D02*
X0029774Y0145606D01*
X0029750Y0147205D02*
X0004040Y0147205D01*
X0004040Y0148803D02*
X0029750Y0148803D01*
X0029750Y0150402D02*
X0004040Y0150402D01*
X0004040Y0152000D02*
X0029750Y0152000D01*
X0029750Y0153599D02*
X0004040Y0153599D01*
X0004040Y0155197D02*
X0029750Y0155197D01*
X0029750Y0156796D02*
X0004040Y0156796D01*
X0004040Y0158394D02*
X0029750Y0158394D01*
X0029764Y0159993D02*
X0004040Y0159993D01*
X0004040Y0161591D02*
X0029929Y0161591D01*
X0028659Y0163190D02*
X0004040Y0163190D01*
X0004040Y0164788D02*
X0028550Y0164788D01*
X0028550Y0166387D02*
X0004040Y0166387D01*
X0004040Y0167985D02*
X0028550Y0167985D01*
X0028580Y0169584D02*
X0004040Y0169584D01*
X0004040Y0171182D02*
X0029414Y0171182D01*
X0033925Y0171182D02*
X0033925Y0171182D01*
X0033925Y0171959D02*
X0033925Y0166584D01*
X0033925Y0166584D01*
X0033925Y0171959D01*
X0033925Y0169584D02*
X0033925Y0169584D01*
X0033925Y0167985D02*
X0033925Y0167985D01*
X0033925Y0166387D02*
X0033925Y0166387D01*
X0033925Y0164788D02*
X0033925Y0164788D01*
X0033925Y0163190D02*
X0033925Y0163190D01*
X0033925Y0161591D02*
X0033925Y0161591D01*
X0029897Y0142409D02*
X0004040Y0142409D01*
X0004040Y0140810D02*
X0029750Y0140810D01*
X0029750Y0139212D02*
X0004040Y0139212D01*
X0004040Y0137613D02*
X0029750Y0137613D01*
X0029750Y0136015D02*
X0004040Y0136015D01*
X0004040Y0040104D02*
X0029750Y0040104D01*
X0029750Y0038506D02*
X0004040Y0038506D01*
X0004040Y0036907D02*
X0029750Y0036907D01*
X0030229Y0035309D02*
X0004040Y0035309D01*
X0004040Y0024119D02*
X0248600Y0024119D01*
X0247001Y0022521D02*
X0004040Y0022521D01*
X0004040Y0020922D02*
X0246140Y0020922D01*
X0261640Y0182372D02*
X0261840Y0182372D01*
X0261840Y0183970D02*
X0261640Y0183970D01*
X0261640Y0185569D02*
X0261840Y0185569D01*
X0261840Y0187167D02*
X0261640Y0187167D01*
X0261640Y0188766D02*
X0261840Y0188766D01*
X0261840Y0190364D02*
X0261640Y0190364D01*
X0261640Y0191963D02*
X0261840Y0191963D01*
X0256690Y0183970D02*
X0255093Y0183970D01*
X0209440Y0263896D02*
X0193612Y0263896D01*
X0193612Y0265494D02*
X0209440Y0265494D01*
X0209440Y0267093D02*
X0193612Y0267093D01*
X0193612Y0268691D02*
X0209440Y0268691D01*
X0209440Y0270290D02*
X0193143Y0270290D01*
X0181373Y0270290D02*
X0039062Y0270290D01*
X0039300Y0268691D02*
X0179336Y0268691D01*
X0177737Y0267093D02*
X0039300Y0267093D01*
X0039300Y0265494D02*
X0176139Y0265494D01*
X0174540Y0263896D02*
X0039300Y0263896D01*
X0038723Y0262297D02*
X0172942Y0262297D01*
X0209440Y0271888D02*
X0037130Y0271888D01*
D20*
X0007740Y0298340D03*
X0007740Y0203340D03*
X0007740Y0103340D03*
X0007740Y0008340D03*
X0208732Y0178017D03*
X0208740Y0222356D03*
X0270740Y0222309D03*
X0205740Y0298340D03*
X0270740Y0112960D03*
X0270740Y0008340D03*
D21*
X0255781Y0186779D02*
X0251801Y0186779D01*
X0251740Y0186840D01*
X0255781Y0186779D02*
X0256766Y0187764D01*
X0256766Y0205480D01*
X0255406Y0206840D01*
X0251740Y0206840D01*
M02*
