G75*
%MOIN*%
%OFA0B0*%
%FSLAX25Y25*%
%IPPOS*%
%LPD*%
%AMOC8*
5,1,8,0,0,1.08239X$1,22.5*
%
%ADD10R,0.06300X0.04600*%
%ADD11R,0.01969X0.03543*%
%ADD12R,0.05906X0.05118*%
D10*
X0082841Y0084500D03*
X0082841Y0090500D03*
D11*
X0146866Y0076900D03*
X0150016Y0076900D03*
X0153165Y0076900D03*
X0156315Y0076900D03*
X0156315Y0070600D03*
X0153165Y0070600D03*
X0150016Y0070600D03*
X0146866Y0070600D03*
X0186866Y0070600D03*
X0190016Y0070600D03*
X0193165Y0070600D03*
X0196315Y0070600D03*
X0196315Y0076900D03*
X0193165Y0076900D03*
X0190016Y0076900D03*
X0186866Y0076900D03*
X0226866Y0076900D03*
X0230016Y0076900D03*
X0233165Y0076900D03*
X0236315Y0076900D03*
X0236315Y0070600D03*
X0233165Y0070600D03*
X0230016Y0070600D03*
X0226866Y0070600D03*
X0276866Y0070600D03*
X0280016Y0070600D03*
X0283165Y0070600D03*
X0286315Y0070600D03*
X0286315Y0076900D03*
X0283165Y0076900D03*
X0280016Y0076900D03*
X0276866Y0076900D03*
X0316866Y0076900D03*
X0320016Y0076900D03*
X0323165Y0076900D03*
X0326315Y0076900D03*
X0326315Y0070600D03*
X0323165Y0070600D03*
X0320016Y0070600D03*
X0316866Y0070600D03*
D12*
X0199591Y0139260D03*
X0199591Y0146740D03*
X0199591Y0175260D03*
X0199591Y0182740D03*
M02*
