G75*
%MOIN*%
%OFA0B0*%
%FSLAX25Y25*%
%IPPOS*%
%LPD*%
%AMOC8*
5,1,8,0,0,1.08239X$1,22.5*
%
%ADD10R,0.05150X0.05150*%
%ADD11C,0.05150*%
%ADD12OC8,0.05600*%
%ADD13OC8,0.05200*%
%ADD14C,0.05000*%
%ADD15C,0.02500*%
%ADD16C,0.02000*%
%ADD17C,0.03962*%
%ADD18C,0.01600*%
%ADD19R,0.03962X0.03962*%
D10*
X0033925Y0039025D03*
X0033925Y0048868D03*
X0033925Y0056742D03*
X0033925Y0066584D03*
X0033925Y0139025D03*
X0033925Y0148868D03*
X0033925Y0156742D03*
X0033925Y0166584D03*
X0033925Y0239025D03*
X0033925Y0248868D03*
X0033925Y0256742D03*
X0033925Y0266584D03*
X0189437Y0266584D03*
X0189437Y0256742D03*
X0189437Y0248868D03*
X0189437Y0239025D03*
X0189437Y0166584D03*
X0189437Y0156742D03*
X0189437Y0148868D03*
X0189437Y0139025D03*
X0189437Y0066584D03*
X0189437Y0056742D03*
X0189437Y0048868D03*
X0189437Y0039025D03*
D11*
X0226740Y0071840D03*
X0226740Y0081840D03*
X0226740Y0091840D03*
X0226740Y0101840D03*
X0226740Y0124340D03*
X0226740Y0134340D03*
X0226740Y0144340D03*
X0226740Y0154340D03*
D12*
X0251740Y0176840D03*
X0261740Y0176840D03*
X0261740Y0186840D03*
X0261740Y0196840D03*
X0261740Y0206840D03*
X0261740Y0216840D03*
X0251740Y0216840D03*
X0251740Y0206840D03*
X0251740Y0196840D03*
X0251740Y0186840D03*
X0251740Y0049340D03*
X0261740Y0049340D03*
X0261740Y0039340D03*
X0261740Y0029340D03*
X0261740Y0019340D03*
X0261740Y0009340D03*
X0251740Y0009340D03*
X0251740Y0019340D03*
X0251740Y0029340D03*
X0251740Y0039340D03*
D13*
X0029240Y0094340D03*
X0019240Y0094340D03*
D14*
X0033925Y0139025D02*
X0034300Y0139300D01*
X0046800Y0139300D01*
X0056800Y0149300D01*
X0056800Y0171800D01*
X0091800Y0206800D01*
X0231800Y0206800D01*
X0241800Y0196800D01*
X0241800Y0216800D02*
X0056170Y0216800D01*
X0033925Y0239025D01*
X0174240Y0091840D02*
X0174240Y0086840D01*
X0174300Y0054182D01*
X0174300Y0046804D01*
X0181962Y0039142D01*
X0189320Y0039142D01*
X0189437Y0039025D01*
X0226740Y0071840D02*
X0226958Y0071622D01*
X0234128Y0071622D01*
X0236800Y0074294D01*
X0236800Y0141800D01*
X0261800Y0166800D01*
X0261740Y0176840D01*
X0251740Y0176840D02*
X0251800Y0166800D01*
X0229300Y0144300D01*
X0226740Y0144340D01*
D15*
X0246800Y0191800D02*
X0241800Y0196800D01*
X0246800Y0201800D01*
X0256800Y0201800D01*
X0261740Y0196840D01*
X0256800Y0191800D01*
X0246800Y0191800D01*
X0246800Y0211800D02*
X0256800Y0211800D01*
X0261740Y0216840D01*
X0256800Y0221800D01*
X0246800Y0221800D01*
X0241800Y0216800D01*
X0246800Y0211800D01*
D16*
X0033925Y0239025D02*
X0014300Y0219300D01*
X0014300Y0099300D01*
X0019240Y0094340D01*
D17*
X0174240Y0091840D03*
X0174240Y0086840D03*
D18*
X0274084Y0004937D02*
X0004396Y0004937D01*
X0004040Y0005293D02*
X0004040Y0300887D01*
X0005193Y0302040D01*
X0208287Y0302040D01*
X0209440Y0300887D01*
X0209440Y0229356D01*
X0213287Y0225509D01*
X0215193Y0225509D01*
X0273287Y0225509D01*
X0274440Y0224356D01*
X0274440Y0005293D01*
X0273287Y0004140D01*
X0005193Y0004140D01*
X0004040Y0005293D01*
X0004040Y0006536D02*
X0248322Y0006536D01*
X0247340Y0007517D02*
X0247340Y0011163D01*
X0249917Y0013740D01*
X0253563Y0013740D01*
X0256140Y0011163D01*
X0256140Y0007517D01*
X0253563Y0004940D01*
X0249917Y0004940D01*
X0247340Y0007517D01*
X0247340Y0008134D02*
X0004040Y0008134D01*
X0004040Y0009733D02*
X0247340Y0009733D01*
X0247509Y0011331D02*
X0004040Y0011331D01*
X0004040Y0012930D02*
X0249107Y0012930D01*
X0249420Y0013740D02*
X0246140Y0017020D01*
X0246140Y0019240D01*
X0251640Y0019240D01*
X0251640Y0019440D01*
X0251640Y0024940D01*
X0249420Y0024940D01*
X0246140Y0021660D01*
X0246140Y0019440D01*
X0251640Y0019440D01*
X0251840Y0019440D01*
X0251840Y0024940D01*
X0254060Y0024940D01*
X0256740Y0022260D01*
X0259420Y0024940D01*
X0261640Y0024940D01*
X0261640Y0019440D01*
X0261840Y0019440D01*
X0261840Y0024940D01*
X0264060Y0024940D01*
X0267340Y0021660D01*
X0267340Y0019440D01*
X0261840Y0019440D01*
X0261840Y0019240D01*
X0267340Y0019240D01*
X0267340Y0017020D01*
X0264060Y0013740D01*
X0261840Y0013740D01*
X0261840Y0019240D01*
X0261640Y0019240D01*
X0261640Y0013740D01*
X0259420Y0013740D01*
X0256740Y0016420D01*
X0254060Y0013740D01*
X0251840Y0013740D01*
X0251840Y0019240D01*
X0251840Y0019440D01*
X0257340Y0019440D01*
X0261640Y0019440D01*
X0261640Y0019240D01*
X0251840Y0019240D01*
X0251640Y0019240D01*
X0251640Y0013740D01*
X0249420Y0013740D01*
X0248632Y0014528D02*
X0004040Y0014528D01*
X0004040Y0016127D02*
X0247034Y0016127D01*
X0246140Y0017725D02*
X0004040Y0017725D01*
X0004040Y0019324D02*
X0251640Y0019324D01*
X0251840Y0019324D02*
X0261640Y0019324D01*
X0261840Y0019324D02*
X0274440Y0019324D01*
X0274440Y0020922D02*
X0267340Y0020922D01*
X0266479Y0022521D02*
X0274440Y0022521D01*
X0274440Y0024119D02*
X0264880Y0024119D01*
X0263563Y0024940D02*
X0266140Y0027517D01*
X0266140Y0031163D01*
X0263563Y0033740D01*
X0259917Y0033740D01*
X0257340Y0031163D01*
X0257340Y0027517D01*
X0259917Y0024940D01*
X0263563Y0024940D01*
X0264340Y0025718D02*
X0274440Y0025718D01*
X0274440Y0027316D02*
X0265939Y0027316D01*
X0266140Y0028915D02*
X0274440Y0028915D01*
X0274440Y0030513D02*
X0266140Y0030513D01*
X0265191Y0032112D02*
X0274440Y0032112D01*
X0274440Y0033710D02*
X0263592Y0033710D01*
X0264060Y0033740D02*
X0267340Y0037020D01*
X0267340Y0039240D01*
X0261840Y0039240D01*
X0261840Y0039440D01*
X0261640Y0039440D01*
X0261640Y0044940D01*
X0259420Y0044940D01*
X0256740Y0042260D01*
X0254060Y0044940D01*
X0251840Y0044940D01*
X0251840Y0039440D01*
X0251640Y0039440D01*
X0251640Y0044940D01*
X0249420Y0044940D01*
X0246140Y0041660D01*
X0246140Y0039440D01*
X0251640Y0039440D01*
X0251640Y0039240D01*
X0246140Y0039240D01*
X0246140Y0037020D01*
X0249420Y0033740D01*
X0251640Y0033740D01*
X0251640Y0039240D01*
X0251840Y0039240D01*
X0251840Y0039440D01*
X0257340Y0039440D01*
X0261640Y0039440D01*
X0261640Y0039240D01*
X0261840Y0039240D01*
X0261840Y0033740D01*
X0264060Y0033740D01*
X0265628Y0035309D02*
X0274440Y0035309D01*
X0274440Y0036907D02*
X0267227Y0036907D01*
X0267340Y0038506D02*
X0274440Y0038506D01*
X0274440Y0040104D02*
X0267340Y0040104D01*
X0267340Y0039440D02*
X0267340Y0041660D01*
X0264060Y0044940D01*
X0261840Y0044940D01*
X0261840Y0039440D01*
X0267340Y0039440D01*
X0267297Y0041703D02*
X0274440Y0041703D01*
X0274440Y0043301D02*
X0265698Y0043301D01*
X0264100Y0044900D02*
X0274440Y0044900D01*
X0274440Y0046498D02*
X0265121Y0046498D01*
X0266140Y0047517D02*
X0263563Y0044940D01*
X0259917Y0044940D01*
X0257340Y0047517D01*
X0257340Y0051163D01*
X0259917Y0053740D01*
X0263563Y0053740D01*
X0266140Y0051163D01*
X0266140Y0047517D01*
X0266140Y0048097D02*
X0274440Y0048097D01*
X0274440Y0049695D02*
X0266140Y0049695D01*
X0266009Y0051294D02*
X0274440Y0051294D01*
X0274440Y0052892D02*
X0264410Y0052892D01*
X0259070Y0052892D02*
X0254410Y0052892D01*
X0253563Y0053740D02*
X0249917Y0053740D01*
X0247340Y0051163D01*
X0247340Y0047517D01*
X0249917Y0044940D01*
X0253563Y0044940D01*
X0256140Y0047517D01*
X0256140Y0051163D01*
X0253563Y0053740D01*
X0256009Y0051294D02*
X0257471Y0051294D01*
X0257340Y0049695D02*
X0256140Y0049695D01*
X0256140Y0048097D02*
X0257340Y0048097D01*
X0258359Y0046498D02*
X0255121Y0046498D01*
X0254100Y0044900D02*
X0259380Y0044900D01*
X0261640Y0044900D02*
X0261840Y0044900D01*
X0261840Y0043301D02*
X0261640Y0043301D01*
X0261640Y0041703D02*
X0261840Y0041703D01*
X0261840Y0040104D02*
X0261640Y0040104D01*
X0261640Y0039240D02*
X0251840Y0039240D01*
X0251840Y0033740D01*
X0254060Y0033740D01*
X0256740Y0036420D01*
X0259420Y0033740D01*
X0261640Y0033740D01*
X0261640Y0039240D01*
X0261640Y0038506D02*
X0261840Y0038506D01*
X0261840Y0036907D02*
X0261640Y0036907D01*
X0261640Y0035309D02*
X0261840Y0035309D01*
X0259888Y0033710D02*
X0253592Y0033710D01*
X0253563Y0033740D02*
X0249917Y0033740D01*
X0247340Y0031163D01*
X0247340Y0027517D01*
X0249917Y0024940D01*
X0253563Y0024940D01*
X0256140Y0027517D01*
X0256140Y0031163D01*
X0253563Y0033740D01*
X0255191Y0032112D02*
X0258289Y0032112D01*
X0257340Y0030513D02*
X0256140Y0030513D01*
X0256140Y0028915D02*
X0257340Y0028915D01*
X0257541Y0027316D02*
X0255939Y0027316D01*
X0254340Y0025718D02*
X0259140Y0025718D01*
X0258600Y0024119D02*
X0254880Y0024119D01*
X0256479Y0022521D02*
X0257001Y0022521D01*
X0261640Y0022521D02*
X0261840Y0022521D01*
X0261840Y0024119D02*
X0261640Y0024119D01*
X0261640Y0020922D02*
X0261840Y0020922D01*
X0261840Y0017725D02*
X0261640Y0017725D01*
X0261640Y0016127D02*
X0261840Y0016127D01*
X0261840Y0014528D02*
X0261640Y0014528D01*
X0259917Y0013740D02*
X0257340Y0011163D01*
X0257340Y0007517D01*
X0259917Y0004940D01*
X0263563Y0004940D01*
X0266140Y0007517D01*
X0266140Y0011163D01*
X0263563Y0013740D01*
X0259917Y0013740D01*
X0259107Y0012930D02*
X0254373Y0012930D01*
X0254848Y0014528D02*
X0258632Y0014528D01*
X0257034Y0016127D02*
X0256446Y0016127D01*
X0251840Y0016127D02*
X0251640Y0016127D01*
X0251640Y0017725D02*
X0251840Y0017725D01*
X0251840Y0014528D02*
X0251640Y0014528D01*
X0255971Y0011331D02*
X0257509Y0011331D01*
X0257340Y0009733D02*
X0256140Y0009733D01*
X0256140Y0008134D02*
X0257340Y0008134D01*
X0258322Y0006536D02*
X0255158Y0006536D01*
X0264373Y0012930D02*
X0274440Y0012930D01*
X0274440Y0014528D02*
X0264848Y0014528D01*
X0266446Y0016127D02*
X0274440Y0016127D01*
X0274440Y0017725D02*
X0267340Y0017725D01*
X0265971Y0011331D02*
X0274440Y0011331D01*
X0274440Y0009733D02*
X0266140Y0009733D01*
X0266140Y0008134D02*
X0274440Y0008134D01*
X0274440Y0006536D02*
X0265158Y0006536D01*
X0251840Y0020922D02*
X0251640Y0020922D01*
X0251640Y0022521D02*
X0251840Y0022521D01*
X0251840Y0024119D02*
X0251640Y0024119D01*
X0249140Y0025718D02*
X0004040Y0025718D01*
X0004040Y0027316D02*
X0247541Y0027316D01*
X0247340Y0028915D02*
X0004040Y0028915D01*
X0004040Y0030513D02*
X0247340Y0030513D01*
X0248289Y0032112D02*
X0004040Y0032112D01*
X0004040Y0033710D02*
X0249888Y0033710D01*
X0251640Y0035309D02*
X0251840Y0035309D01*
X0251840Y0036907D02*
X0251640Y0036907D01*
X0251640Y0038506D02*
X0251840Y0038506D01*
X0251840Y0040104D02*
X0251640Y0040104D01*
X0251640Y0041703D02*
X0251840Y0041703D01*
X0251840Y0043301D02*
X0251640Y0043301D01*
X0251640Y0044900D02*
X0251840Y0044900D01*
X0249380Y0044900D02*
X0192881Y0044900D01*
X0192674Y0044693D02*
X0193612Y0045630D01*
X0193612Y0052105D01*
X0192912Y0052805D01*
X0193612Y0053504D01*
X0193612Y0059979D01*
X0192674Y0060916D01*
X0186199Y0060916D01*
X0185262Y0059979D01*
X0185262Y0053504D01*
X0185962Y0052805D01*
X0185262Y0052105D01*
X0185262Y0045630D01*
X0186199Y0044693D01*
X0192674Y0044693D01*
X0192674Y0043200D02*
X0190237Y0043200D01*
X0190136Y0043242D01*
X0183661Y0043242D01*
X0178400Y0048502D01*
X0178400Y0053370D01*
X0178401Y0053374D01*
X0178400Y0054187D01*
X0178400Y0054997D01*
X0178398Y0055001D01*
X0178340Y0086849D01*
X0178340Y0092656D01*
X0177716Y0094162D01*
X0176562Y0095316D01*
X0175056Y0095940D01*
X0173424Y0095940D01*
X0171918Y0095316D01*
X0170764Y0094162D01*
X0170140Y0092656D01*
X0170140Y0087652D01*
X0170139Y0087648D01*
X0170140Y0086835D01*
X0170140Y0086024D01*
X0170141Y0086021D01*
X0170200Y0054173D01*
X0170200Y0045988D01*
X0170824Y0044481D01*
X0178487Y0036819D01*
X0179640Y0035666D01*
X0181147Y0035042D01*
X0186008Y0035042D01*
X0186199Y0034850D01*
X0192674Y0034850D01*
X0193612Y0035787D01*
X0193612Y0042263D01*
X0192674Y0043200D01*
X0193612Y0041703D02*
X0246183Y0041703D01*
X0246140Y0040104D02*
X0193612Y0040104D01*
X0193612Y0038506D02*
X0246140Y0038506D01*
X0246253Y0036907D02*
X0193612Y0036907D01*
X0193133Y0035309D02*
X0247852Y0035309D01*
X0255628Y0035309D02*
X0257852Y0035309D01*
X0257782Y0043301D02*
X0255698Y0043301D01*
X0248359Y0046498D02*
X0193612Y0046498D01*
X0193612Y0048097D02*
X0247340Y0048097D01*
X0247340Y0049695D02*
X0193612Y0049695D01*
X0193612Y0051294D02*
X0247471Y0051294D01*
X0249070Y0052892D02*
X0193000Y0052892D01*
X0193612Y0054491D02*
X0274440Y0054491D01*
X0274440Y0056089D02*
X0193612Y0056089D01*
X0193612Y0057688D02*
X0274440Y0057688D01*
X0274440Y0059286D02*
X0193612Y0059286D01*
X0192706Y0060885D02*
X0274440Y0060885D01*
X0274440Y0062483D02*
X0192749Y0062483D01*
X0192674Y0062409D02*
X0193612Y0063347D01*
X0193612Y0069822D01*
X0192674Y0070759D01*
X0186199Y0070759D01*
X0185262Y0069822D01*
X0185262Y0063347D01*
X0186199Y0062409D01*
X0192674Y0062409D01*
X0193612Y0064082D02*
X0274440Y0064082D01*
X0274440Y0065680D02*
X0193612Y0065680D01*
X0193612Y0067279D02*
X0274440Y0067279D01*
X0274440Y0068877D02*
X0237182Y0068877D01*
X0237604Y0069299D02*
X0240276Y0071972D01*
X0240900Y0073479D01*
X0240900Y0140102D01*
X0264131Y0163333D01*
X0264143Y0163338D01*
X0264708Y0163910D01*
X0265276Y0164478D01*
X0265281Y0164489D01*
X0265290Y0164498D01*
X0265593Y0165242D01*
X0265900Y0165984D01*
X0265900Y0165997D01*
X0265905Y0166009D01*
X0265900Y0166812D01*
X0265900Y0167616D01*
X0265895Y0167627D01*
X0265853Y0174730D01*
X0266140Y0175017D01*
X0266140Y0178663D01*
X0263563Y0181240D01*
X0259917Y0181240D01*
X0257340Y0178663D01*
X0257340Y0175017D01*
X0257653Y0174705D01*
X0257690Y0168488D01*
X0255901Y0166699D01*
X0255900Y0166812D01*
X0255900Y0167616D01*
X0255895Y0167627D01*
X0255853Y0174730D01*
X0256140Y0175017D01*
X0256140Y0178663D01*
X0253563Y0181240D01*
X0249917Y0181240D01*
X0247340Y0178663D01*
X0247340Y0175017D01*
X0247653Y0174705D01*
X0247690Y0168488D01*
X0227674Y0148472D01*
X0227570Y0148515D01*
X0225910Y0148515D01*
X0224375Y0147879D01*
X0223201Y0146705D01*
X0222565Y0145170D01*
X0222565Y0143510D01*
X0223201Y0141975D01*
X0224375Y0140801D01*
X0225910Y0140165D01*
X0227570Y0140165D01*
X0227713Y0140224D01*
X0228454Y0140213D01*
X0228484Y0140200D01*
X0229268Y0140200D01*
X0230051Y0140188D01*
X0230082Y0140200D01*
X0230116Y0140200D01*
X0230839Y0140500D01*
X0231568Y0140788D01*
X0231592Y0140811D01*
X0231622Y0140824D01*
X0232176Y0141378D01*
X0232700Y0141886D01*
X0232700Y0075992D01*
X0232429Y0075722D01*
X0228278Y0075722D01*
X0227570Y0076015D01*
X0225910Y0076015D01*
X0224375Y0075379D01*
X0223201Y0074205D01*
X0222565Y0072670D01*
X0222565Y0071010D01*
X0223201Y0069475D01*
X0224375Y0068301D01*
X0224556Y0068226D01*
X0224636Y0068146D01*
X0226143Y0067522D01*
X0234943Y0067522D01*
X0236450Y0068146D01*
X0237604Y0069299D01*
X0238780Y0070476D02*
X0274440Y0070476D01*
X0274440Y0072074D02*
X0240318Y0072074D01*
X0240900Y0073673D02*
X0274440Y0073673D01*
X0274440Y0075272D02*
X0240900Y0075272D01*
X0240900Y0076870D02*
X0274440Y0076870D01*
X0274440Y0078469D02*
X0240900Y0078469D01*
X0240900Y0080067D02*
X0274440Y0080067D01*
X0274440Y0081666D02*
X0240900Y0081666D01*
X0240900Y0083264D02*
X0274440Y0083264D01*
X0274440Y0084863D02*
X0240900Y0084863D01*
X0240900Y0086461D02*
X0274440Y0086461D01*
X0274440Y0088060D02*
X0240900Y0088060D01*
X0240900Y0089658D02*
X0274440Y0089658D01*
X0274440Y0091257D02*
X0240900Y0091257D01*
X0240900Y0092855D02*
X0274440Y0092855D01*
X0274440Y0094454D02*
X0240900Y0094454D01*
X0240900Y0096052D02*
X0274440Y0096052D01*
X0274440Y0097651D02*
X0240900Y0097651D01*
X0240900Y0099249D02*
X0274440Y0099249D01*
X0274440Y0100848D02*
X0240900Y0100848D01*
X0240900Y0102446D02*
X0274440Y0102446D01*
X0274440Y0104045D02*
X0240900Y0104045D01*
X0240900Y0105643D02*
X0274440Y0105643D01*
X0274440Y0107242D02*
X0240900Y0107242D01*
X0240900Y0108840D02*
X0274440Y0108840D01*
X0274440Y0110439D02*
X0240900Y0110439D01*
X0240900Y0112037D02*
X0274440Y0112037D01*
X0274440Y0113636D02*
X0240900Y0113636D01*
X0240900Y0115234D02*
X0274440Y0115234D01*
X0274440Y0116833D02*
X0240900Y0116833D01*
X0240900Y0118431D02*
X0274440Y0118431D01*
X0274440Y0120030D02*
X0240900Y0120030D01*
X0240900Y0121628D02*
X0274440Y0121628D01*
X0274440Y0123227D02*
X0240900Y0123227D01*
X0240900Y0124825D02*
X0274440Y0124825D01*
X0274440Y0126424D02*
X0240900Y0126424D01*
X0240900Y0128022D02*
X0274440Y0128022D01*
X0274440Y0129621D02*
X0240900Y0129621D01*
X0240900Y0131219D02*
X0274440Y0131219D01*
X0274440Y0132818D02*
X0240900Y0132818D01*
X0240900Y0134416D02*
X0274440Y0134416D01*
X0274440Y0136015D02*
X0240900Y0136015D01*
X0240900Y0137613D02*
X0274440Y0137613D01*
X0274440Y0139212D02*
X0240900Y0139212D01*
X0241609Y0140810D02*
X0274440Y0140810D01*
X0274440Y0142409D02*
X0243207Y0142409D01*
X0244806Y0144008D02*
X0274440Y0144008D01*
X0274440Y0145606D02*
X0246404Y0145606D01*
X0248003Y0147205D02*
X0274440Y0147205D01*
X0274440Y0148803D02*
X0249601Y0148803D01*
X0251200Y0150402D02*
X0274440Y0150402D01*
X0274440Y0152000D02*
X0252798Y0152000D01*
X0254397Y0153599D02*
X0274440Y0153599D01*
X0274440Y0155197D02*
X0255995Y0155197D01*
X0257594Y0156796D02*
X0274440Y0156796D01*
X0274440Y0158394D02*
X0259192Y0158394D01*
X0260791Y0159993D02*
X0274440Y0159993D01*
X0274440Y0161591D02*
X0262389Y0161591D01*
X0263988Y0163190D02*
X0274440Y0163190D01*
X0274440Y0164788D02*
X0265408Y0164788D01*
X0265903Y0166387D02*
X0274440Y0166387D01*
X0274440Y0167985D02*
X0265893Y0167985D01*
X0265883Y0169584D02*
X0274440Y0169584D01*
X0274440Y0171182D02*
X0265874Y0171182D01*
X0265864Y0172781D02*
X0274440Y0172781D01*
X0274440Y0174379D02*
X0265855Y0174379D01*
X0266140Y0175978D02*
X0274440Y0175978D01*
X0274440Y0177576D02*
X0266140Y0177576D01*
X0265628Y0179175D02*
X0274440Y0179175D01*
X0274440Y0180773D02*
X0264029Y0180773D01*
X0264060Y0181240D02*
X0267340Y0184520D01*
X0267340Y0186740D01*
X0261840Y0186740D01*
X0261840Y0186940D01*
X0261640Y0186940D01*
X0261640Y0192440D01*
X0261418Y0192440D01*
X0263563Y0192440D01*
X0266140Y0195017D01*
X0266140Y0198663D01*
X0263563Y0201240D01*
X0261380Y0201240D01*
X0261640Y0201240D01*
X0261640Y0206740D01*
X0261840Y0206740D01*
X0261840Y0206940D01*
X0261640Y0206940D01*
X0261640Y0212440D01*
X0261418Y0212440D01*
X0263563Y0212440D01*
X0266140Y0215017D01*
X0266140Y0218663D01*
X0263563Y0221240D01*
X0261380Y0221240D01*
X0259217Y0223412D01*
X0259216Y0223414D01*
X0258817Y0223813D01*
X0258419Y0224213D01*
X0258416Y0224214D01*
X0258414Y0224216D01*
X0257892Y0224433D01*
X0257373Y0224649D01*
X0257370Y0224649D01*
X0257367Y0224650D01*
X0256803Y0224650D01*
X0256239Y0224651D01*
X0256236Y0224650D01*
X0246233Y0224650D01*
X0245186Y0224216D01*
X0244384Y0223414D01*
X0241869Y0220900D01*
X0057867Y0220900D01*
X0038100Y0240650D01*
X0038100Y0242263D01*
X0037163Y0243200D01*
X0030687Y0243200D01*
X0029750Y0242263D01*
X0029750Y0238515D01*
X0012459Y0221136D01*
X0012096Y0220773D01*
X0012095Y0220770D01*
X0012092Y0220767D01*
X0011897Y0220292D01*
X0011700Y0219817D01*
X0011700Y0219814D01*
X0011699Y0219811D01*
X0011700Y0219298D01*
X0011700Y0099305D01*
X0011699Y0098788D01*
X0011700Y0098786D01*
X0011700Y0098783D01*
X0011896Y0098309D01*
X0012093Y0097832D01*
X0012095Y0097830D01*
X0012096Y0097827D01*
X0012457Y0097466D01*
X0015040Y0094873D01*
X0015040Y0092600D01*
X0017500Y0090140D01*
X0020980Y0090140D01*
X0023440Y0092600D01*
X0023440Y0096080D01*
X0020980Y0098540D01*
X0018726Y0098540D01*
X0016900Y0100374D01*
X0016900Y0218227D01*
X0032873Y0234281D01*
X0053276Y0213896D01*
X0053848Y0213324D01*
X0053848Y0213324D01*
X0053849Y0213323D01*
X0054608Y0213009D01*
X0055355Y0212700D01*
X0055355Y0212700D01*
X0055356Y0212700D01*
X0056174Y0212700D01*
X0241869Y0212700D01*
X0244384Y0210186D01*
X0245186Y0209384D01*
X0246233Y0208950D01*
X0247627Y0208950D01*
X0247340Y0208663D01*
X0247340Y0205017D01*
X0247707Y0204650D01*
X0246233Y0204650D01*
X0245186Y0204216D01*
X0242684Y0201714D01*
X0234122Y0210276D01*
X0232616Y0210900D01*
X0090984Y0210900D01*
X0089478Y0210276D01*
X0054478Y0175276D01*
X0053324Y0174122D01*
X0052700Y0172616D01*
X0052700Y0150998D01*
X0045102Y0143400D01*
X0034614Y0143400D01*
X0034117Y0143476D01*
X0033806Y0143400D01*
X0033484Y0143400D01*
X0033021Y0143208D01*
X0032988Y0143200D01*
X0030687Y0143200D01*
X0029750Y0142263D01*
X0029750Y0138852D01*
X0029749Y0138842D01*
X0029750Y0138836D01*
X0029750Y0135787D01*
X0030687Y0134850D01*
X0034098Y0134850D01*
X0034108Y0134849D01*
X0034114Y0134850D01*
X0037163Y0134850D01*
X0037512Y0135200D01*
X0047616Y0135200D01*
X0049122Y0135824D01*
X0050276Y0136978D01*
X0060276Y0146978D01*
X0060900Y0148484D01*
X0060900Y0170102D01*
X0093498Y0202700D01*
X0230102Y0202700D01*
X0239478Y0193324D01*
X0240984Y0192700D01*
X0241869Y0192700D01*
X0245186Y0189384D01*
X0246233Y0188950D01*
X0247627Y0188950D01*
X0247340Y0188663D01*
X0247340Y0185017D01*
X0249917Y0182440D01*
X0253563Y0182440D01*
X0256140Y0185017D01*
X0256140Y0188663D01*
X0255852Y0188950D01*
X0256140Y0188950D01*
X0256140Y0186940D01*
X0261640Y0186940D01*
X0261640Y0186740D01*
X0261840Y0186740D01*
X0261840Y0181240D01*
X0264060Y0181240D01*
X0265191Y0182372D02*
X0274440Y0182372D01*
X0274440Y0183970D02*
X0266790Y0183970D01*
X0267340Y0185569D02*
X0274440Y0185569D01*
X0274440Y0187167D02*
X0267340Y0187167D01*
X0267340Y0186940D02*
X0267340Y0189160D01*
X0264060Y0192440D01*
X0261840Y0192440D01*
X0261840Y0186940D01*
X0267340Y0186940D01*
X0267340Y0188766D02*
X0274440Y0188766D01*
X0274440Y0190364D02*
X0266135Y0190364D01*
X0264537Y0191963D02*
X0274440Y0191963D01*
X0274440Y0193561D02*
X0264684Y0193561D01*
X0266140Y0195160D02*
X0274440Y0195160D01*
X0274440Y0196758D02*
X0266140Y0196758D01*
X0266140Y0198357D02*
X0274440Y0198357D01*
X0274440Y0199955D02*
X0264847Y0199955D01*
X0264060Y0201240D02*
X0267340Y0204520D01*
X0267340Y0206740D01*
X0261840Y0206740D01*
X0261840Y0201240D01*
X0264060Y0201240D01*
X0264373Y0201554D02*
X0274440Y0201554D01*
X0274440Y0203152D02*
X0265972Y0203152D01*
X0267340Y0204751D02*
X0274440Y0204751D01*
X0274440Y0206349D02*
X0267340Y0206349D01*
X0267340Y0206940D02*
X0267340Y0209160D01*
X0264060Y0212440D01*
X0261840Y0212440D01*
X0261840Y0206940D01*
X0267340Y0206940D01*
X0267340Y0207948D02*
X0274440Y0207948D01*
X0274440Y0209546D02*
X0266953Y0209546D01*
X0265355Y0211145D02*
X0274440Y0211145D01*
X0274440Y0212743D02*
X0263866Y0212743D01*
X0265465Y0214342D02*
X0274440Y0214342D01*
X0274440Y0215941D02*
X0266140Y0215941D01*
X0266140Y0217539D02*
X0274440Y0217539D01*
X0274440Y0219138D02*
X0265665Y0219138D01*
X0264066Y0220736D02*
X0274440Y0220736D01*
X0274440Y0222335D02*
X0260290Y0222335D01*
X0258698Y0223933D02*
X0274440Y0223933D01*
X0261418Y0212440D02*
X0261418Y0212440D01*
X0261640Y0211145D02*
X0261840Y0211145D01*
X0261840Y0209546D02*
X0261640Y0209546D01*
X0261640Y0207948D02*
X0261840Y0207948D01*
X0261640Y0206940D02*
X0261640Y0206740D01*
X0256140Y0206740D01*
X0256140Y0204650D01*
X0255773Y0204650D01*
X0256140Y0205017D01*
X0256140Y0208663D01*
X0255852Y0208950D01*
X0256140Y0208950D01*
X0256140Y0206940D01*
X0261640Y0206940D01*
X0261640Y0206349D02*
X0261840Y0206349D01*
X0261840Y0204751D02*
X0261640Y0204751D01*
X0261640Y0203152D02*
X0261840Y0203152D01*
X0261840Y0201554D02*
X0261640Y0201554D01*
X0261380Y0201240D02*
X0261380Y0201240D01*
X0256140Y0204751D02*
X0255873Y0204751D01*
X0256140Y0206349D02*
X0256140Y0206349D01*
X0256140Y0207948D02*
X0256140Y0207948D01*
X0247340Y0207948D02*
X0236450Y0207948D01*
X0234852Y0209546D02*
X0245023Y0209546D01*
X0243425Y0211145D02*
X0016900Y0211145D01*
X0016900Y0212743D02*
X0055250Y0212743D01*
X0052829Y0214342D02*
X0016900Y0214342D01*
X0016900Y0215941D02*
X0051229Y0215941D01*
X0049630Y0217539D02*
X0016900Y0217539D01*
X0017806Y0219138D02*
X0048030Y0219138D01*
X0046430Y0220736D02*
X0019396Y0220736D01*
X0020987Y0222335D02*
X0044830Y0222335D01*
X0043230Y0223933D02*
X0022577Y0223933D01*
X0024168Y0225532D02*
X0041630Y0225532D01*
X0040030Y0227130D02*
X0025758Y0227130D01*
X0027348Y0228729D02*
X0038430Y0228729D01*
X0036830Y0230327D02*
X0028939Y0230327D01*
X0030529Y0231926D02*
X0035230Y0231926D01*
X0033630Y0233524D02*
X0032120Y0233524D01*
X0027965Y0236721D02*
X0004040Y0236721D01*
X0004040Y0235123D02*
X0026375Y0235123D01*
X0024784Y0233524D02*
X0004040Y0233524D01*
X0004040Y0231926D02*
X0023194Y0231926D01*
X0021604Y0230327D02*
X0004040Y0230327D01*
X0004040Y0228729D02*
X0020013Y0228729D01*
X0018423Y0227130D02*
X0004040Y0227130D01*
X0004040Y0225532D02*
X0016832Y0225532D01*
X0015242Y0223933D02*
X0004040Y0223933D01*
X0004040Y0222335D02*
X0013652Y0222335D01*
X0012079Y0220736D02*
X0004040Y0220736D01*
X0004040Y0219138D02*
X0011700Y0219138D01*
X0011700Y0217539D02*
X0004040Y0217539D01*
X0004040Y0215941D02*
X0011700Y0215941D01*
X0011700Y0214342D02*
X0004040Y0214342D01*
X0004040Y0212743D02*
X0011700Y0212743D01*
X0011700Y0211145D02*
X0004040Y0211145D01*
X0004040Y0209546D02*
X0011700Y0209546D01*
X0011700Y0207948D02*
X0004040Y0207948D01*
X0004040Y0206349D02*
X0011700Y0206349D01*
X0011700Y0204751D02*
X0004040Y0204751D01*
X0004040Y0203152D02*
X0011700Y0203152D01*
X0011700Y0201554D02*
X0004040Y0201554D01*
X0004040Y0199955D02*
X0011700Y0199955D01*
X0011700Y0198357D02*
X0004040Y0198357D01*
X0004040Y0196758D02*
X0011700Y0196758D01*
X0011700Y0195160D02*
X0004040Y0195160D01*
X0004040Y0193561D02*
X0011700Y0193561D01*
X0011700Y0191963D02*
X0004040Y0191963D01*
X0004040Y0190364D02*
X0011700Y0190364D01*
X0011700Y0188766D02*
X0004040Y0188766D01*
X0004040Y0187167D02*
X0011700Y0187167D01*
X0011700Y0185569D02*
X0004040Y0185569D01*
X0004040Y0183970D02*
X0011700Y0183970D01*
X0011700Y0182372D02*
X0004040Y0182372D01*
X0004040Y0180773D02*
X0011700Y0180773D01*
X0011700Y0179175D02*
X0004040Y0179175D01*
X0004040Y0177576D02*
X0011700Y0177576D01*
X0011700Y0175978D02*
X0004040Y0175978D01*
X0004040Y0174379D02*
X0011700Y0174379D01*
X0011700Y0172781D02*
X0004040Y0172781D01*
X0004040Y0171182D02*
X0011700Y0171182D01*
X0011700Y0169584D02*
X0004040Y0169584D01*
X0004040Y0167985D02*
X0011700Y0167985D01*
X0011700Y0166387D02*
X0004040Y0166387D01*
X0004040Y0164788D02*
X0011700Y0164788D01*
X0011700Y0163190D02*
X0004040Y0163190D01*
X0004040Y0161591D02*
X0011700Y0161591D01*
X0011700Y0159993D02*
X0004040Y0159993D01*
X0004040Y0158394D02*
X0011700Y0158394D01*
X0011700Y0156796D02*
X0004040Y0156796D01*
X0004040Y0155197D02*
X0011700Y0155197D01*
X0011700Y0153599D02*
X0004040Y0153599D01*
X0004040Y0152000D02*
X0011700Y0152000D01*
X0011700Y0150402D02*
X0004040Y0150402D01*
X0004040Y0148803D02*
X0011700Y0148803D01*
X0011700Y0147205D02*
X0004040Y0147205D01*
X0004040Y0145606D02*
X0011700Y0145606D01*
X0011700Y0144008D02*
X0004040Y0144008D01*
X0004040Y0142409D02*
X0011700Y0142409D01*
X0011700Y0140810D02*
X0004040Y0140810D01*
X0004040Y0139212D02*
X0011700Y0139212D01*
X0011700Y0137613D02*
X0004040Y0137613D01*
X0004040Y0136015D02*
X0011700Y0136015D01*
X0011700Y0134416D02*
X0004040Y0134416D01*
X0004040Y0132818D02*
X0011700Y0132818D01*
X0011700Y0131219D02*
X0004040Y0131219D01*
X0004040Y0129621D02*
X0011700Y0129621D01*
X0011700Y0128022D02*
X0004040Y0128022D01*
X0004040Y0126424D02*
X0011700Y0126424D01*
X0011700Y0124825D02*
X0004040Y0124825D01*
X0004040Y0123227D02*
X0011700Y0123227D01*
X0011700Y0121628D02*
X0004040Y0121628D01*
X0004040Y0120030D02*
X0011700Y0120030D01*
X0011700Y0118431D02*
X0004040Y0118431D01*
X0004040Y0116833D02*
X0011700Y0116833D01*
X0011700Y0115234D02*
X0004040Y0115234D01*
X0004040Y0113636D02*
X0011700Y0113636D01*
X0011700Y0112037D02*
X0004040Y0112037D01*
X0004040Y0110439D02*
X0011700Y0110439D01*
X0011700Y0108840D02*
X0004040Y0108840D01*
X0004040Y0107242D02*
X0011700Y0107242D01*
X0011700Y0105643D02*
X0004040Y0105643D01*
X0004040Y0104045D02*
X0011700Y0104045D01*
X0011700Y0102446D02*
X0004040Y0102446D01*
X0004040Y0100848D02*
X0011700Y0100848D01*
X0011700Y0099249D02*
X0004040Y0099249D01*
X0004040Y0097651D02*
X0012272Y0097651D01*
X0013865Y0096052D02*
X0004040Y0096052D01*
X0004040Y0094454D02*
X0015040Y0094454D01*
X0015040Y0092855D02*
X0004040Y0092855D01*
X0004040Y0091257D02*
X0016384Y0091257D01*
X0022096Y0091257D02*
X0026384Y0091257D01*
X0027500Y0090140D02*
X0030980Y0090140D01*
X0033440Y0092600D01*
X0033440Y0096080D01*
X0030980Y0098540D01*
X0027500Y0098540D01*
X0025040Y0096080D01*
X0025040Y0092600D01*
X0027500Y0090140D01*
X0025040Y0092855D02*
X0023440Y0092855D01*
X0023440Y0094454D02*
X0025040Y0094454D01*
X0025040Y0096052D02*
X0023440Y0096052D01*
X0021869Y0097651D02*
X0026611Y0097651D01*
X0031869Y0097651D02*
X0232700Y0097651D01*
X0232700Y0099249D02*
X0230053Y0099249D01*
X0230279Y0099475D02*
X0230915Y0101010D01*
X0230915Y0102670D01*
X0230279Y0104205D01*
X0229105Y0105379D01*
X0227570Y0106015D01*
X0225910Y0106015D01*
X0224375Y0105379D01*
X0223201Y0104205D01*
X0222565Y0102670D01*
X0222565Y0101010D01*
X0223201Y0099475D01*
X0224375Y0098301D01*
X0225910Y0097665D01*
X0227570Y0097665D01*
X0229105Y0098301D01*
X0230279Y0099475D01*
X0230848Y0100848D02*
X0232700Y0100848D01*
X0232700Y0102446D02*
X0230915Y0102446D01*
X0230346Y0104045D02*
X0232700Y0104045D01*
X0232700Y0105643D02*
X0228467Y0105643D01*
X0232700Y0107242D02*
X0016900Y0107242D01*
X0016900Y0108840D02*
X0232700Y0108840D01*
X0232700Y0110439D02*
X0016900Y0110439D01*
X0016900Y0112037D02*
X0232700Y0112037D01*
X0232700Y0113636D02*
X0016900Y0113636D01*
X0016900Y0115234D02*
X0232700Y0115234D01*
X0232700Y0116833D02*
X0016900Y0116833D01*
X0016900Y0118431D02*
X0232700Y0118431D01*
X0232700Y0120030D02*
X0016900Y0120030D01*
X0016900Y0121628D02*
X0223548Y0121628D01*
X0223201Y0121975D02*
X0224375Y0120801D01*
X0225910Y0120165D01*
X0227570Y0120165D01*
X0229105Y0120801D01*
X0230279Y0121975D01*
X0230915Y0123510D01*
X0230915Y0125170D01*
X0230279Y0126705D01*
X0229105Y0127879D01*
X0227570Y0128515D01*
X0225910Y0128515D01*
X0224375Y0127879D01*
X0223201Y0126705D01*
X0222565Y0125170D01*
X0222565Y0123510D01*
X0223201Y0121975D01*
X0222682Y0123227D02*
X0016900Y0123227D01*
X0016900Y0124825D02*
X0222565Y0124825D01*
X0223084Y0126424D02*
X0016900Y0126424D01*
X0016900Y0128022D02*
X0224721Y0128022D01*
X0225910Y0130165D02*
X0224375Y0130801D01*
X0223201Y0131975D01*
X0222565Y0133510D01*
X0222565Y0135170D01*
X0223201Y0136705D01*
X0224375Y0137879D01*
X0225910Y0138515D01*
X0227570Y0138515D01*
X0229105Y0137879D01*
X0230279Y0136705D01*
X0230915Y0135170D01*
X0230915Y0133510D01*
X0230279Y0131975D01*
X0229105Y0130801D01*
X0227570Y0130165D01*
X0225910Y0130165D01*
X0223957Y0131219D02*
X0016900Y0131219D01*
X0016900Y0129621D02*
X0232700Y0129621D01*
X0232700Y0131219D02*
X0229523Y0131219D01*
X0230628Y0132818D02*
X0232700Y0132818D01*
X0232700Y0134416D02*
X0230915Y0134416D01*
X0230565Y0136015D02*
X0232700Y0136015D01*
X0232700Y0137613D02*
X0229371Y0137613D01*
X0232700Y0139212D02*
X0193612Y0139212D01*
X0193612Y0140810D02*
X0224365Y0140810D01*
X0223021Y0142409D02*
X0193465Y0142409D01*
X0193612Y0142263D02*
X0192674Y0143200D01*
X0186199Y0143200D01*
X0185262Y0142263D01*
X0185262Y0135787D01*
X0186199Y0134850D01*
X0192674Y0134850D01*
X0193612Y0135787D01*
X0193612Y0142263D01*
X0192674Y0144693D02*
X0193612Y0145630D01*
X0193612Y0152105D01*
X0192912Y0152805D01*
X0193612Y0153504D01*
X0193612Y0159979D01*
X0192674Y0160916D01*
X0186199Y0160916D01*
X0185262Y0159979D01*
X0185262Y0153504D01*
X0185962Y0152805D01*
X0185262Y0152105D01*
X0185262Y0145630D01*
X0186199Y0144693D01*
X0192674Y0144693D01*
X0193588Y0145606D02*
X0222746Y0145606D01*
X0222565Y0144008D02*
X0057306Y0144008D01*
X0058904Y0145606D02*
X0185286Y0145606D01*
X0185262Y0147205D02*
X0060370Y0147205D01*
X0060900Y0148803D02*
X0185262Y0148803D01*
X0185262Y0150402D02*
X0060900Y0150402D01*
X0060900Y0152000D02*
X0185262Y0152000D01*
X0185262Y0153599D02*
X0060900Y0153599D01*
X0060900Y0155197D02*
X0185262Y0155197D01*
X0185262Y0156796D02*
X0060900Y0156796D01*
X0060900Y0158394D02*
X0185262Y0158394D01*
X0185276Y0159993D02*
X0060900Y0159993D01*
X0060900Y0161591D02*
X0240793Y0161591D01*
X0239194Y0159993D02*
X0193598Y0159993D01*
X0193612Y0158394D02*
X0225618Y0158394D01*
X0225910Y0158515D02*
X0224375Y0157879D01*
X0223201Y0156705D01*
X0222565Y0155170D01*
X0222565Y0153510D01*
X0223201Y0151975D01*
X0224375Y0150801D01*
X0225910Y0150165D01*
X0227570Y0150165D01*
X0229105Y0150801D01*
X0230279Y0151975D01*
X0230915Y0153510D01*
X0230915Y0155170D01*
X0230279Y0156705D01*
X0229105Y0157879D01*
X0227570Y0158515D01*
X0225910Y0158515D01*
X0227862Y0158394D02*
X0237596Y0158394D01*
X0235997Y0156796D02*
X0230188Y0156796D01*
X0230904Y0155197D02*
X0234399Y0155197D01*
X0232800Y0153599D02*
X0230915Y0153599D01*
X0231202Y0152000D02*
X0230290Y0152000D01*
X0229603Y0150402D02*
X0228141Y0150402D01*
X0228005Y0148803D02*
X0193612Y0148803D01*
X0193612Y0147205D02*
X0223700Y0147205D01*
X0225339Y0150402D02*
X0193612Y0150402D01*
X0193612Y0152000D02*
X0223190Y0152000D01*
X0222565Y0153599D02*
X0193612Y0153599D01*
X0193612Y0155197D02*
X0222576Y0155197D01*
X0223292Y0156796D02*
X0193612Y0156796D01*
X0192674Y0162409D02*
X0193612Y0163347D01*
X0193612Y0169822D01*
X0192674Y0170759D01*
X0186199Y0170759D01*
X0185262Y0169822D01*
X0185262Y0163347D01*
X0186199Y0162409D01*
X0192674Y0162409D01*
X0193455Y0163190D02*
X0242391Y0163190D01*
X0243990Y0164788D02*
X0193612Y0164788D01*
X0193612Y0166387D02*
X0245588Y0166387D01*
X0247187Y0167985D02*
X0193612Y0167985D01*
X0193612Y0169584D02*
X0247683Y0169584D01*
X0247674Y0171182D02*
X0061980Y0171182D01*
X0060900Y0169584D02*
X0185262Y0169584D01*
X0185262Y0167985D02*
X0060900Y0167985D01*
X0060900Y0166387D02*
X0185262Y0166387D01*
X0185262Y0164788D02*
X0060900Y0164788D01*
X0060900Y0163190D02*
X0185419Y0163190D01*
X0185408Y0142409D02*
X0055707Y0142409D01*
X0054109Y0140810D02*
X0185262Y0140810D01*
X0185262Y0139212D02*
X0052510Y0139212D01*
X0050912Y0137613D02*
X0185262Y0137613D01*
X0185262Y0136015D02*
X0049313Y0136015D01*
X0045709Y0144008D02*
X0016900Y0144008D01*
X0016900Y0145606D02*
X0029774Y0145606D01*
X0029750Y0145630D02*
X0030687Y0144693D01*
X0037163Y0144693D01*
X0038100Y0145630D01*
X0038100Y0152105D01*
X0037400Y0152805D01*
X0038100Y0153504D01*
X0038100Y0159979D01*
X0037163Y0160916D01*
X0030687Y0160916D01*
X0029750Y0159979D01*
X0029750Y0153504D01*
X0030450Y0152805D01*
X0029750Y0152105D01*
X0029750Y0145630D01*
X0029750Y0147205D02*
X0016900Y0147205D01*
X0016900Y0148803D02*
X0029750Y0148803D01*
X0029750Y0150402D02*
X0016900Y0150402D01*
X0016900Y0152000D02*
X0029750Y0152000D01*
X0029750Y0153599D02*
X0016900Y0153599D01*
X0016900Y0155197D02*
X0029750Y0155197D01*
X0029750Y0156796D02*
X0016900Y0156796D01*
X0016900Y0158394D02*
X0029750Y0158394D01*
X0029764Y0159993D02*
X0016900Y0159993D01*
X0016900Y0161591D02*
X0029929Y0161591D01*
X0030024Y0161528D02*
X0030533Y0161317D01*
X0031074Y0161209D01*
X0033925Y0161209D01*
X0033925Y0166584D01*
X0033925Y0166584D01*
X0033925Y0161209D01*
X0036776Y0161209D01*
X0037317Y0161317D01*
X0037826Y0161528D01*
X0038285Y0161834D01*
X0038675Y0162224D01*
X0038981Y0162683D01*
X0039192Y0163193D01*
X0039300Y0163734D01*
X0039300Y0166584D01*
X0033925Y0166584D01*
X0028550Y0166584D01*
X0028550Y0163734D01*
X0028658Y0163193D01*
X0028869Y0162683D01*
X0029175Y0162224D01*
X0029565Y0161834D01*
X0030024Y0161528D01*
X0028659Y0163190D02*
X0016900Y0163190D01*
X0016900Y0164788D02*
X0028550Y0164788D01*
X0028550Y0166387D02*
X0016900Y0166387D01*
X0016900Y0167985D02*
X0028550Y0167985D01*
X0028550Y0166584D02*
X0033925Y0166584D01*
X0033925Y0166584D01*
X0033925Y0166584D01*
X0039300Y0166584D01*
X0039300Y0169435D01*
X0039192Y0169976D01*
X0038981Y0170485D01*
X0038675Y0170944D01*
X0038285Y0171334D01*
X0037826Y0171640D01*
X0037317Y0171851D01*
X0036776Y0171959D01*
X0033925Y0171959D01*
X0031074Y0171959D01*
X0030533Y0171851D01*
X0030024Y0171640D01*
X0029565Y0171334D01*
X0029175Y0170944D01*
X0028869Y0170485D01*
X0028658Y0169976D01*
X0028550Y0169435D01*
X0028550Y0166584D01*
X0028580Y0169584D02*
X0016900Y0169584D01*
X0016900Y0171182D02*
X0029414Y0171182D01*
X0033925Y0171182D02*
X0033925Y0171182D01*
X0033925Y0171959D02*
X0033925Y0166584D01*
X0033925Y0166584D01*
X0033925Y0171959D01*
X0033925Y0169584D02*
X0033925Y0169584D01*
X0033925Y0167985D02*
X0033925Y0167985D01*
X0033925Y0166387D02*
X0033925Y0166387D01*
X0033925Y0164788D02*
X0033925Y0164788D01*
X0033925Y0163190D02*
X0033925Y0163190D01*
X0033925Y0161591D02*
X0033925Y0161591D01*
X0037921Y0161591D02*
X0052700Y0161591D01*
X0052700Y0159993D02*
X0038086Y0159993D01*
X0038100Y0158394D02*
X0052700Y0158394D01*
X0052700Y0156796D02*
X0038100Y0156796D01*
X0038100Y0155197D02*
X0052700Y0155197D01*
X0052700Y0153599D02*
X0038100Y0153599D01*
X0038100Y0152000D02*
X0052700Y0152000D01*
X0052103Y0150402D02*
X0038100Y0150402D01*
X0038100Y0148803D02*
X0050505Y0148803D01*
X0048906Y0147205D02*
X0038100Y0147205D01*
X0038076Y0145606D02*
X0047308Y0145606D01*
X0029897Y0142409D02*
X0016900Y0142409D01*
X0016900Y0140810D02*
X0029750Y0140810D01*
X0029750Y0139212D02*
X0016900Y0139212D01*
X0016900Y0137613D02*
X0029750Y0137613D01*
X0029750Y0136015D02*
X0016900Y0136015D01*
X0016900Y0134416D02*
X0222565Y0134416D01*
X0222852Y0132818D02*
X0016900Y0132818D01*
X0016900Y0105643D02*
X0225013Y0105643D01*
X0223134Y0104045D02*
X0016900Y0104045D01*
X0016900Y0102446D02*
X0222565Y0102446D01*
X0222632Y0100848D02*
X0016900Y0100848D01*
X0018020Y0099249D02*
X0223427Y0099249D01*
X0224677Y0096821D02*
X0223923Y0096437D01*
X0223239Y0095940D01*
X0222640Y0095341D01*
X0222143Y0094657D01*
X0221759Y0093903D01*
X0221498Y0093099D01*
X0221365Y0092263D01*
X0221365Y0091840D01*
X0221365Y0091417D01*
X0221498Y0090581D01*
X0221759Y0089777D01*
X0222143Y0089023D01*
X0222640Y0088339D01*
X0223239Y0087740D01*
X0223923Y0087243D01*
X0224677Y0086859D01*
X0224735Y0086840D01*
X0224677Y0086821D01*
X0223923Y0086437D01*
X0223239Y0085940D01*
X0222640Y0085341D01*
X0222143Y0084657D01*
X0221759Y0083903D01*
X0221498Y0083099D01*
X0221365Y0082263D01*
X0221365Y0081840D01*
X0221365Y0081417D01*
X0221498Y0080581D01*
X0221759Y0079777D01*
X0222143Y0079023D01*
X0222640Y0078339D01*
X0223239Y0077740D01*
X0223923Y0077243D01*
X0224677Y0076859D01*
X0225481Y0076598D01*
X0226317Y0076465D01*
X0226740Y0076465D01*
X0227163Y0076465D01*
X0227999Y0076598D01*
X0228803Y0076859D01*
X0229557Y0077243D01*
X0230241Y0077740D01*
X0230840Y0078339D01*
X0231337Y0079023D01*
X0231721Y0079777D01*
X0231982Y0080581D01*
X0232115Y0081417D01*
X0232115Y0081840D01*
X0232115Y0082263D01*
X0231982Y0083099D01*
X0231721Y0083903D01*
X0231337Y0084657D01*
X0230840Y0085341D01*
X0230241Y0085940D01*
X0229557Y0086437D01*
X0228803Y0086821D01*
X0228745Y0086840D01*
X0228803Y0086859D01*
X0229557Y0087243D01*
X0230241Y0087740D01*
X0230840Y0088339D01*
X0231337Y0089023D01*
X0231721Y0089777D01*
X0231982Y0090581D01*
X0232115Y0091417D01*
X0232115Y0091840D01*
X0232115Y0092263D01*
X0231982Y0093099D01*
X0231721Y0093903D01*
X0231337Y0094657D01*
X0230840Y0095341D01*
X0230241Y0095940D01*
X0229557Y0096437D01*
X0228803Y0096821D01*
X0227999Y0097082D01*
X0227163Y0097215D01*
X0226740Y0097215D01*
X0226740Y0091840D01*
X0232115Y0091840D01*
X0226740Y0091840D01*
X0226740Y0091840D01*
X0226740Y0091840D01*
X0226740Y0091840D01*
X0221365Y0091840D01*
X0226740Y0091840D01*
X0226740Y0097215D01*
X0226317Y0097215D01*
X0225481Y0097082D01*
X0224677Y0096821D01*
X0223393Y0096052D02*
X0033440Y0096052D01*
X0033440Y0094454D02*
X0171055Y0094454D01*
X0170223Y0092855D02*
X0033440Y0092855D01*
X0032096Y0091257D02*
X0170140Y0091257D01*
X0170140Y0089658D02*
X0004040Y0089658D01*
X0004040Y0088060D02*
X0170140Y0088060D01*
X0170140Y0086461D02*
X0004040Y0086461D01*
X0004040Y0084863D02*
X0170144Y0084863D01*
X0170147Y0083264D02*
X0004040Y0083264D01*
X0004040Y0081666D02*
X0170149Y0081666D01*
X0170152Y0080067D02*
X0004040Y0080067D01*
X0004040Y0078469D02*
X0170155Y0078469D01*
X0170158Y0076870D02*
X0004040Y0076870D01*
X0004040Y0075272D02*
X0170161Y0075272D01*
X0170164Y0073673D02*
X0004040Y0073673D01*
X0004040Y0072074D02*
X0170167Y0072074D01*
X0170170Y0070476D02*
X0038985Y0070476D01*
X0038981Y0070485D02*
X0038675Y0070944D01*
X0038285Y0071334D01*
X0037826Y0071640D01*
X0037317Y0071851D01*
X0036776Y0071959D01*
X0033925Y0071959D01*
X0031074Y0071959D01*
X0030533Y0071851D01*
X0030024Y0071640D01*
X0029565Y0071334D01*
X0029175Y0070944D01*
X0028869Y0070485D01*
X0028658Y0069976D01*
X0028550Y0069435D01*
X0028550Y0066584D01*
X0028550Y0063734D01*
X0028658Y0063193D01*
X0028869Y0062683D01*
X0029175Y0062224D01*
X0029565Y0061834D01*
X0030024Y0061528D01*
X0030533Y0061317D01*
X0031074Y0061209D01*
X0033925Y0061209D01*
X0033925Y0066584D01*
X0033925Y0066584D01*
X0033925Y0061209D01*
X0036776Y0061209D01*
X0037317Y0061317D01*
X0037826Y0061528D01*
X0038285Y0061834D01*
X0038675Y0062224D01*
X0038981Y0062683D01*
X0039192Y0063193D01*
X0039300Y0063734D01*
X0039300Y0066584D01*
X0033925Y0066584D01*
X0028550Y0066584D01*
X0033925Y0066584D01*
X0033925Y0066584D01*
X0033925Y0066584D01*
X0039300Y0066584D01*
X0039300Y0069435D01*
X0039192Y0069976D01*
X0038981Y0070485D01*
X0039300Y0068877D02*
X0170173Y0068877D01*
X0170176Y0067279D02*
X0039300Y0067279D01*
X0039300Y0065680D02*
X0170179Y0065680D01*
X0170182Y0064082D02*
X0039300Y0064082D01*
X0038848Y0062483D02*
X0170185Y0062483D01*
X0170188Y0060885D02*
X0037194Y0060885D01*
X0037163Y0060916D02*
X0030687Y0060916D01*
X0029750Y0059979D01*
X0029750Y0053504D01*
X0030450Y0052805D01*
X0029750Y0052105D01*
X0029750Y0045630D01*
X0030687Y0044693D01*
X0037163Y0044693D01*
X0038100Y0045630D01*
X0038100Y0052105D01*
X0037400Y0052805D01*
X0038100Y0053504D01*
X0038100Y0059979D01*
X0037163Y0060916D01*
X0038100Y0059286D02*
X0170191Y0059286D01*
X0170194Y0057688D02*
X0038100Y0057688D01*
X0038100Y0056089D02*
X0170196Y0056089D01*
X0170199Y0054491D02*
X0038100Y0054491D01*
X0037488Y0052892D02*
X0170200Y0052892D01*
X0170200Y0051294D02*
X0038100Y0051294D01*
X0038100Y0049695D02*
X0170200Y0049695D01*
X0170200Y0048097D02*
X0038100Y0048097D01*
X0038100Y0046498D02*
X0170200Y0046498D01*
X0170651Y0044900D02*
X0037370Y0044900D01*
X0037163Y0043200D02*
X0030687Y0043200D01*
X0029750Y0042263D01*
X0029750Y0035787D01*
X0030687Y0034850D01*
X0037163Y0034850D01*
X0038100Y0035787D01*
X0038100Y0042263D01*
X0037163Y0043200D01*
X0038100Y0041703D02*
X0173603Y0041703D01*
X0172004Y0043301D02*
X0004040Y0043301D01*
X0004040Y0041703D02*
X0029750Y0041703D01*
X0029750Y0040104D02*
X0004040Y0040104D01*
X0004040Y0038506D02*
X0029750Y0038506D01*
X0029750Y0036907D02*
X0004040Y0036907D01*
X0004040Y0035309D02*
X0030229Y0035309D01*
X0037621Y0035309D02*
X0180502Y0035309D01*
X0178398Y0036907D02*
X0038100Y0036907D01*
X0038100Y0038506D02*
X0176800Y0038506D01*
X0175201Y0040104D02*
X0038100Y0040104D01*
X0030480Y0044900D02*
X0004040Y0044900D01*
X0004040Y0046498D02*
X0029750Y0046498D01*
X0029750Y0048097D02*
X0004040Y0048097D01*
X0004040Y0049695D02*
X0029750Y0049695D01*
X0029750Y0051294D02*
X0004040Y0051294D01*
X0004040Y0052892D02*
X0030362Y0052892D01*
X0029750Y0054491D02*
X0004040Y0054491D01*
X0004040Y0056089D02*
X0029750Y0056089D01*
X0029750Y0057688D02*
X0004040Y0057688D01*
X0004040Y0059286D02*
X0029750Y0059286D01*
X0030656Y0060885D02*
X0004040Y0060885D01*
X0004040Y0062483D02*
X0029002Y0062483D01*
X0028550Y0064082D02*
X0004040Y0064082D01*
X0004040Y0065680D02*
X0028550Y0065680D01*
X0028550Y0067279D02*
X0004040Y0067279D01*
X0004040Y0068877D02*
X0028550Y0068877D01*
X0028865Y0070476D02*
X0004040Y0070476D01*
X0033925Y0070476D02*
X0033925Y0070476D01*
X0033925Y0071959D02*
X0033925Y0066584D01*
X0033925Y0066584D01*
X0033925Y0071959D01*
X0033925Y0068877D02*
X0033925Y0068877D01*
X0033925Y0067279D02*
X0033925Y0067279D01*
X0033925Y0065680D02*
X0033925Y0065680D01*
X0033925Y0064082D02*
X0033925Y0064082D01*
X0033925Y0062483D02*
X0033925Y0062483D01*
X0004040Y0024119D02*
X0248600Y0024119D01*
X0247001Y0022521D02*
X0004040Y0022521D01*
X0004040Y0020922D02*
X0246140Y0020922D01*
X0247782Y0043301D02*
X0183601Y0043301D01*
X0182002Y0044900D02*
X0185992Y0044900D01*
X0185262Y0046498D02*
X0180404Y0046498D01*
X0178805Y0048097D02*
X0185262Y0048097D01*
X0185262Y0049695D02*
X0178400Y0049695D01*
X0178400Y0051294D02*
X0185262Y0051294D01*
X0185874Y0052892D02*
X0178400Y0052892D01*
X0178400Y0054491D02*
X0185262Y0054491D01*
X0185262Y0056089D02*
X0178396Y0056089D01*
X0178394Y0057688D02*
X0185262Y0057688D01*
X0185262Y0059286D02*
X0178391Y0059286D01*
X0178388Y0060885D02*
X0186168Y0060885D01*
X0186125Y0062483D02*
X0178385Y0062483D01*
X0178382Y0064082D02*
X0185262Y0064082D01*
X0185262Y0065680D02*
X0178379Y0065680D01*
X0178376Y0067279D02*
X0185262Y0067279D01*
X0185262Y0068877D02*
X0178373Y0068877D01*
X0178370Y0070476D02*
X0185916Y0070476D01*
X0178367Y0072074D02*
X0222565Y0072074D01*
X0222786Y0070476D02*
X0192957Y0070476D01*
X0193612Y0068877D02*
X0223798Y0068877D01*
X0222980Y0073673D02*
X0178364Y0073673D01*
X0178361Y0075272D02*
X0224267Y0075272D01*
X0224655Y0076870D02*
X0178358Y0076870D01*
X0178355Y0078469D02*
X0222546Y0078469D01*
X0221665Y0080067D02*
X0178352Y0080067D01*
X0178350Y0081666D02*
X0221365Y0081666D01*
X0221365Y0081840D02*
X0226740Y0081840D01*
X0232115Y0081840D01*
X0226740Y0081840D01*
X0226740Y0081840D01*
X0226740Y0081840D01*
X0226740Y0086465D01*
X0226740Y0091840D01*
X0226740Y0091840D01*
X0226740Y0081840D01*
X0226740Y0076465D01*
X0226740Y0081840D01*
X0226740Y0081840D01*
X0226740Y0081840D01*
X0221365Y0081840D01*
X0221551Y0083264D02*
X0178347Y0083264D01*
X0178344Y0084863D02*
X0222292Y0084863D01*
X0223970Y0086461D02*
X0178341Y0086461D01*
X0178340Y0088060D02*
X0222919Y0088060D01*
X0221819Y0089658D02*
X0178340Y0089658D01*
X0178340Y0091257D02*
X0221391Y0091257D01*
X0221459Y0092855D02*
X0178257Y0092855D01*
X0177425Y0094454D02*
X0222039Y0094454D01*
X0226740Y0094454D02*
X0226740Y0094454D01*
X0226740Y0096052D02*
X0226740Y0096052D01*
X0226740Y0092855D02*
X0226740Y0092855D01*
X0226740Y0091257D02*
X0226740Y0091257D01*
X0226740Y0089658D02*
X0226740Y0089658D01*
X0226740Y0088060D02*
X0226740Y0088060D01*
X0226740Y0086461D02*
X0226740Y0086461D01*
X0226740Y0084863D02*
X0226740Y0084863D01*
X0226740Y0083264D02*
X0226740Y0083264D01*
X0226740Y0081666D02*
X0226740Y0081666D01*
X0226740Y0080067D02*
X0226740Y0080067D01*
X0226740Y0078469D02*
X0226740Y0078469D01*
X0226740Y0076870D02*
X0226740Y0076870D01*
X0228825Y0076870D02*
X0232700Y0076870D01*
X0232700Y0078469D02*
X0230934Y0078469D01*
X0231815Y0080067D02*
X0232700Y0080067D01*
X0232700Y0081666D02*
X0232115Y0081666D01*
X0231929Y0083264D02*
X0232700Y0083264D01*
X0232700Y0084863D02*
X0231188Y0084863D01*
X0232700Y0086461D02*
X0229510Y0086461D01*
X0230561Y0088060D02*
X0232700Y0088060D01*
X0232700Y0089658D02*
X0231661Y0089658D01*
X0232089Y0091257D02*
X0232700Y0091257D01*
X0232700Y0092855D02*
X0232021Y0092855D01*
X0231441Y0094454D02*
X0232700Y0094454D01*
X0232700Y0096052D02*
X0230087Y0096052D01*
X0229932Y0121628D02*
X0232700Y0121628D01*
X0232700Y0123227D02*
X0230798Y0123227D01*
X0230915Y0124825D02*
X0232700Y0124825D01*
X0232700Y0126424D02*
X0230396Y0126424D01*
X0228759Y0128022D02*
X0232700Y0128022D01*
X0222915Y0136015D02*
X0193612Y0136015D01*
X0193612Y0137613D02*
X0224109Y0137613D01*
X0231591Y0140810D02*
X0232700Y0140810D01*
X0255893Y0167985D02*
X0257187Y0167985D01*
X0257683Y0169584D02*
X0255883Y0169584D01*
X0255874Y0171182D02*
X0257674Y0171182D01*
X0257664Y0172781D02*
X0255864Y0172781D01*
X0255855Y0174379D02*
X0257655Y0174379D01*
X0257340Y0175978D02*
X0256140Y0175978D01*
X0256140Y0177576D02*
X0257340Y0177576D01*
X0257852Y0179175D02*
X0255628Y0179175D01*
X0254029Y0180773D02*
X0259451Y0180773D01*
X0259420Y0181240D02*
X0261640Y0181240D01*
X0261640Y0186740D01*
X0256140Y0186740D01*
X0256140Y0184520D01*
X0259420Y0181240D01*
X0258289Y0182372D02*
X0073170Y0182372D01*
X0074769Y0183970D02*
X0248387Y0183970D01*
X0247340Y0185569D02*
X0076367Y0185569D01*
X0077966Y0187167D02*
X0247340Y0187167D01*
X0247443Y0188766D02*
X0079564Y0188766D01*
X0081163Y0190364D02*
X0244205Y0190364D01*
X0242607Y0191963D02*
X0082761Y0191963D01*
X0084360Y0193561D02*
X0239240Y0193561D01*
X0237642Y0195160D02*
X0085958Y0195160D01*
X0087557Y0196758D02*
X0236043Y0196758D01*
X0234445Y0198357D02*
X0089155Y0198357D01*
X0090754Y0199955D02*
X0232846Y0199955D01*
X0231248Y0201554D02*
X0092352Y0201554D01*
X0087150Y0207948D02*
X0016900Y0207948D01*
X0016900Y0209546D02*
X0088748Y0209546D01*
X0085551Y0206349D02*
X0016900Y0206349D01*
X0016900Y0204751D02*
X0083953Y0204751D01*
X0082354Y0203152D02*
X0016900Y0203152D01*
X0016900Y0201554D02*
X0080756Y0201554D01*
X0079157Y0199955D02*
X0016900Y0199955D01*
X0016900Y0198357D02*
X0077559Y0198357D01*
X0075960Y0196758D02*
X0016900Y0196758D01*
X0016900Y0195160D02*
X0074362Y0195160D01*
X0072763Y0193561D02*
X0016900Y0193561D01*
X0016900Y0191963D02*
X0071165Y0191963D01*
X0069566Y0190364D02*
X0016900Y0190364D01*
X0016900Y0188766D02*
X0067968Y0188766D01*
X0066369Y0187167D02*
X0016900Y0187167D01*
X0016900Y0185569D02*
X0064771Y0185569D01*
X0063172Y0183970D02*
X0016900Y0183970D01*
X0016900Y0182372D02*
X0061574Y0182372D01*
X0059975Y0180773D02*
X0016900Y0180773D01*
X0016900Y0179175D02*
X0058376Y0179175D01*
X0056778Y0177576D02*
X0016900Y0177576D01*
X0016900Y0175978D02*
X0055179Y0175978D01*
X0053581Y0174379D02*
X0016900Y0174379D01*
X0016900Y0172781D02*
X0052768Y0172781D01*
X0052700Y0171182D02*
X0038436Y0171182D01*
X0039270Y0169584D02*
X0052700Y0169584D01*
X0052700Y0167985D02*
X0039300Y0167985D01*
X0039300Y0166387D02*
X0052700Y0166387D01*
X0052700Y0164788D02*
X0039300Y0164788D01*
X0039191Y0163190D02*
X0052700Y0163190D01*
X0063579Y0172781D02*
X0247664Y0172781D01*
X0247655Y0174379D02*
X0065177Y0174379D01*
X0066776Y0175978D02*
X0247340Y0175978D01*
X0247340Y0177576D02*
X0068375Y0177576D01*
X0069973Y0179175D02*
X0247852Y0179175D01*
X0249451Y0180773D02*
X0071572Y0180773D01*
X0056431Y0222335D02*
X0243304Y0222335D01*
X0244384Y0223414D02*
X0244384Y0223414D01*
X0244903Y0223933D02*
X0054831Y0223933D01*
X0053232Y0225532D02*
X0213264Y0225532D01*
X0211666Y0227130D02*
X0051632Y0227130D01*
X0050032Y0228729D02*
X0210067Y0228729D01*
X0209440Y0230327D02*
X0048432Y0230327D01*
X0046832Y0231926D02*
X0209440Y0231926D01*
X0209440Y0233524D02*
X0045232Y0233524D01*
X0043632Y0235123D02*
X0185927Y0235123D01*
X0186199Y0234850D02*
X0192674Y0234850D01*
X0193612Y0235787D01*
X0193612Y0242263D01*
X0192674Y0243200D01*
X0186199Y0243200D01*
X0185262Y0242263D01*
X0185262Y0235787D01*
X0186199Y0234850D01*
X0185262Y0236721D02*
X0042032Y0236721D01*
X0040432Y0238320D02*
X0185262Y0238320D01*
X0185262Y0239918D02*
X0038832Y0239918D01*
X0038100Y0241517D02*
X0185262Y0241517D01*
X0186115Y0243115D02*
X0037247Y0243115D01*
X0037163Y0244693D02*
X0038100Y0245630D01*
X0038100Y0252105D01*
X0037400Y0252805D01*
X0038100Y0253504D01*
X0038100Y0259979D01*
X0037163Y0260916D01*
X0030687Y0260916D01*
X0029750Y0259979D01*
X0029750Y0253504D01*
X0030450Y0252805D01*
X0029750Y0252105D01*
X0029750Y0245630D01*
X0030687Y0244693D01*
X0037163Y0244693D01*
X0037184Y0244714D02*
X0186178Y0244714D01*
X0186199Y0244693D02*
X0192674Y0244693D01*
X0193612Y0245630D01*
X0193612Y0252105D01*
X0192912Y0252805D01*
X0193612Y0253504D01*
X0193612Y0259979D01*
X0192674Y0260916D01*
X0186199Y0260916D01*
X0185262Y0259979D01*
X0185262Y0253504D01*
X0185962Y0252805D01*
X0185262Y0252105D01*
X0185262Y0245630D01*
X0186199Y0244693D01*
X0185262Y0246312D02*
X0038100Y0246312D01*
X0038100Y0247911D02*
X0185262Y0247911D01*
X0185262Y0249509D02*
X0038100Y0249509D01*
X0038100Y0251108D02*
X0185262Y0251108D01*
X0185863Y0252706D02*
X0037499Y0252706D01*
X0038100Y0254305D02*
X0185262Y0254305D01*
X0185262Y0255903D02*
X0038100Y0255903D01*
X0038100Y0257502D02*
X0185262Y0257502D01*
X0185262Y0259100D02*
X0038100Y0259100D01*
X0037380Y0260699D02*
X0185982Y0260699D01*
X0186199Y0262409D02*
X0192674Y0262409D01*
X0193612Y0263347D01*
X0193612Y0269822D01*
X0192674Y0270759D01*
X0186199Y0270759D01*
X0185262Y0269822D01*
X0185262Y0263347D01*
X0186199Y0262409D01*
X0185262Y0263896D02*
X0039300Y0263896D01*
X0039300Y0263734D02*
X0039300Y0266584D01*
X0033925Y0266584D01*
X0033925Y0266584D01*
X0033925Y0261209D01*
X0031074Y0261209D01*
X0030533Y0261317D01*
X0030024Y0261528D01*
X0029565Y0261834D01*
X0029175Y0262224D01*
X0028869Y0262683D01*
X0028658Y0263193D01*
X0028550Y0263734D01*
X0028550Y0266584D01*
X0033925Y0266584D01*
X0033925Y0261209D01*
X0036776Y0261209D01*
X0037317Y0261317D01*
X0037826Y0261528D01*
X0038285Y0261834D01*
X0038675Y0262224D01*
X0038981Y0262683D01*
X0039192Y0263193D01*
X0039300Y0263734D01*
X0038723Y0262297D02*
X0209440Y0262297D01*
X0209440Y0260699D02*
X0192892Y0260699D01*
X0193612Y0259100D02*
X0209440Y0259100D01*
X0209440Y0257502D02*
X0193612Y0257502D01*
X0193612Y0255903D02*
X0209440Y0255903D01*
X0209440Y0254305D02*
X0193612Y0254305D01*
X0193010Y0252706D02*
X0209440Y0252706D01*
X0209440Y0251108D02*
X0193612Y0251108D01*
X0193612Y0249509D02*
X0209440Y0249509D01*
X0209440Y0247911D02*
X0193612Y0247911D01*
X0193612Y0246312D02*
X0209440Y0246312D01*
X0209440Y0244714D02*
X0192695Y0244714D01*
X0192759Y0243115D02*
X0209440Y0243115D01*
X0209440Y0241517D02*
X0193612Y0241517D01*
X0193612Y0239918D02*
X0209440Y0239918D01*
X0209440Y0238320D02*
X0193612Y0238320D01*
X0193612Y0236721D02*
X0209440Y0236721D01*
X0209440Y0235123D02*
X0192947Y0235123D01*
X0193612Y0263896D02*
X0209440Y0263896D01*
X0209440Y0265494D02*
X0193612Y0265494D01*
X0193612Y0267093D02*
X0209440Y0267093D01*
X0209440Y0268691D02*
X0193612Y0268691D01*
X0193143Y0270290D02*
X0209440Y0270290D01*
X0209440Y0271888D02*
X0037130Y0271888D01*
X0037317Y0271851D02*
X0036776Y0271959D01*
X0033925Y0271959D01*
X0031074Y0271959D01*
X0030533Y0271851D01*
X0030024Y0271640D01*
X0029565Y0271334D01*
X0029175Y0270944D01*
X0028869Y0270485D01*
X0028658Y0269976D01*
X0028550Y0269435D01*
X0028550Y0266584D01*
X0033925Y0266584D01*
X0033925Y0266584D01*
X0033925Y0266584D01*
X0039300Y0266584D01*
X0039300Y0269435D01*
X0039192Y0269976D01*
X0038981Y0270485D01*
X0038675Y0270944D01*
X0038285Y0271334D01*
X0037826Y0271640D01*
X0037317Y0271851D01*
X0039062Y0270290D02*
X0185730Y0270290D01*
X0185262Y0268691D02*
X0039300Y0268691D01*
X0039300Y0267093D02*
X0185262Y0267093D01*
X0185262Y0265494D02*
X0039300Y0265494D01*
X0033925Y0265494D02*
X0033925Y0265494D01*
X0033925Y0266584D02*
X0033925Y0271959D01*
X0033925Y0266584D01*
X0033925Y0266584D01*
X0033925Y0267093D02*
X0033925Y0267093D01*
X0033925Y0268691D02*
X0033925Y0268691D01*
X0033925Y0270290D02*
X0033925Y0270290D01*
X0033925Y0271888D02*
X0033925Y0271888D01*
X0030720Y0271888D02*
X0004040Y0271888D01*
X0004040Y0270290D02*
X0028788Y0270290D01*
X0028550Y0268691D02*
X0004040Y0268691D01*
X0004040Y0267093D02*
X0028550Y0267093D01*
X0028550Y0265494D02*
X0004040Y0265494D01*
X0004040Y0263896D02*
X0028550Y0263896D01*
X0029127Y0262297D02*
X0004040Y0262297D01*
X0004040Y0260699D02*
X0030470Y0260699D01*
X0029750Y0259100D02*
X0004040Y0259100D01*
X0004040Y0257502D02*
X0029750Y0257502D01*
X0029750Y0255903D02*
X0004040Y0255903D01*
X0004040Y0254305D02*
X0029750Y0254305D01*
X0030351Y0252706D02*
X0004040Y0252706D01*
X0004040Y0251108D02*
X0029750Y0251108D01*
X0029750Y0249509D02*
X0004040Y0249509D01*
X0004040Y0247911D02*
X0029750Y0247911D01*
X0029750Y0246312D02*
X0004040Y0246312D01*
X0004040Y0244714D02*
X0030667Y0244714D01*
X0030603Y0243115D02*
X0004040Y0243115D01*
X0004040Y0241517D02*
X0029750Y0241517D01*
X0029750Y0239918D02*
X0004040Y0239918D01*
X0004040Y0238320D02*
X0029556Y0238320D01*
X0033925Y0262297D02*
X0033925Y0262297D01*
X0033925Y0263896D02*
X0033925Y0263896D01*
X0004040Y0273487D02*
X0209440Y0273487D01*
X0209440Y0275085D02*
X0004040Y0275085D01*
X0004040Y0276684D02*
X0209440Y0276684D01*
X0209440Y0278282D02*
X0004040Y0278282D01*
X0004040Y0279881D02*
X0209440Y0279881D01*
X0209440Y0281479D02*
X0004040Y0281479D01*
X0004040Y0283078D02*
X0209440Y0283078D01*
X0209440Y0284677D02*
X0004040Y0284677D01*
X0004040Y0286275D02*
X0209440Y0286275D01*
X0209440Y0287874D02*
X0004040Y0287874D01*
X0004040Y0289472D02*
X0209440Y0289472D01*
X0209440Y0291071D02*
X0004040Y0291071D01*
X0004040Y0292669D02*
X0209440Y0292669D01*
X0209440Y0294268D02*
X0004040Y0294268D01*
X0004040Y0295866D02*
X0209440Y0295866D01*
X0209440Y0297465D02*
X0004040Y0297465D01*
X0004040Y0299063D02*
X0209440Y0299063D01*
X0209440Y0300662D02*
X0004040Y0300662D01*
X0238049Y0206349D02*
X0247340Y0206349D01*
X0247607Y0204751D02*
X0239647Y0204751D01*
X0241246Y0203152D02*
X0244122Y0203152D01*
X0256037Y0188766D02*
X0256140Y0188766D01*
X0256140Y0187167D02*
X0256140Y0187167D01*
X0256140Y0185569D02*
X0256140Y0185569D01*
X0256690Y0183970D02*
X0255093Y0183970D01*
X0261640Y0183970D02*
X0261840Y0183970D01*
X0261840Y0182372D02*
X0261640Y0182372D01*
X0261640Y0185569D02*
X0261840Y0185569D01*
X0261840Y0187167D02*
X0261640Y0187167D01*
X0261640Y0188766D02*
X0261840Y0188766D01*
X0261840Y0190364D02*
X0261640Y0190364D01*
X0261640Y0191963D02*
X0261840Y0191963D01*
X0261418Y0192440D02*
X0261418Y0192440D01*
D19*
X0270740Y0222309D03*
X0208740Y0222356D03*
X0208732Y0178017D03*
X0270740Y0112960D03*
X0270740Y0008340D03*
X0007740Y0008340D03*
X0007740Y0103340D03*
X0007740Y0203340D03*
X0007740Y0298340D03*
X0205740Y0298340D03*
M02*
